G04 ================== begin FILE IDENTIFICATION RECORD ==================*
G04 Layout Name:  J:/eb/EB3b.brd*
G04 Film Name:    ASSEMBLY*
G04 File Format:  Gerber RS274X*
G04 File Origin:  Cadence Allegro 17.2-P019*
G04 Origin Date:  Mon Mar 08 12:54:10 2021*
G04 *
G04 Layer:  PACKAGE GEOMETRY/ASSEMBLY_TOP*
G04 Layer:  MANUFACTURING/NCDRILL_LEGEND*
G04 Layer:  MANUFACTURING/NCDRILL_FIGURE*
G04 Layer:  BOARD GEOMETRY/ASSEMBLY_TOP*
G04 Layer:  BOARD GEOMETRY/ASSEMBLY_NOTES*
G04 Layer:  BOARD GEOMETRY/ASSEMBLY_DETAIL*
G04 Layer:  REF DES/ASSEMBLY_TOP*
G04 *
G04 Offset:    (0.0000 0.0000)*
G04 Mirror:    No*
G04 Mode:      Positive*
G04 Rotation:  0*
G04 FullContactRelief:  No*
G04 UndefLineWidth:     0.1500*
G04 ================== end FILE IDENTIFICATION RECORD ====================*
%FSLAX35Y35*MOMM*%
%IR0*IPPOS*OFA0.00000B0.00000*MIA0B0*SFA1.00000B1.00000*%
%ADD10C,.1*%
%ADD11C,.1001*%
%ADD12C,.2*%
%ADD13C,.24*%
%ADD14C,.2032*%
%ADD15C,.1501*%
%ADD16C,.127*%
%ADD17C,.2029*%
%ADD18C,.1519*%
%ADD19C,.1999*%
%ADD20C,.15*%
%ADD21C,.0508*%
%ADD22C,.0249*%
G75*
%LPD*%
G75*
G36*
G01X-2575000Y-3700000D02*
Y-4050000D01*
X-1400000D01*
Y-3700000D01*
X-2575000D01*
G37*
G54D10*
G01X-2866850Y-2660000D02*
X-4371850D01*
Y-4135000D01*
X-3046850D01*
Y-4160000D01*
X-2936850D01*
Y-4135000D01*
X-2866850D01*
Y-2660000D01*
G54D20*
G01X-4593790Y-2461600D02*
X-4585750Y-2474300D01*
X-4576100Y-2482770D01*
X-4564840Y-2487000D01*
X-4551970Y-2482770D01*
X-4542320Y-2474300D01*
X-4532660Y-2461600D01*
X-4529450Y-2444670D01*
Y-2360000D01*
G01X-4467470Y-2461600D02*
X-4457820Y-2476420D01*
X-4444950Y-2484880D01*
X-4430470Y-2487000D01*
X-4417600Y-2484880D01*
X-4404730Y-2474300D01*
X-4396690Y-2461600D01*
X-4395080Y-2448900D01*
X-4398300Y-2434090D01*
X-4409560Y-2423500D01*
X-4420820Y-2419270D01*
X-4435300D01*
G01X-4420820D02*
X-4411170Y-2412920D01*
X-4403120Y-2402340D01*
X-4399910Y-2389630D01*
X-4403120Y-2376930D01*
X-4411170Y-2366350D01*
X-4425650Y-2360000D01*
X-4440120Y-2362120D01*
X-4454600Y-2370580D01*
G01X-3408520Y-1646790D02*
Y-1756770D01*
X-3348520D01*
Y-1646790D01*
X-3408520D01*
G01X-2904960Y-763780D02*
X-2794980D01*
Y-703780D01*
X-2904960D01*
Y-763780D01*
G01X-2987280Y-585780D02*
X-3097260D01*
Y-645780D01*
X-2987280D01*
Y-585780D01*
G01X-2918810Y-906280D02*
X-2808830D01*
Y-846280D01*
X-2918810D01*
Y-906280D01*
G01X-863600Y193040D02*
X-822960Y152400D01*
Y-1168400D01*
X-863600Y-1209040D01*
X-2184400D01*
X-2225040Y-1168400D01*
Y152400D01*
X-2184400Y193040D01*
X-863600D01*
G01X-1206500Y-407840D02*
X-1297520D01*
X-1316570Y-414270D01*
X-1329270Y-427140D01*
X-1333500Y-443230D01*
X-1329270Y-459320D01*
X-1316570Y-472190D01*
X-1297520Y-478620D01*
X-1206500D01*
G01X-1333500Y-572770D02*
X-1206500D01*
X-1231900Y-553470D01*
G01X-1333500D02*
Y-592070D01*
G01X-840740Y111760D02*
G03I-63500J0D01*
G01X102850Y-2702770D02*
Y-2522790D01*
X2830D01*
Y-2702770D01*
X102850D01*
G01X640370Y-2626780D02*
Y-2806760D01*
X740390D01*
G01X2005670Y584200D02*
Y538690D01*
X2008380Y529160D01*
X2013800Y522820D01*
X2020570Y520700D01*
X2027340Y522820D01*
X2032760Y529160D01*
X2035470Y538690D01*
Y584200D01*
G01X2084580Y520700D02*
Y584200D01*
X2059520Y538690D01*
X2093380D01*
G01X1841500Y63500D02*
Y952500D01*
X2222500D01*
Y63500D01*
X1841500D01*
G01X1905000Y952500D02*
Y63500D01*
G01X1974850Y889000D02*
G03I-25400J0D01*
G01X1841500Y1587500D02*
Y2476500D01*
X2222500D01*
Y1587500D01*
X1841500D01*
G01X1905000Y2476500D02*
Y1587500D01*
G01X2005670Y2108200D02*
Y2062690D01*
X2008380Y2053160D01*
X2013800Y2046820D01*
X2020570Y2044700D01*
X2027340Y2046820D01*
X2032760Y2053160D01*
X2035470Y2062690D01*
Y2108200D01*
G01X2061550Y2054220D02*
X2065610Y2048930D01*
X2070350Y2045760D01*
X2076450Y2044700D01*
X2082550Y2046820D01*
X2087290Y2051050D01*
X2090670Y2058460D01*
X2091350Y2066920D01*
X2090000Y2075390D01*
X2086610Y2080680D01*
X2081870Y2084920D01*
X2077130Y2085970D01*
X2072390Y2084920D01*
X2066290Y2080680D01*
X2068320Y2108200D01*
X2086610D01*
G01X1974850Y2413000D02*
G03I-25400J0D01*
G01X3380310Y342740D02*
Y522720D01*
X3280290D01*
Y342740D01*
X3380310D01*
G01X3630820Y1097060D02*
X3520840D01*
Y1037060D01*
X3630820D01*
Y1097060D01*
G54D11*
G01X1337000Y-725000D02*
Y-471000D01*
X2353000D01*
Y-725000D01*
X1337000D01*
G54D21*
G01X1136500Y-1349000D02*
Y-1749000D01*
X2011500D01*
Y-1349000D01*
X1136500D01*
G01X1961500Y-1449000D02*
G03I-50000J0D01*
G01X2528370Y-1354680D02*
Y-1754680D01*
X3528370D01*
Y-1354680D01*
X2528370D01*
G01X3478370Y-1454680D02*
G03I-50000J0D01*
G54D12*
G01X-3157500Y611500D02*
Y-103500D01*
X-4462500D01*
Y611500D01*
X-3157500D01*
G54D22*
G01X-4821180Y-2205860D02*
X-4820330Y-2200790D01*
X-4816950Y-2196360D01*
X-4811870Y-2192560D01*
X-4805940Y-2190030D01*
X-4799170Y-2188760D01*
X-4792390D01*
X-4785620Y-2190030D01*
X-4779690Y-2192560D01*
X-4774610Y-2196360D01*
X-4771230Y-2200790D01*
X-4770380Y-2205860D01*
X-4771230Y-2210930D01*
X-4774610Y-2215360D01*
X-4779690Y-2219160D01*
X-4785620Y-2221690D01*
X-4792390Y-2222960D01*
X-4799170D01*
X-4805940Y-2221690D01*
X-4811870Y-2219160D01*
X-4816950Y-2215360D01*
X-4820330Y-2210930D01*
X-4821180Y-2205860D01*
G01X-4807630Y-2210930D02*
X-4821180Y-2218530D01*
G01Y-2256560D02*
X-4820330Y-2260990D01*
X-4817790Y-2266060D01*
X-4813560Y-2269230D01*
X-4807630Y-2270490D01*
X-4801710Y-2269230D01*
X-4796630Y-2265430D01*
X-4794090Y-2259730D01*
Y-2253390D01*
X-4792390Y-2249590D01*
X-4788160Y-2246430D01*
X-4782230Y-2245160D01*
X-4776310Y-2247060D01*
X-4772070Y-2251490D01*
X-4770380Y-2256560D01*
X-4772070Y-2261630D01*
X-4776310Y-2266060D01*
X-4782230Y-2267960D01*
X-4788160Y-2266690D01*
X-4792390Y-2263530D01*
X-4794090Y-2259730D01*
Y-2253390D01*
X-4796630Y-2247690D01*
X-4801710Y-2243890D01*
X-4807630Y-2242630D01*
X-4813560Y-2243890D01*
X-4817790Y-2247060D01*
X-4820330Y-2252130D01*
X-4821180Y-2256560D01*
G01X-4876590Y-1938690D02*
Y-1887890D01*
X-4860750D01*
X-4855690Y-1890430D01*
X-4852520Y-1893820D01*
X-4851250Y-1900590D01*
X-4852520Y-1907360D01*
X-4856320Y-1911600D01*
X-4860750Y-1914140D01*
X-4876590D01*
G01X-4860750D02*
X-4851250Y-1938690D01*
G01X-4805620D02*
Y-1887890D01*
X-4829050Y-1924300D01*
X-4797390D01*
G01X-4754920Y-1938690D02*
Y-1887890D01*
X-4778350Y-1924300D01*
X-4746690D01*
G01X-4886220Y-1688690D02*
Y-1637890D01*
X-4870380D01*
X-4865320Y-1640430D01*
X-4862150Y-1643820D01*
X-4860880Y-1650590D01*
X-4862150Y-1657360D01*
X-4865950Y-1661600D01*
X-4870380Y-1664140D01*
X-4886220D01*
G01X-4870380D02*
X-4860880Y-1688690D01*
G01X-4815250D02*
Y-1637890D01*
X-4838680Y-1674300D01*
X-4807020D01*
G01X-4786080Y-1681070D02*
X-4782280Y-1685300D01*
X-4777850Y-1687840D01*
X-4772150Y-1688690D01*
X-4766450Y-1687000D01*
X-4762020Y-1683610D01*
X-4758850Y-1677680D01*
X-4758220Y-1670910D01*
X-4759480Y-1664140D01*
X-4762650Y-1659900D01*
X-4767080Y-1656520D01*
X-4771520Y-1655670D01*
X-4775950Y-1656520D01*
X-4781650Y-1659900D01*
X-4779750Y-1637890D01*
X-4762650D01*
G01X-4705320Y-1311590D02*
X-4706170Y-1316660D01*
X-4709550Y-1321090D01*
X-4714630Y-1324890D01*
X-4720560Y-1327420D01*
X-4727330Y-1328690D01*
X-4734110D01*
X-4740880Y-1327420D01*
X-4746810Y-1324890D01*
X-4751890Y-1321090D01*
X-4755270Y-1316660D01*
X-4756120Y-1311590D01*
X-4755270Y-1306520D01*
X-4751890Y-1302090D01*
X-4746810Y-1298290D01*
X-4740880Y-1295760D01*
X-4734110Y-1294490D01*
X-4727330D01*
X-4720560Y-1295760D01*
X-4714630Y-1298290D01*
X-4709550Y-1302090D01*
X-4706170Y-1306520D01*
X-4705320Y-1311590D01*
G01X-4718870Y-1306520D02*
X-4705320Y-1298920D01*
G01Y-1262160D02*
X-4716330Y-1260890D01*
X-4725640Y-1258990D01*
X-4734110Y-1256460D01*
X-4743420Y-1253290D01*
X-4756120Y-1248220D01*
Y-1273560D01*
G01X-4507260Y-265660D02*
X-4503460Y-268200D01*
X-4499030Y-269890D01*
X-4493960D01*
X-4488260Y-267350D01*
X-4483830Y-263120D01*
X-4480660Y-258040D01*
X-4478130Y-249570D01*
X-4477500Y-241950D01*
X-4478760Y-234330D01*
X-4480660Y-229250D01*
X-4484460Y-224170D01*
X-4488900Y-220780D01*
X-4493330Y-219090D01*
X-4497760D01*
X-4502200Y-220780D01*
X-4506000Y-223320D01*
X-4509160Y-226710D01*
G01X-4544030Y-219090D02*
Y-269890D01*
X-4536430Y-259730D01*
G01Y-219090D02*
X-4551630D01*
G01X-4594730D02*
X-4599160Y-219940D01*
X-4604230Y-222480D01*
X-4607400Y-226710D01*
X-4608660Y-232640D01*
X-4607400Y-238560D01*
X-4603600Y-243640D01*
X-4597900Y-246180D01*
X-4591560D01*
X-4587760Y-247880D01*
X-4584600Y-252110D01*
X-4583330Y-258040D01*
X-4585230Y-263960D01*
X-4589660Y-268200D01*
X-4594730Y-269890D01*
X-4599800Y-268200D01*
X-4604230Y-263960D01*
X-4606130Y-258040D01*
X-4604860Y-252110D01*
X-4601700Y-247880D01*
X-4597900Y-246180D01*
X-4591560D01*
X-4585860Y-243640D01*
X-4582060Y-238560D01*
X-4580800Y-232640D01*
X-4582060Y-226710D01*
X-4585230Y-222480D01*
X-4590300Y-219940D01*
X-4594730Y-219090D01*
G01X-4264190Y-2219380D02*
X-4266730Y-2223180D01*
X-4268420Y-2227610D01*
Y-2232680D01*
X-4265880Y-2238380D01*
X-4261650Y-2242810D01*
X-4256570Y-2245980D01*
X-4248100Y-2248510D01*
X-4240480Y-2249140D01*
X-4232860Y-2247880D01*
X-4227780Y-2245980D01*
X-4222700Y-2242180D01*
X-4219310Y-2237740D01*
X-4217620Y-2233310D01*
Y-2228880D01*
X-4219310Y-2224440D01*
X-4221850Y-2220640D01*
X-4225240Y-2217480D01*
G01X-4217620Y-2175010D02*
X-4268420D01*
X-4232010Y-2198440D01*
Y-2166780D01*
G01X-4223550Y-2142680D02*
X-4219310Y-2138240D01*
X-4217620Y-2133180D01*
X-4219310Y-2128110D01*
X-4224390Y-2123680D01*
X-4232010Y-2120510D01*
X-4239630Y-2119240D01*
X-4248950D01*
X-4256570Y-2120510D01*
X-4263340Y-2123680D01*
X-4266730Y-2127480D01*
X-4268420Y-2131910D01*
X-4266730Y-2136980D01*
X-4263340Y-2140780D01*
X-4258260Y-2143310D01*
X-4251490Y-2144580D01*
X-4245560Y-2143310D01*
X-4239630Y-2140140D01*
X-4236250Y-2136340D01*
X-4235400Y-2131910D01*
X-4237090Y-2126840D01*
X-4241330Y-2123040D01*
X-4248950Y-2119240D01*
G01X-4129020Y-1859650D02*
X-4131560Y-1863450D01*
X-4133250Y-1867880D01*
Y-1872950D01*
X-4130710Y-1878650D01*
X-4126480Y-1883080D01*
X-4121400Y-1886250D01*
X-4112930Y-1888780D01*
X-4105310Y-1889410D01*
X-4097690Y-1888150D01*
X-4092610Y-1886250D01*
X-4087530Y-1882450D01*
X-4084140Y-1878010D01*
X-4082450Y-1873580D01*
Y-1869150D01*
X-4084140Y-1864710D01*
X-4086680Y-1860910D01*
X-4090070Y-1857750D01*
G01X-4082450Y-1815280D02*
X-4133250D01*
X-4096840Y-1838710D01*
Y-1807050D01*
G01X-4082450Y-1773450D02*
X-4093460Y-1772180D01*
X-4102770Y-1770280D01*
X-4111240Y-1767750D01*
X-4120550Y-1764580D01*
X-4133250Y-1759510D01*
Y-1784850D01*
G01X-3884070Y-2040910D02*
X-3879000Y-2041760D01*
X-3874570Y-2045140D01*
X-3870770Y-2050220D01*
X-3868240Y-2056150D01*
X-3866970Y-2062920D01*
Y-2069700D01*
X-3868240Y-2076470D01*
X-3870770Y-2082400D01*
X-3874570Y-2087480D01*
X-3879000Y-2090860D01*
X-3884070Y-2091710D01*
X-3889140Y-2090860D01*
X-3893570Y-2087480D01*
X-3897370Y-2082400D01*
X-3899900Y-2076470D01*
X-3901170Y-2069700D01*
Y-2062920D01*
X-3899900Y-2056150D01*
X-3897370Y-2050220D01*
X-3893570Y-2045140D01*
X-3889140Y-2041760D01*
X-3884070Y-2040910D01*
G01X-3889140Y-2054460D02*
X-3896740Y-2040910D01*
G01X-3922740Y-2062080D02*
X-3927170Y-2068000D01*
X-3930970Y-2071390D01*
X-3936040Y-2073080D01*
X-3940470Y-2071390D01*
X-3943640Y-2068000D01*
X-3946170Y-2062920D01*
X-3946800Y-2057000D01*
X-3946170Y-2051920D01*
X-3943640Y-2046840D01*
X-3939840Y-2042600D01*
X-3935400Y-2040910D01*
X-3930340Y-2042600D01*
X-3925900Y-2047680D01*
X-3923370Y-2055300D01*
X-3922740Y-2063770D01*
X-3924000Y-2074780D01*
X-3925900Y-2080700D01*
X-3929070Y-2086630D01*
X-3933500Y-2090860D01*
X-3937940Y-2091710D01*
X-3942370Y-2090020D01*
X-3945540Y-2085780D01*
G01X-4104690Y-1176570D02*
X-4100890Y-1179110D01*
X-4096460Y-1180800D01*
X-4091390D01*
X-4085690Y-1178260D01*
X-4081260Y-1174030D01*
X-4078090Y-1168950D01*
X-4075560Y-1160480D01*
X-4074930Y-1152860D01*
X-4076190Y-1145240D01*
X-4078090Y-1140160D01*
X-4081890Y-1135080D01*
X-4086330Y-1131690D01*
X-4090760Y-1130000D01*
X-4095190D01*
X-4099630Y-1131690D01*
X-4103430Y-1134230D01*
X-4106590Y-1137620D01*
G01X-4129430Y-1172330D02*
X-4133230Y-1177410D01*
X-4137660Y-1179950D01*
X-4142730Y-1180800D01*
X-4149060Y-1179110D01*
X-4153490Y-1174870D01*
X-4154760Y-1169790D01*
X-4154130Y-1164710D01*
X-4151590Y-1160480D01*
X-4138930Y-1152010D01*
X-4133230Y-1146090D01*
X-4129430Y-1137620D01*
X-4128160Y-1130000D01*
X-4154760D01*
G01X-4192160D02*
Y-1180800D01*
X-4184560Y-1170640D01*
G01Y-1130000D02*
X-4199760D01*
G01X-4003440Y-1076570D02*
X-3999640Y-1079110D01*
X-3995210Y-1080800D01*
X-3990140D01*
X-3984440Y-1078260D01*
X-3980010Y-1074030D01*
X-3976840Y-1068950D01*
X-3974310Y-1060480D01*
X-3973680Y-1052860D01*
X-3974940Y-1045240D01*
X-3976840Y-1040160D01*
X-3980640Y-1035080D01*
X-3985080Y-1031690D01*
X-3989510Y-1030000D01*
X-3993940D01*
X-3998380Y-1031690D01*
X-4002180Y-1034230D01*
X-4005340Y-1037620D01*
G01X-4028180Y-1072330D02*
X-4031980Y-1077410D01*
X-4036410Y-1079950D01*
X-4041480Y-1080800D01*
X-4047810Y-1079110D01*
X-4052240Y-1074870D01*
X-4053510Y-1069790D01*
X-4052880Y-1064710D01*
X-4050340Y-1060480D01*
X-4037680Y-1052010D01*
X-4031980Y-1046090D01*
X-4028180Y-1037620D01*
X-4026910Y-1030000D01*
X-4053510D01*
G01X-4090910Y-1080800D02*
X-4085840Y-1079110D01*
X-4082040Y-1074870D01*
X-4079510Y-1069790D01*
X-4077610Y-1063020D01*
X-4076980Y-1055400D01*
X-4077610Y-1047780D01*
X-4079510Y-1041010D01*
X-4082040Y-1035930D01*
X-4085840Y-1031690D01*
X-4090910Y-1030000D01*
X-4095980Y-1031690D01*
X-4099780Y-1035930D01*
X-4102310Y-1041010D01*
X-4104210Y-1047780D01*
X-4104840Y-1055400D01*
X-4104210Y-1063020D01*
X-4102310Y-1069790D01*
X-4099780Y-1074870D01*
X-4095980Y-1079110D01*
X-4090910Y-1080800D01*
G01X-3571940Y-1647820D02*
X-3569400Y-1644020D01*
X-3567710Y-1639590D01*
Y-1634520D01*
X-3570250Y-1628820D01*
X-3574480Y-1624390D01*
X-3579560Y-1621220D01*
X-3588030Y-1618690D01*
X-3595650Y-1618060D01*
X-3603270Y-1619320D01*
X-3608350Y-1621220D01*
X-3613430Y-1625020D01*
X-3616820Y-1629460D01*
X-3618510Y-1633890D01*
Y-1638320D01*
X-3616820Y-1642760D01*
X-3614280Y-1646560D01*
X-3610890Y-1649720D01*
G01X-3618510Y-1684590D02*
X-3567710D01*
X-3577870Y-1676990D01*
G01X-3618510D02*
Y-1692190D01*
G01X-3597340Y-1723260D02*
X-3591420Y-1727690D01*
X-3588030Y-1731490D01*
X-3586340Y-1736560D01*
X-3588030Y-1740990D01*
X-3591420Y-1744160D01*
X-3596500Y-1746690D01*
X-3602420Y-1747320D01*
X-3607500Y-1746690D01*
X-3612580Y-1744160D01*
X-3616820Y-1740360D01*
X-3618510Y-1735920D01*
X-3616820Y-1730860D01*
X-3611740Y-1726420D01*
X-3604120Y-1723890D01*
X-3595650Y-1723260D01*
X-3584640Y-1724520D01*
X-3578720Y-1726420D01*
X-3572790Y-1729590D01*
X-3568560Y-1734020D01*
X-3567710Y-1738460D01*
X-3569400Y-1742890D01*
X-3573640Y-1746060D01*
G01X-3649000Y-1334210D02*
X-3598200D01*
Y-1350050D01*
X-3600740Y-1355110D01*
X-3604130Y-1358280D01*
X-3610900Y-1359550D01*
X-3617670Y-1358280D01*
X-3621910Y-1354480D01*
X-3624450Y-1350050D01*
Y-1334210D01*
G01Y-1350050D02*
X-3649000Y-1359550D01*
G01Y-1396310D02*
X-3637990Y-1397580D01*
X-3628680Y-1399480D01*
X-3620210Y-1402010D01*
X-3610900Y-1405180D01*
X-3598200Y-1410250D01*
Y-1384910D01*
G01X-3486190Y-1068350D02*
X-3536990D01*
Y-1052510D01*
X-3534450Y-1047450D01*
X-3531060Y-1044280D01*
X-3524290Y-1043010D01*
X-3517520Y-1044280D01*
X-3513280Y-1048080D01*
X-3510740Y-1052510D01*
Y-1068350D01*
G01Y-1052510D02*
X-3486190Y-1043010D01*
G01Y-1004980D02*
X-3536990D01*
X-3526830Y-1012580D01*
G01X-3486190D02*
Y-997380D01*
G01Y-946680D02*
X-3536990D01*
X-3500580Y-970110D01*
Y-938450D01*
G01X-3491160Y-1058690D02*
Y-1109490D01*
X-3507000D01*
X-3512060Y-1106950D01*
X-3515230Y-1103560D01*
X-3516500Y-1096790D01*
X-3515230Y-1090020D01*
X-3511430Y-1085780D01*
X-3507000Y-1083240D01*
X-3491160D01*
G01X-3507000D02*
X-3516500Y-1058690D01*
G01X-3554530D02*
Y-1109490D01*
X-3546930Y-1099330D01*
G01Y-1058690D02*
X-3562130D01*
G01X-3591300Y-1068850D02*
X-3595100Y-1062920D01*
X-3600160Y-1059540D01*
X-3605860Y-1058690D01*
X-3610930Y-1059540D01*
X-3616000Y-1063770D01*
X-3619160Y-1068850D01*
X-3619800Y-1073930D01*
X-3618530Y-1079860D01*
X-3614100Y-1084090D01*
X-3609660Y-1085780D01*
X-3603960D01*
G01X-3609660D02*
X-3613460Y-1088320D01*
X-3616630Y-1092560D01*
X-3617900Y-1097640D01*
X-3616630Y-1102720D01*
X-3613460Y-1106950D01*
X-3607760Y-1109490D01*
X-3602060Y-1108640D01*
X-3596360Y-1105260D01*
G01X-3839800Y290200D02*
Y239400D01*
G01X-3854370Y290200D02*
X-3825230D01*
G01X-3789100Y239400D02*
Y290200D01*
X-3796700Y280040D01*
G01Y239400D02*
X-3781500D01*
G01X-3002070Y-1290800D02*
Y-1254390D01*
X-3004600Y-1246770D01*
X-3009670Y-1241690D01*
X-3016000Y-1240000D01*
X-3022330Y-1241690D01*
X-3027400Y-1246770D01*
X-3029930Y-1254390D01*
Y-1290800D01*
G01X-3054670Y-1282330D02*
X-3058470Y-1287410D01*
X-3062900Y-1289950D01*
X-3067970Y-1290800D01*
X-3074300Y-1289110D01*
X-3078730Y-1284870D01*
X-3080000Y-1279790D01*
X-3079370Y-1274710D01*
X-3076830Y-1270480D01*
X-3064170Y-1262010D01*
X-3058470Y-1256090D01*
X-3054670Y-1247620D01*
X-3053400Y-1240000D01*
X-3080000D01*
G01X-2999760Y-444570D02*
X-2995960Y-447110D01*
X-2991530Y-448800D01*
X-2986460D01*
X-2980760Y-446260D01*
X-2976330Y-442030D01*
X-2973160Y-436950D01*
X-2970630Y-428480D01*
X-2970000Y-420860D01*
X-2971260Y-413240D01*
X-2973160Y-408160D01*
X-2976960Y-403080D01*
X-2981400Y-399690D01*
X-2985830Y-398000D01*
X-2990260D01*
X-2994700Y-399690D01*
X-2998500Y-402230D01*
X-3001660Y-405620D01*
G01X-3036530Y-398000D02*
Y-448800D01*
X-3028930Y-438640D01*
G01Y-398000D02*
X-3044130D01*
G01X-3094830D02*
Y-448800D01*
X-3071400Y-412390D01*
X-3103060D01*
G01X-2991920Y-92750D02*
X-2941120D01*
Y-116810D01*
G01X-2965670Y-107950D02*
Y-92750D01*
G01X-2964830Y-160550D02*
X-2962290Y-163080D01*
X-2958050Y-164980D01*
X-2952130Y-166250D01*
X-2947050Y-164980D01*
X-2943660Y-162450D01*
X-2941120Y-158010D01*
Y-140910D01*
X-2991920D01*
Y-161810D01*
X-2988530Y-166250D01*
X-2983450Y-168780D01*
X-2977530Y-170050D01*
X-2971600Y-168780D01*
X-2966520Y-164980D01*
X-2964830Y-160550D01*
Y-140910D01*
G01X-2991920Y-206180D02*
X-2941120D01*
X-2951280Y-198580D01*
G01X-2991920D02*
Y-213780D01*
G01X-3191160Y-245020D02*
X-3194960Y-242480D01*
X-3199390Y-240790D01*
X-3204460D01*
X-3210160Y-243330D01*
X-3214590Y-247560D01*
X-3217760Y-252640D01*
X-3220290Y-261110D01*
X-3220920Y-268730D01*
X-3219660Y-276350D01*
X-3217760Y-281430D01*
X-3213960Y-286510D01*
X-3209520Y-289900D01*
X-3205090Y-291590D01*
X-3200660D01*
X-3196220Y-289900D01*
X-3192420Y-287360D01*
X-3189260Y-283970D01*
G01X-3154390Y-291590D02*
Y-240790D01*
X-3161990Y-250950D01*
G01Y-291590D02*
X-3146790D01*
G01X-3104960D02*
X-3103690Y-280580D01*
X-3101790Y-271270D01*
X-3099260Y-262800D01*
X-3096090Y-253490D01*
X-3091020Y-240790D01*
X-3116360D01*
G01X-2532000Y-2819380D02*
X-2534540Y-2823180D01*
X-2536230Y-2827610D01*
Y-2832680D01*
X-2533690Y-2838380D01*
X-2529460Y-2842810D01*
X-2524380Y-2845980D01*
X-2515910Y-2848510D01*
X-2508290Y-2849140D01*
X-2500670Y-2847880D01*
X-2495590Y-2845980D01*
X-2490510Y-2842180D01*
X-2487120Y-2837740D01*
X-2485430Y-2833310D01*
Y-2828880D01*
X-2487120Y-2824440D01*
X-2489660Y-2820640D01*
X-2493050Y-2817480D01*
G01X-2495590Y-2796540D02*
X-2489660Y-2792740D01*
X-2486280Y-2787680D01*
X-2485430Y-2781980D01*
X-2486280Y-2776910D01*
X-2490510Y-2771840D01*
X-2495590Y-2768680D01*
X-2500670Y-2768040D01*
X-2506600Y-2769310D01*
X-2510830Y-2773740D01*
X-2512520Y-2778180D01*
Y-2783880D01*
G01Y-2778180D02*
X-2515060Y-2774380D01*
X-2519300Y-2771210D01*
X-2524380Y-2769940D01*
X-2529460Y-2771210D01*
X-2533690Y-2774380D01*
X-2536230Y-2780080D01*
X-2535380Y-2785780D01*
X-2532000Y-2791480D01*
G01X-2506600Y-2743940D02*
X-2512520Y-2739510D01*
X-2515910Y-2735710D01*
X-2517600Y-2730640D01*
X-2515910Y-2726210D01*
X-2512520Y-2723040D01*
X-2507440Y-2720510D01*
X-2501520Y-2719880D01*
X-2496440Y-2720510D01*
X-2491360Y-2723040D01*
X-2487120Y-2726840D01*
X-2485430Y-2731280D01*
X-2487120Y-2736340D01*
X-2492200Y-2740780D01*
X-2499820Y-2743310D01*
X-2508290Y-2743940D01*
X-2519300Y-2742680D01*
X-2525220Y-2740780D01*
X-2531150Y-2737610D01*
X-2535380Y-2733180D01*
X-2536230Y-2728740D01*
X-2534540Y-2724310D01*
X-2530300Y-2721140D01*
G01X-2565880Y-3004820D02*
X-2563340Y-3001020D01*
X-2561650Y-2996590D01*
Y-2991520D01*
X-2564190Y-2985820D01*
X-2568420Y-2981390D01*
X-2573500Y-2978220D01*
X-2581970Y-2975690D01*
X-2589590Y-2975060D01*
X-2597210Y-2976320D01*
X-2602290Y-2978220D01*
X-2607370Y-2982020D01*
X-2610760Y-2986460D01*
X-2612450Y-2990890D01*
Y-2995320D01*
X-2610760Y-2999760D01*
X-2608220Y-3003560D01*
X-2604830Y-3006720D01*
G01X-2602290Y-3027660D02*
X-2608220Y-3031460D01*
X-2611600Y-3036520D01*
X-2612450Y-3042220D01*
X-2611600Y-3047290D01*
X-2607370Y-3052360D01*
X-2602290Y-3055520D01*
X-2597210Y-3056160D01*
X-2591280Y-3054890D01*
X-2587050Y-3050460D01*
X-2585360Y-3046020D01*
Y-3040320D01*
G01Y-3046020D02*
X-2582820Y-3049820D01*
X-2578580Y-3052990D01*
X-2573500Y-3054260D01*
X-2568420Y-3052990D01*
X-2564190Y-3049820D01*
X-2561650Y-3044120D01*
X-2562500Y-3038420D01*
X-2565880Y-3032720D01*
G01X-2612450Y-3091020D02*
X-2601440Y-3092290D01*
X-2592130Y-3094190D01*
X-2583660Y-3096720D01*
X-2574350Y-3099890D01*
X-2561650Y-3104960D01*
Y-3079620D01*
G01X-2521990Y-2229820D02*
X-2519450Y-2226020D01*
X-2517760Y-2221590D01*
Y-2216520D01*
X-2520300Y-2210820D01*
X-2524530Y-2206390D01*
X-2529610Y-2203220D01*
X-2538080Y-2200690D01*
X-2545700Y-2200060D01*
X-2553320Y-2201320D01*
X-2558400Y-2203220D01*
X-2563480Y-2207020D01*
X-2566870Y-2211460D01*
X-2568560Y-2215890D01*
Y-2220320D01*
X-2566870Y-2224760D01*
X-2564330Y-2228560D01*
X-2560940Y-2231720D01*
G01X-2558400Y-2252660D02*
X-2564330Y-2256460D01*
X-2567710Y-2261520D01*
X-2568560Y-2267220D01*
X-2567710Y-2272290D01*
X-2563480Y-2277360D01*
X-2558400Y-2280520D01*
X-2553320Y-2281160D01*
X-2547390Y-2279890D01*
X-2543160Y-2275460D01*
X-2541470Y-2271020D01*
Y-2265320D01*
G01Y-2271020D02*
X-2538930Y-2274820D01*
X-2534690Y-2277990D01*
X-2529610Y-2279260D01*
X-2524530Y-2277990D01*
X-2520300Y-2274820D01*
X-2517760Y-2269120D01*
X-2518610Y-2263420D01*
X-2521990Y-2257720D01*
G01X-2568560Y-2317290D02*
X-2517760D01*
X-2527920Y-2309690D01*
G01X-2568560D02*
Y-2324890D01*
G01X-2511220Y-1905820D02*
X-2508680Y-1902020D01*
X-2506990Y-1897590D01*
Y-1892520D01*
X-2509530Y-1886820D01*
X-2513760Y-1882390D01*
X-2518840Y-1879220D01*
X-2527310Y-1876690D01*
X-2534930Y-1876060D01*
X-2542550Y-1877320D01*
X-2547630Y-1879220D01*
X-2552710Y-1883020D01*
X-2556100Y-1887460D01*
X-2557790Y-1891890D01*
Y-1896320D01*
X-2556100Y-1900760D01*
X-2553560Y-1904560D01*
X-2550170Y-1907720D01*
G01X-2547630Y-1928660D02*
X-2553560Y-1932460D01*
X-2556940Y-1937520D01*
X-2557790Y-1943220D01*
X-2556940Y-1948290D01*
X-2552710Y-1953360D01*
X-2547630Y-1956520D01*
X-2542550Y-1957160D01*
X-2536620Y-1955890D01*
X-2532390Y-1951460D01*
X-2530700Y-1947020D01*
Y-1941320D01*
G01Y-1947020D02*
X-2528160Y-1950820D01*
X-2523920Y-1953990D01*
X-2518840Y-1955260D01*
X-2513760Y-1953990D01*
X-2509530Y-1950820D01*
X-2506990Y-1945120D01*
X-2507840Y-1939420D01*
X-2511220Y-1933720D01*
G01X-2547630Y-1979360D02*
X-2553560Y-1983160D01*
X-2556940Y-1988220D01*
X-2557790Y-1993920D01*
X-2556940Y-1998990D01*
X-2552710Y-2004060D01*
X-2547630Y-2007220D01*
X-2542550Y-2007860D01*
X-2536620Y-2006590D01*
X-2532390Y-2002160D01*
X-2530700Y-1997720D01*
Y-1992020D01*
G01Y-1997720D02*
X-2528160Y-2001520D01*
X-2523920Y-2004690D01*
X-2518840Y-2005960D01*
X-2513760Y-2004690D01*
X-2509530Y-2001520D01*
X-2506990Y-1995820D01*
X-2507840Y-1990120D01*
X-2511220Y-1984420D01*
G01X-2533490Y-615380D02*
X-2536030Y-619180D01*
X-2537720Y-623610D01*
Y-628680D01*
X-2535180Y-634380D01*
X-2530950Y-638810D01*
X-2525870Y-641980D01*
X-2517400Y-644510D01*
X-2509780Y-645140D01*
X-2502160Y-643880D01*
X-2497080Y-641980D01*
X-2492000Y-638180D01*
X-2488610Y-633740D01*
X-2486920Y-629310D01*
Y-624880D01*
X-2488610Y-620440D01*
X-2491150Y-616640D01*
X-2494540Y-613480D01*
G01X-2486920Y-571010D02*
X-2537720D01*
X-2501310Y-594440D01*
Y-562780D01*
G01X-2531550Y-206070D02*
X-2527750Y-208610D01*
X-2523320Y-210300D01*
X-2518250D01*
X-2512550Y-207760D01*
X-2508120Y-203530D01*
X-2504950Y-198450D01*
X-2502420Y-189980D01*
X-2501790Y-182360D01*
X-2503050Y-174740D01*
X-2504950Y-169660D01*
X-2508750Y-164580D01*
X-2513190Y-161190D01*
X-2517620Y-159500D01*
X-2522050D01*
X-2526490Y-161190D01*
X-2530290Y-163730D01*
X-2533450Y-167120D01*
G01X-2556290Y-201830D02*
X-2560090Y-206910D01*
X-2564520Y-209450D01*
X-2569590Y-210300D01*
X-2575920Y-208610D01*
X-2580350Y-204370D01*
X-2581620Y-199290D01*
X-2580990Y-194210D01*
X-2578450Y-189980D01*
X-2565790Y-181510D01*
X-2560090Y-175590D01*
X-2556290Y-167120D01*
X-2555020Y-159500D01*
X-2581620D01*
G01X-2619020D02*
X-2623450Y-160350D01*
X-2628520Y-162890D01*
X-2631690Y-167120D01*
X-2632950Y-173050D01*
X-2631690Y-178970D01*
X-2627890Y-184050D01*
X-2622190Y-186590D01*
X-2615850D01*
X-2612050Y-188290D01*
X-2608890Y-192520D01*
X-2607620Y-198450D01*
X-2609520Y-204370D01*
X-2613950Y-208610D01*
X-2619020Y-210300D01*
X-2624090Y-208610D01*
X-2628520Y-204370D01*
X-2630420Y-198450D01*
X-2629150Y-192520D01*
X-2625990Y-188290D01*
X-2622190Y-186590D01*
X-2615850D01*
X-2610150Y-184050D01*
X-2606350Y-178970D01*
X-2605090Y-173050D01*
X-2606350Y-167120D01*
X-2609520Y-162890D01*
X-2614590Y-160350D01*
X-2619020Y-159500D01*
G01X-2375970Y1052720D02*
Y1001920D01*
X-2391810D01*
X-2396870Y1004460D01*
X-2400040Y1007850D01*
X-2401310Y1014620D01*
X-2400040Y1021390D01*
X-2396240Y1025630D01*
X-2391810Y1028170D01*
X-2375970D01*
G01X-2391810D02*
X-2401310Y1052720D01*
G01X-2439340D02*
Y1001920D01*
X-2431740Y1012080D01*
G01Y1052720D02*
X-2446940D01*
G01X-2490040D02*
Y1001920D01*
X-2482440Y1012080D01*
G01Y1052720D02*
X-2497640D01*
G01X-2375970Y1193090D02*
Y1142290D01*
X-2391810D01*
X-2396870Y1144830D01*
X-2400040Y1148220D01*
X-2401310Y1154990D01*
X-2400040Y1161760D01*
X-2396240Y1166000D01*
X-2391810Y1168540D01*
X-2375970D01*
G01X-2391810D02*
X-2401310Y1193090D01*
G01X-2439340D02*
Y1142290D01*
X-2431740Y1152450D01*
G01Y1193090D02*
X-2446940D01*
G01X-2478010Y1150760D02*
X-2481810Y1145680D01*
X-2486240Y1143140D01*
X-2491310Y1142290D01*
X-2497640Y1143980D01*
X-2502070Y1148220D01*
X-2503340Y1153300D01*
X-2502710Y1158380D01*
X-2500170Y1162610D01*
X-2487510Y1171080D01*
X-2481810Y1177000D01*
X-2478010Y1185470D01*
X-2476740Y1193090D01*
X-2503340D01*
G01X-1691330Y-3765320D02*
X-1688790Y-3761520D01*
X-1687100Y-3757090D01*
Y-3752020D01*
X-1689640Y-3746320D01*
X-1693870Y-3741890D01*
X-1698950Y-3738720D01*
X-1707420Y-3736190D01*
X-1715040Y-3735560D01*
X-1722660Y-3736820D01*
X-1727740Y-3738720D01*
X-1732820Y-3742520D01*
X-1736210Y-3746960D01*
X-1737900Y-3751390D01*
Y-3755820D01*
X-1736210Y-3760260D01*
X-1733670Y-3764060D01*
X-1730280Y-3767220D01*
G01X-1727740Y-3788160D02*
X-1733670Y-3791960D01*
X-1737050Y-3797020D01*
X-1737900Y-3802720D01*
X-1737050Y-3807790D01*
X-1732820Y-3812860D01*
X-1727740Y-3816020D01*
X-1722660Y-3816660D01*
X-1716730Y-3815390D01*
X-1712500Y-3810960D01*
X-1710810Y-3806520D01*
Y-3800820D01*
G01Y-3806520D02*
X-1708270Y-3810320D01*
X-1704030Y-3813490D01*
X-1698950Y-3814760D01*
X-1693870Y-3813490D01*
X-1689640Y-3810320D01*
X-1687100Y-3804620D01*
X-1687950Y-3798920D01*
X-1691330Y-3793220D01*
G01X-1687100Y-3852790D02*
X-1688790Y-3847720D01*
X-1693030Y-3843920D01*
X-1698110Y-3841390D01*
X-1704880Y-3839490D01*
X-1712500Y-3838860D01*
X-1720120Y-3839490D01*
X-1726890Y-3841390D01*
X-1731970Y-3843920D01*
X-1736210Y-3847720D01*
X-1737900Y-3852790D01*
X-1736210Y-3857860D01*
X-1731970Y-3861660D01*
X-1726890Y-3864190D01*
X-1720120Y-3866090D01*
X-1712500Y-3866720D01*
X-1704880Y-3866090D01*
X-1698110Y-3864190D01*
X-1693030Y-3861660D01*
X-1688790Y-3857860D01*
X-1687100Y-3852790D01*
G01X-1852760Y-3804000D02*
X-1848960Y-3806540D01*
X-1844530Y-3808230D01*
X-1839460D01*
X-1833760Y-3805690D01*
X-1829330Y-3801460D01*
X-1826160Y-3796380D01*
X-1823630Y-3787910D01*
X-1823000Y-3780290D01*
X-1824260Y-3772670D01*
X-1826160Y-3767590D01*
X-1829960Y-3762510D01*
X-1834400Y-3759120D01*
X-1838830Y-3757430D01*
X-1843260D01*
X-1847700Y-3759120D01*
X-1851500Y-3761660D01*
X-1854660Y-3765050D01*
G01X-1877500Y-3799760D02*
X-1881300Y-3804840D01*
X-1885730Y-3807380D01*
X-1890800Y-3808230D01*
X-1897130Y-3806540D01*
X-1901560Y-3802300D01*
X-1902830Y-3797220D01*
X-1902200Y-3792140D01*
X-1899660Y-3787910D01*
X-1887000Y-3779440D01*
X-1881300Y-3773520D01*
X-1877500Y-3765050D01*
X-1876230Y-3757430D01*
X-1902830D01*
G01X-1926300Y-3765050D02*
X-1930100Y-3760820D01*
X-1934530Y-3758280D01*
X-1940230Y-3757430D01*
X-1945930Y-3759120D01*
X-1950360Y-3762510D01*
X-1953530Y-3768440D01*
X-1954160Y-3775210D01*
X-1952900Y-3781980D01*
X-1949730Y-3786220D01*
X-1945300Y-3789600D01*
X-1940860Y-3790450D01*
X-1936430Y-3789600D01*
X-1930730Y-3786220D01*
X-1932630Y-3808230D01*
X-1949730D01*
G01X-1701150Y-1843250D02*
X-1697350Y-1845790D01*
X-1692920Y-1847480D01*
X-1687850D01*
X-1682150Y-1844940D01*
X-1677720Y-1840710D01*
X-1674550Y-1835630D01*
X-1672020Y-1827160D01*
X-1671390Y-1819540D01*
X-1672650Y-1811920D01*
X-1674550Y-1806840D01*
X-1678350Y-1801760D01*
X-1682790Y-1798370D01*
X-1687220Y-1796680D01*
X-1691650D01*
X-1696090Y-1798370D01*
X-1699890Y-1800910D01*
X-1703050Y-1804300D01*
G01X-1725890Y-1839010D02*
X-1729690Y-1844090D01*
X-1734120Y-1846630D01*
X-1739190Y-1847480D01*
X-1745520Y-1845790D01*
X-1749950Y-1841550D01*
X-1751220Y-1836470D01*
X-1750590Y-1831390D01*
X-1748050Y-1827160D01*
X-1735390Y-1818690D01*
X-1729690Y-1812770D01*
X-1725890Y-1804300D01*
X-1724620Y-1796680D01*
X-1751220D01*
G01X-1787350D02*
X-1788620Y-1807690D01*
X-1790520Y-1817000D01*
X-1793050Y-1825470D01*
X-1796220Y-1834780D01*
X-1801290Y-1847480D01*
X-1775950D01*
G01X-2177640Y-1424820D02*
X-2175100Y-1421020D01*
X-2173410Y-1416590D01*
Y-1411520D01*
X-2175950Y-1405820D01*
X-2180180Y-1401390D01*
X-2185260Y-1398220D01*
X-2193730Y-1395690D01*
X-2201350Y-1395060D01*
X-2208970Y-1396320D01*
X-2214050Y-1398220D01*
X-2219130Y-1402020D01*
X-2222520Y-1406460D01*
X-2224210Y-1410890D01*
Y-1415320D01*
X-2222520Y-1419760D01*
X-2219980Y-1423560D01*
X-2216590Y-1426720D01*
G01Y-1447660D02*
X-2220820Y-1451460D01*
X-2223360Y-1455890D01*
X-2224210Y-1461590D01*
X-2222520Y-1467290D01*
X-2219130Y-1471720D01*
X-2213200Y-1474890D01*
X-2206430Y-1475520D01*
X-2199660Y-1474260D01*
X-2195420Y-1471090D01*
X-2192040Y-1466660D01*
X-2191190Y-1462220D01*
X-2192040Y-1457790D01*
X-2195420Y-1452090D01*
X-2173410Y-1453990D01*
Y-1471090D01*
G01X-2204770Y475620D02*
X-2208570Y478160D01*
X-2213000Y479850D01*
X-2218070D01*
X-2223770Y477310D01*
X-2228200Y473080D01*
X-2231370Y468000D01*
X-2233900Y459530D01*
X-2234530Y451910D01*
X-2233270Y444290D01*
X-2231370Y439210D01*
X-2227570Y434130D01*
X-2223130Y430740D01*
X-2218700Y429050D01*
X-2214270D01*
X-2209830Y430740D01*
X-2206030Y433280D01*
X-2202870Y436670D01*
G01X-2168000Y429050D02*
X-2163570Y429900D01*
X-2158500Y432440D01*
X-2155330Y436670D01*
X-2154070Y442600D01*
X-2155330Y448520D01*
X-2159130Y453600D01*
X-2164830Y456140D01*
X-2171170D01*
X-2174970Y457840D01*
X-2178130Y462070D01*
X-2179400Y468000D01*
X-2177500Y473920D01*
X-2173070Y478160D01*
X-2168000Y479850D01*
X-2162930Y478160D01*
X-2158500Y473920D01*
X-2156600Y468000D01*
X-2157870Y462070D01*
X-2161030Y457840D01*
X-2164830Y456140D01*
X-2171170D01*
X-2176870Y453600D01*
X-2180670Y448520D01*
X-2181930Y442600D01*
X-2180670Y436670D01*
X-2177500Y432440D01*
X-2172430Y429900D01*
X-2168000Y429050D01*
G01X-1491290Y-3800820D02*
X-1488750Y-3797020D01*
X-1487060Y-3792590D01*
Y-3787520D01*
X-1489600Y-3781820D01*
X-1493830Y-3777390D01*
X-1498910Y-3774220D01*
X-1507380Y-3771690D01*
X-1515000Y-3771060D01*
X-1522620Y-3772320D01*
X-1527700Y-3774220D01*
X-1532780Y-3778020D01*
X-1536170Y-3782460D01*
X-1537860Y-3786890D01*
Y-3791320D01*
X-1536170Y-3795760D01*
X-1533630Y-3799560D01*
X-1530240Y-3802720D01*
G01X-1495530Y-3825560D02*
X-1490450Y-3829360D01*
X-1487910Y-3833790D01*
X-1487060Y-3838860D01*
X-1488750Y-3845190D01*
X-1492990Y-3849620D01*
X-1498070Y-3850890D01*
X-1503150Y-3850260D01*
X-1507380Y-3847720D01*
X-1515850Y-3835060D01*
X-1521770Y-3829360D01*
X-1530240Y-3825560D01*
X-1537860Y-3824290D01*
Y-3850890D01*
G01X-1495530Y-3876260D02*
X-1490450Y-3880060D01*
X-1487910Y-3884490D01*
X-1487060Y-3889560D01*
X-1488750Y-3895890D01*
X-1492990Y-3900320D01*
X-1498070Y-3901590D01*
X-1503150Y-3900960D01*
X-1507380Y-3898420D01*
X-1515850Y-3885760D01*
X-1521770Y-3880060D01*
X-1530240Y-3876260D01*
X-1537860Y-3874990D01*
Y-3901590D01*
G01X-1232170Y-3851630D02*
X-1235970Y-3849090D01*
X-1240400Y-3847400D01*
X-1245470D01*
X-1251170Y-3849940D01*
X-1255600Y-3854170D01*
X-1258770Y-3859250D01*
X-1261300Y-3867720D01*
X-1261930Y-3875340D01*
X-1260670Y-3882960D01*
X-1258770Y-3888040D01*
X-1254970Y-3893120D01*
X-1250530Y-3896510D01*
X-1246100Y-3898200D01*
X-1241670D01*
X-1237230Y-3896510D01*
X-1233430Y-3893970D01*
X-1230270Y-3890580D01*
G01X-1207430Y-3855870D02*
X-1203630Y-3850790D01*
X-1199200Y-3848250D01*
X-1194130Y-3847400D01*
X-1187800Y-3849090D01*
X-1183370Y-3853330D01*
X-1182100Y-3858410D01*
X-1182730Y-3863490D01*
X-1185270Y-3867720D01*
X-1197930Y-3876190D01*
X-1203630Y-3882110D01*
X-1207430Y-3890580D01*
X-1208700Y-3898200D01*
X-1182100D01*
G01X-1158630Y-3888040D02*
X-1154830Y-3893970D01*
X-1149770Y-3897350D01*
X-1144070Y-3898200D01*
X-1139000Y-3897350D01*
X-1133930Y-3893120D01*
X-1130770Y-3888040D01*
X-1130130Y-3882960D01*
X-1131400Y-3877030D01*
X-1135830Y-3872800D01*
X-1140270Y-3871110D01*
X-1145970D01*
G01X-1140270D02*
X-1136470Y-3868570D01*
X-1133300Y-3864330D01*
X-1132030Y-3859250D01*
X-1133300Y-3854170D01*
X-1136470Y-3849940D01*
X-1142170Y-3847400D01*
X-1147870Y-3848250D01*
X-1153570Y-3851630D01*
G01X-1449560Y-1806880D02*
X-1452100Y-1810680D01*
X-1453790Y-1815110D01*
Y-1820180D01*
X-1451250Y-1825880D01*
X-1447020Y-1830310D01*
X-1441940Y-1833480D01*
X-1433470Y-1836010D01*
X-1425850Y-1836640D01*
X-1418230Y-1835380D01*
X-1413150Y-1833480D01*
X-1408070Y-1829680D01*
X-1404680Y-1825240D01*
X-1402990Y-1820810D01*
Y-1816380D01*
X-1404680Y-1811940D01*
X-1407220Y-1808140D01*
X-1410610Y-1804980D01*
G01X-1413150Y-1784040D02*
X-1407220Y-1780240D01*
X-1403840Y-1775180D01*
X-1402990Y-1769480D01*
X-1403840Y-1764410D01*
X-1408070Y-1759340D01*
X-1413150Y-1756180D01*
X-1418230Y-1755540D01*
X-1424160Y-1756810D01*
X-1428390Y-1761240D01*
X-1430080Y-1765680D01*
Y-1771380D01*
G01Y-1765680D02*
X-1432620Y-1761880D01*
X-1436860Y-1758710D01*
X-1441940Y-1757440D01*
X-1447020Y-1758710D01*
X-1451250Y-1761880D01*
X-1453790Y-1767580D01*
X-1452940Y-1773280D01*
X-1449560Y-1778980D01*
G01X-1445320Y-1731440D02*
X-1450400Y-1727640D01*
X-1452940Y-1723210D01*
X-1453790Y-1718140D01*
X-1452100Y-1711810D01*
X-1447860Y-1707380D01*
X-1442780Y-1706110D01*
X-1437700Y-1706740D01*
X-1433470Y-1709280D01*
X-1425000Y-1721940D01*
X-1419080Y-1727640D01*
X-1410610Y-1731440D01*
X-1402990Y-1732710D01*
Y-1706110D01*
G01X-1553960Y-1469820D02*
X-1550160Y-1472360D01*
X-1545730Y-1474050D01*
X-1540660D01*
X-1534960Y-1471510D01*
X-1530530Y-1467280D01*
X-1527360Y-1462200D01*
X-1524830Y-1453730D01*
X-1524200Y-1446110D01*
X-1525460Y-1438490D01*
X-1527360Y-1433410D01*
X-1531160Y-1428330D01*
X-1535600Y-1424940D01*
X-1540030Y-1423250D01*
X-1544460D01*
X-1548900Y-1424940D01*
X-1552700Y-1427480D01*
X-1555860Y-1430870D01*
G01X-1578700Y-1444420D02*
X-1583130Y-1450340D01*
X-1586930Y-1453730D01*
X-1592000Y-1455420D01*
X-1596430Y-1453730D01*
X-1599600Y-1450340D01*
X-1602130Y-1445260D01*
X-1602760Y-1439340D01*
X-1602130Y-1434260D01*
X-1599600Y-1429180D01*
X-1595800Y-1424940D01*
X-1591360Y-1423250D01*
X-1586300Y-1424940D01*
X-1581860Y-1430020D01*
X-1579330Y-1437640D01*
X-1578700Y-1446110D01*
X-1579960Y-1457120D01*
X-1581860Y-1463040D01*
X-1585030Y-1468970D01*
X-1589460Y-1473200D01*
X-1593900Y-1474050D01*
X-1598330Y-1472360D01*
X-1601500Y-1468120D01*
G01X-1483210Y511550D02*
X-1487010Y514090D01*
X-1491440Y515780D01*
X-1496510D01*
X-1502210Y513240D01*
X-1506640Y509010D01*
X-1509810Y503930D01*
X-1512340Y495460D01*
X-1512970Y487840D01*
X-1511710Y480220D01*
X-1509810Y475140D01*
X-1506010Y470060D01*
X-1501570Y466670D01*
X-1497140Y464980D01*
X-1492710D01*
X-1488270Y466670D01*
X-1484470Y469210D01*
X-1481310Y472600D01*
G01X-1460370D02*
X-1456570Y468370D01*
X-1452140Y465830D01*
X-1446440Y464980D01*
X-1440740Y466670D01*
X-1436310Y470060D01*
X-1433140Y475990D01*
X-1432510Y482760D01*
X-1433770Y489530D01*
X-1436940Y493770D01*
X-1441370Y497150D01*
X-1445810Y498000D01*
X-1450240Y497150D01*
X-1455940Y493770D01*
X-1454040Y515780D01*
X-1436940D01*
G01X-1395740D02*
X-1400810Y514090D01*
X-1404610Y509850D01*
X-1407140Y504770D01*
X-1409040Y498000D01*
X-1409670Y490380D01*
X-1409040Y482760D01*
X-1407140Y475990D01*
X-1404610Y470910D01*
X-1400810Y466670D01*
X-1395740Y464980D01*
X-1390670Y466670D01*
X-1386870Y470910D01*
X-1384340Y475990D01*
X-1382440Y482760D01*
X-1381810Y490380D01*
X-1382440Y498000D01*
X-1384340Y504770D01*
X-1386870Y509850D01*
X-1390670Y514090D01*
X-1395740Y515780D01*
G01X-576180Y-2095810D02*
X-579980Y-2093270D01*
X-584410Y-2091580D01*
X-589480D01*
X-595180Y-2094120D01*
X-599610Y-2098350D01*
X-602780Y-2103430D01*
X-605310Y-2111900D01*
X-605940Y-2119520D01*
X-604680Y-2127140D01*
X-602780Y-2132220D01*
X-598980Y-2137300D01*
X-594540Y-2140690D01*
X-590110Y-2142380D01*
X-585680D01*
X-581240Y-2140690D01*
X-577440Y-2138150D01*
X-574280Y-2134760D01*
G01X-553340Y-2132220D02*
X-549540Y-2138150D01*
X-544480Y-2141530D01*
X-538780Y-2142380D01*
X-533710Y-2141530D01*
X-528640Y-2137300D01*
X-525480Y-2132220D01*
X-524840Y-2127140D01*
X-526110Y-2121210D01*
X-530540Y-2116980D01*
X-534980Y-2115290D01*
X-540680D01*
G01X-534980D02*
X-531180Y-2112750D01*
X-528010Y-2108510D01*
X-526740Y-2103430D01*
X-528010Y-2098350D01*
X-531180Y-2094120D01*
X-536880Y-2091580D01*
X-542580Y-2092430D01*
X-548280Y-2095810D01*
G01X-481110Y-2142380D02*
Y-2091580D01*
X-504540Y-2127990D01*
X-472880D01*
G01X-593150Y-1258160D02*
X-589350Y-1260700D01*
X-584920Y-1262390D01*
X-579850D01*
X-574150Y-1259850D01*
X-569720Y-1255620D01*
X-566550Y-1250540D01*
X-564020Y-1242070D01*
X-563390Y-1234450D01*
X-564650Y-1226830D01*
X-566550Y-1221750D01*
X-570350Y-1216670D01*
X-574790Y-1213280D01*
X-579220Y-1211590D01*
X-583650D01*
X-588090Y-1213280D01*
X-591890Y-1215820D01*
X-595050Y-1219210D01*
G01X-637520Y-1211590D02*
Y-1262390D01*
X-614090Y-1225980D01*
X-645750D01*
G01X-680620Y-1211590D02*
X-685050Y-1212440D01*
X-690120Y-1214980D01*
X-693290Y-1219210D01*
X-694550Y-1225140D01*
X-693290Y-1231060D01*
X-689490Y-1236140D01*
X-683790Y-1238680D01*
X-677450D01*
X-673650Y-1240380D01*
X-670490Y-1244610D01*
X-669220Y-1250540D01*
X-671120Y-1256460D01*
X-675550Y-1260700D01*
X-680620Y-1262390D01*
X-685690Y-1260700D01*
X-690120Y-1256460D01*
X-692020Y-1250540D01*
X-690750Y-1244610D01*
X-687590Y-1240380D01*
X-683790Y-1238680D01*
X-677450D01*
X-671750Y-1236140D01*
X-667950Y-1231060D01*
X-666690Y-1225140D01*
X-667950Y-1219210D01*
X-671120Y-1214980D01*
X-676190Y-1212440D01*
X-680620Y-1211590D01*
G01X-503950Y-3441000D02*
X-501410Y-3437200D01*
X-499720Y-3432770D01*
Y-3427700D01*
X-502260Y-3422000D01*
X-506490Y-3417570D01*
X-511570Y-3414400D01*
X-520040Y-3411870D01*
X-527660Y-3411240D01*
X-535280Y-3412500D01*
X-540360Y-3414400D01*
X-545440Y-3418200D01*
X-548830Y-3422640D01*
X-550520Y-3427070D01*
Y-3431500D01*
X-548830Y-3435940D01*
X-546290Y-3439740D01*
X-542900Y-3442900D01*
G01X-508190Y-3465740D02*
X-503110Y-3469540D01*
X-500570Y-3473970D01*
X-499720Y-3479040D01*
X-501410Y-3485370D01*
X-505650Y-3489800D01*
X-510730Y-3491070D01*
X-515810Y-3490440D01*
X-520040Y-3487900D01*
X-528510Y-3475240D01*
X-534430Y-3469540D01*
X-542900Y-3465740D01*
X-550520Y-3464470D01*
Y-3491070D01*
G01X-529350Y-3516440D02*
X-523430Y-3520870D01*
X-520040Y-3524670D01*
X-518350Y-3529740D01*
X-520040Y-3534170D01*
X-523430Y-3537340D01*
X-528510Y-3539870D01*
X-534430Y-3540500D01*
X-539510Y-3539870D01*
X-544590Y-3537340D01*
X-548830Y-3533540D01*
X-550520Y-3529100D01*
X-548830Y-3524040D01*
X-543750Y-3519600D01*
X-536130Y-3517070D01*
X-527660Y-3516440D01*
X-516650Y-3517700D01*
X-510730Y-3519600D01*
X-504800Y-3522770D01*
X-500570Y-3527200D01*
X-499720Y-3531640D01*
X-501410Y-3536070D01*
X-505650Y-3539240D01*
G01X-73290Y-3473370D02*
Y-3422570D01*
X-57450D01*
X-52390Y-3425110D01*
X-49220Y-3428500D01*
X-47950Y-3435270D01*
X-49220Y-3442040D01*
X-53020Y-3446280D01*
X-57450Y-3448820D01*
X-73290D01*
G01X-57450D02*
X-47950Y-3473370D01*
G01X-2320D02*
Y-3422570D01*
X-25750Y-3458980D01*
X5910D01*
G01X40780Y-3473370D02*
Y-3422570D01*
X33180Y-3432730D01*
G01Y-3473370D02*
X48380D01*
G01X-452700Y-3105820D02*
X-450160Y-3102020D01*
X-448470Y-3097590D01*
Y-3092520D01*
X-451010Y-3086820D01*
X-455240Y-3082390D01*
X-460320Y-3079220D01*
X-468790Y-3076690D01*
X-476410Y-3076060D01*
X-484030Y-3077320D01*
X-489110Y-3079220D01*
X-494190Y-3083020D01*
X-497580Y-3087460D01*
X-499270Y-3091890D01*
Y-3096320D01*
X-497580Y-3100760D01*
X-495040Y-3104560D01*
X-491650Y-3107720D01*
G01X-456940Y-3130560D02*
X-451860Y-3134360D01*
X-449320Y-3138790D01*
X-448470Y-3143860D01*
X-450160Y-3150190D01*
X-454400Y-3154620D01*
X-459480Y-3155890D01*
X-464560Y-3155260D01*
X-468790Y-3152720D01*
X-477260Y-3140060D01*
X-483180Y-3134360D01*
X-491650Y-3130560D01*
X-499270Y-3129290D01*
Y-3155890D01*
G01X-493340Y-3182520D02*
X-497580Y-3186960D01*
X-499270Y-3192020D01*
X-497580Y-3197090D01*
X-492500Y-3201520D01*
X-484880Y-3204690D01*
X-477260Y-3205960D01*
X-467940D01*
X-460320Y-3204690D01*
X-453550Y-3201520D01*
X-450160Y-3197720D01*
X-448470Y-3193290D01*
X-450160Y-3188220D01*
X-453550Y-3184420D01*
X-458630Y-3181890D01*
X-465400Y-3180620D01*
X-471330Y-3181890D01*
X-477260Y-3185060D01*
X-480640Y-3188860D01*
X-481490Y-3193290D01*
X-479800Y-3198360D01*
X-475560Y-3202160D01*
X-467940Y-3205960D01*
G01X-370020Y-2969060D02*
X-372560Y-2972860D01*
X-374250Y-2977290D01*
Y-2982360D01*
X-371710Y-2988060D01*
X-367480Y-2992490D01*
X-362400Y-2995660D01*
X-353930Y-2998190D01*
X-346310Y-2998820D01*
X-338690Y-2997560D01*
X-333610Y-2995660D01*
X-328530Y-2991860D01*
X-325140Y-2987420D01*
X-323450Y-2982990D01*
Y-2978560D01*
X-325140Y-2974120D01*
X-327680Y-2970320D01*
X-331070Y-2967160D01*
G01X-365780Y-2944320D02*
X-370860Y-2940520D01*
X-373400Y-2936090D01*
X-374250Y-2931020D01*
X-372560Y-2924690D01*
X-368320Y-2920260D01*
X-363240Y-2918990D01*
X-358160Y-2919620D01*
X-353930Y-2922160D01*
X-345460Y-2934820D01*
X-339540Y-2940520D01*
X-331070Y-2944320D01*
X-323450Y-2945590D01*
Y-2918990D01*
G01Y-2873990D02*
X-374250D01*
X-337840Y-2897420D01*
Y-2865760D01*
G01X-17000Y-3119110D02*
X-16150Y-3114040D01*
X-12770Y-3109610D01*
X-7690Y-3105810D01*
X-1760Y-3103280D01*
X5010Y-3102010D01*
X11790D01*
X18560Y-3103280D01*
X24490Y-3105810D01*
X29570Y-3109610D01*
X32950Y-3114040D01*
X33800Y-3119110D01*
X32950Y-3124180D01*
X29570Y-3128610D01*
X24490Y-3132410D01*
X18560Y-3134940D01*
X11790Y-3136210D01*
X5010D01*
X-1760Y-3134940D01*
X-7690Y-3132410D01*
X-12770Y-3128610D01*
X-16150Y-3124180D01*
X-17000Y-3119110D01*
G01X-3450Y-3124180D02*
X-17000Y-3131780D01*
G01Y-3169810D02*
X33800D01*
X23640Y-3162210D01*
G01X-17000D02*
Y-3177410D01*
G01X-301100Y-1466020D02*
X-304900Y-1463480D01*
X-309330Y-1461790D01*
X-314400D01*
X-320100Y-1464330D01*
X-324530Y-1468560D01*
X-327700Y-1473640D01*
X-330230Y-1482110D01*
X-330860Y-1489730D01*
X-329600Y-1497350D01*
X-327700Y-1502430D01*
X-323900Y-1507510D01*
X-319460Y-1510900D01*
X-315030Y-1512590D01*
X-310600D01*
X-306160Y-1510900D01*
X-302360Y-1508360D01*
X-299200Y-1504970D01*
G01X-264330Y-1512590D02*
Y-1461790D01*
X-271930Y-1471950D01*
G01Y-1512590D02*
X-256730D01*
G01X-444970Y-252780D02*
X-447510Y-256580D01*
X-449200Y-261010D01*
Y-266080D01*
X-446660Y-271780D01*
X-442430Y-276210D01*
X-437350Y-279380D01*
X-428880Y-281910D01*
X-421260Y-282540D01*
X-413640Y-281280D01*
X-408560Y-279380D01*
X-403480Y-275580D01*
X-400090Y-271140D01*
X-398400Y-266710D01*
Y-262280D01*
X-400090Y-257840D01*
X-402630Y-254040D01*
X-406020Y-250880D01*
G01X-398400Y-217280D02*
X-409410Y-216010D01*
X-418720Y-214110D01*
X-427190Y-211580D01*
X-436500Y-208410D01*
X-449200Y-203340D01*
Y-228680D01*
G01X-266400Y-495320D02*
X-263860Y-491520D01*
X-262170Y-487090D01*
Y-482020D01*
X-264710Y-476320D01*
X-268940Y-471890D01*
X-274020Y-468720D01*
X-282490Y-466190D01*
X-290110Y-465560D01*
X-297730Y-466820D01*
X-302810Y-468720D01*
X-307890Y-472520D01*
X-311280Y-476960D01*
X-312970Y-481390D01*
Y-485820D01*
X-311280Y-490260D01*
X-308740Y-494060D01*
X-305350Y-497220D01*
G01X-307040Y-521320D02*
X-311280Y-525760D01*
X-312970Y-530820D01*
X-311280Y-535890D01*
X-306200Y-540320D01*
X-298580Y-543490D01*
X-290960Y-544760D01*
X-281640D01*
X-274020Y-543490D01*
X-267250Y-540320D01*
X-263860Y-536520D01*
X-262170Y-532090D01*
X-263860Y-527020D01*
X-267250Y-523220D01*
X-272330Y-520690D01*
X-279100Y-519420D01*
X-285030Y-520690D01*
X-290960Y-523860D01*
X-294340Y-527660D01*
X-295190Y-532090D01*
X-293500Y-537160D01*
X-289260Y-540960D01*
X-281640Y-544760D01*
G01X392190Y-3473870D02*
Y-3423070D01*
X408030D01*
X413090Y-3425610D01*
X416260Y-3429000D01*
X417530Y-3435770D01*
X416260Y-3442540D01*
X412460Y-3446780D01*
X408030Y-3449320D01*
X392190D01*
G01X408030D02*
X417530Y-3473870D01*
G01X441630Y-3463710D02*
X445430Y-3469640D01*
X450490Y-3473020D01*
X456190Y-3473870D01*
X461260Y-3473020D01*
X466330Y-3468790D01*
X469490Y-3463710D01*
X470130Y-3458630D01*
X468860Y-3452700D01*
X464430Y-3448470D01*
X459990Y-3446780D01*
X454290D01*
G01X459990D02*
X463790Y-3444240D01*
X466960Y-3440000D01*
X468230Y-3434920D01*
X466960Y-3429840D01*
X463790Y-3425610D01*
X458090Y-3423070D01*
X452390Y-3423920D01*
X446690Y-3427300D01*
G01X495490Y-3467940D02*
X499930Y-3472180D01*
X504990Y-3473870D01*
X510060Y-3472180D01*
X514490Y-3467100D01*
X517660Y-3459480D01*
X518930Y-3451860D01*
Y-3442540D01*
X517660Y-3434920D01*
X514490Y-3428150D01*
X510690Y-3424760D01*
X506260Y-3423070D01*
X501190Y-3424760D01*
X497390Y-3428150D01*
X494860Y-3433230D01*
X493590Y-3440000D01*
X494860Y-3445930D01*
X498030Y-3451860D01*
X501830Y-3455240D01*
X506260Y-3456090D01*
X511330Y-3454400D01*
X515130Y-3450160D01*
X518930Y-3442540D01*
G01X65670Y-2975600D02*
Y-2924800D01*
X81510D01*
X86570Y-2927340D01*
X89740Y-2930730D01*
X91010Y-2937500D01*
X89740Y-2944270D01*
X85940Y-2948510D01*
X81510Y-2951050D01*
X65670D01*
G01X81510D02*
X91010Y-2975600D01*
G01X129040D02*
Y-2924800D01*
X121440Y-2934960D01*
G01Y-2975600D02*
X136640D01*
G01X452450Y-3124610D02*
X453300Y-3119540D01*
X456680Y-3115110D01*
X461760Y-3111310D01*
X467690Y-3108780D01*
X474460Y-3107510D01*
X481240D01*
X488010Y-3108780D01*
X493940Y-3111310D01*
X499020Y-3115110D01*
X502400Y-3119540D01*
X503250Y-3124610D01*
X502400Y-3129680D01*
X499020Y-3134110D01*
X493940Y-3137910D01*
X488010Y-3140440D01*
X481240Y-3141710D01*
X474460D01*
X467690Y-3140440D01*
X461760Y-3137910D01*
X456680Y-3134110D01*
X453300Y-3129680D01*
X452450Y-3124610D01*
G01X466000Y-3129680D02*
X452450Y-3137280D01*
G01X462610Y-3161380D02*
X456680Y-3165180D01*
X453300Y-3170240D01*
X452450Y-3175940D01*
X453300Y-3181010D01*
X457530Y-3186080D01*
X462610Y-3189240D01*
X467690Y-3189880D01*
X473620Y-3188610D01*
X477850Y-3184180D01*
X479540Y-3179740D01*
Y-3174040D01*
G01Y-3179740D02*
X482080Y-3183540D01*
X486320Y-3186710D01*
X491400Y-3187980D01*
X496480Y-3186710D01*
X500710Y-3183540D01*
X503250Y-3177840D01*
X502400Y-3172140D01*
X499020Y-3166440D01*
G01X165410Y-1483160D02*
X169210Y-1485700D01*
X173640Y-1487390D01*
X178710D01*
X184410Y-1484850D01*
X188840Y-1480620D01*
X192010Y-1475540D01*
X194540Y-1467070D01*
X195170Y-1459450D01*
X193910Y-1451830D01*
X192010Y-1446750D01*
X188210Y-1441670D01*
X183770Y-1438280D01*
X179340Y-1436590D01*
X174910D01*
X170470Y-1438280D01*
X166670Y-1440820D01*
X163510Y-1444210D01*
G01X140670Y-1478920D02*
X136870Y-1484000D01*
X132440Y-1486540D01*
X127370Y-1487390D01*
X121040Y-1485700D01*
X116610Y-1481460D01*
X115340Y-1476380D01*
X115970Y-1471300D01*
X118510Y-1467070D01*
X131170Y-1458600D01*
X136870Y-1452680D01*
X140670Y-1444210D01*
X141940Y-1436590D01*
X115340D01*
G01X269060Y-278690D02*
Y-227890D01*
X243720D01*
G01X205690D02*
Y-278690D01*
X213290Y-268530D01*
G01Y-227890D02*
X198090D01*
G01X894950Y-3473370D02*
Y-3422570D01*
X910790D01*
X915850Y-3425110D01*
X919020Y-3428500D01*
X920290Y-3435270D01*
X919020Y-3442040D01*
X915220Y-3446280D01*
X910790Y-3448820D01*
X894950D01*
G01X910790D02*
X920290Y-3473370D01*
G01X944390Y-3463210D02*
X948190Y-3469140D01*
X953250Y-3472520D01*
X958950Y-3473370D01*
X964020Y-3472520D01*
X969090Y-3468290D01*
X972250Y-3463210D01*
X972890Y-3458130D01*
X971620Y-3452200D01*
X967190Y-3447970D01*
X962750Y-3446280D01*
X957050D01*
G01X962750D02*
X966550Y-3443740D01*
X969720Y-3439500D01*
X970990Y-3434420D01*
X969720Y-3429340D01*
X966550Y-3425110D01*
X960850Y-3422570D01*
X955150Y-3423420D01*
X949450Y-3426800D01*
G01X1007750Y-3473370D02*
X1009020Y-3462360D01*
X1010920Y-3453050D01*
X1013450Y-3444580D01*
X1016620Y-3435270D01*
X1021690Y-3422570D01*
X996350D01*
G01X810540Y-2880100D02*
Y-2829300D01*
X826380D01*
X831440Y-2831840D01*
X834610Y-2835230D01*
X835880Y-2842000D01*
X834610Y-2848770D01*
X830810Y-2853010D01*
X826380Y-2855550D01*
X810540D01*
G01X826380D02*
X835880Y-2880100D01*
G01X859980Y-2869940D02*
X863780Y-2875870D01*
X868840Y-2879250D01*
X874540Y-2880100D01*
X879610Y-2879250D01*
X884680Y-2875020D01*
X887840Y-2869940D01*
X888480Y-2864860D01*
X887210Y-2858930D01*
X882780Y-2854700D01*
X878340Y-2853010D01*
X872640D01*
G01X878340D02*
X882140Y-2850470D01*
X885310Y-2846230D01*
X886580Y-2841150D01*
X885310Y-2836070D01*
X882140Y-2831840D01*
X876440Y-2829300D01*
X870740Y-2830150D01*
X865040Y-2833530D01*
G01X900860Y-3037110D02*
X901710Y-3032040D01*
X905090Y-3027610D01*
X910170Y-3023810D01*
X916100Y-3021280D01*
X922870Y-3020010D01*
X929650D01*
X936420Y-3021280D01*
X942350Y-3023810D01*
X947430Y-3027610D01*
X950810Y-3032040D01*
X951660Y-3037110D01*
X950810Y-3042180D01*
X947430Y-3046610D01*
X942350Y-3050410D01*
X936420Y-3052940D01*
X929650Y-3054210D01*
X922870D01*
X916100Y-3052940D01*
X910170Y-3050410D01*
X905090Y-3046610D01*
X901710Y-3042180D01*
X900860Y-3037110D01*
G01X914410Y-3042180D02*
X900860Y-3049780D01*
G01X908480Y-3073880D02*
X904250Y-3077680D01*
X901710Y-3082110D01*
X900860Y-3087810D01*
X902550Y-3093510D01*
X905940Y-3097940D01*
X911870Y-3101110D01*
X918640Y-3101740D01*
X925410Y-3100480D01*
X929650Y-3097310D01*
X933030Y-3092880D01*
X933880Y-3088440D01*
X933030Y-3084010D01*
X929650Y-3078310D01*
X951660Y-3080210D01*
Y-3097310D01*
G01X651230Y-2100170D02*
X656310Y-2097000D01*
X659700Y-2093200D01*
X661390Y-2088770D01*
X659700Y-2083700D01*
X656310Y-2079900D01*
X651230Y-2076100D01*
X644460Y-2074830D01*
X610590D01*
G01X661390Y-2036800D02*
X610590D01*
X620750Y-2044400D01*
G01X661390D02*
Y-2029200D01*
G01X1422820Y-3485870D02*
Y-3435070D01*
X1438660D01*
X1443720Y-3437610D01*
X1446890Y-3441000D01*
X1448160Y-3447770D01*
X1446890Y-3454540D01*
X1443090Y-3458780D01*
X1438660Y-3461320D01*
X1422820D01*
G01X1438660D02*
X1448160Y-3485870D01*
G01X1472260Y-3475710D02*
X1476060Y-3481640D01*
X1481120Y-3485020D01*
X1486820Y-3485870D01*
X1491890Y-3485020D01*
X1496960Y-3480790D01*
X1500120Y-3475710D01*
X1500760Y-3470630D01*
X1499490Y-3464700D01*
X1495060Y-3460470D01*
X1490620Y-3458780D01*
X1484920D01*
G01X1490620D02*
X1494420Y-3456240D01*
X1497590Y-3452000D01*
X1498860Y-3446920D01*
X1497590Y-3441840D01*
X1494420Y-3437610D01*
X1488720Y-3435070D01*
X1483020Y-3435920D01*
X1477320Y-3439300D01*
G01X1536890Y-3485870D02*
X1541320Y-3485020D01*
X1546390Y-3482480D01*
X1549560Y-3478250D01*
X1550820Y-3472320D01*
X1549560Y-3466400D01*
X1545760Y-3461320D01*
X1540060Y-3458780D01*
X1533720D01*
X1529920Y-3457080D01*
X1526760Y-3452850D01*
X1525490Y-3446920D01*
X1527390Y-3441000D01*
X1531820Y-3436760D01*
X1536890Y-3435070D01*
X1541960Y-3436760D01*
X1546390Y-3441000D01*
X1548290Y-3446920D01*
X1547020Y-3452850D01*
X1543860Y-3457080D01*
X1540060Y-3458780D01*
X1533720D01*
X1528020Y-3461320D01*
X1524220Y-3466400D01*
X1522960Y-3472320D01*
X1524220Y-3478250D01*
X1527390Y-3482480D01*
X1532460Y-3485020D01*
X1536890Y-3485870D01*
G01X1295910Y-2880100D02*
Y-2829300D01*
X1311750D01*
X1316810Y-2831840D01*
X1319980Y-2835230D01*
X1321250Y-2842000D01*
X1319980Y-2848770D01*
X1316180Y-2853010D01*
X1311750Y-2855550D01*
X1295910D01*
G01X1311750D02*
X1321250Y-2880100D01*
G01X1347250Y-2837770D02*
X1351050Y-2832690D01*
X1355480Y-2830150D01*
X1360550Y-2829300D01*
X1366880Y-2830990D01*
X1371310Y-2835230D01*
X1372580Y-2840310D01*
X1371950Y-2845390D01*
X1369410Y-2849620D01*
X1356750Y-2858090D01*
X1351050Y-2864010D01*
X1347250Y-2872480D01*
X1345980Y-2880100D01*
X1372580D01*
G01X1404340Y-3041610D02*
X1405190Y-3036540D01*
X1408570Y-3032110D01*
X1413650Y-3028310D01*
X1419580Y-3025780D01*
X1426350Y-3024510D01*
X1433130D01*
X1439900Y-3025780D01*
X1445830Y-3028310D01*
X1450910Y-3032110D01*
X1454290Y-3036540D01*
X1455140Y-3041610D01*
X1454290Y-3046680D01*
X1450910Y-3051110D01*
X1445830Y-3054910D01*
X1439900Y-3057440D01*
X1433130Y-3058710D01*
X1426350D01*
X1419580Y-3057440D01*
X1413650Y-3054910D01*
X1408570Y-3051110D01*
X1405190Y-3046680D01*
X1404340Y-3041610D01*
G01X1417890Y-3046680D02*
X1404340Y-3054280D01*
G01Y-3099910D02*
X1455140D01*
X1418730Y-3076480D01*
Y-3108140D01*
G01X1356280Y-2442600D02*
Y-2391800D01*
X1372120D01*
X1377180Y-2394340D01*
X1380350Y-2397730D01*
X1381620Y-2404500D01*
X1380350Y-2411270D01*
X1376550Y-2415510D01*
X1372120Y-2418050D01*
X1356280D01*
G01X1372120D02*
X1381620Y-2442600D01*
G01X1405720Y-2434980D02*
X1409520Y-2439210D01*
X1413950Y-2441750D01*
X1419650Y-2442600D01*
X1425350Y-2440910D01*
X1429780Y-2437520D01*
X1432950Y-2431590D01*
X1433580Y-2424820D01*
X1432320Y-2418050D01*
X1429150Y-2413810D01*
X1424720Y-2410430D01*
X1420280Y-2409580D01*
X1415850Y-2410430D01*
X1410150Y-2413810D01*
X1412050Y-2391800D01*
X1429150D01*
G01X1149930Y-2405060D02*
X1147390Y-2408860D01*
X1145700Y-2413290D01*
Y-2418360D01*
X1148240Y-2424060D01*
X1152470Y-2428490D01*
X1157550Y-2431660D01*
X1166020Y-2434190D01*
X1173640Y-2434820D01*
X1181260Y-2433560D01*
X1186340Y-2431660D01*
X1191420Y-2427860D01*
X1194810Y-2423420D01*
X1196500Y-2418990D01*
Y-2414560D01*
X1194810Y-2410120D01*
X1192270Y-2406320D01*
X1188880Y-2403160D01*
G01X1186340Y-2382220D02*
X1192270Y-2378420D01*
X1195650Y-2373360D01*
X1196500Y-2367660D01*
X1195650Y-2362590D01*
X1191420Y-2357520D01*
X1186340Y-2354360D01*
X1181260Y-2353720D01*
X1175330Y-2354990D01*
X1171100Y-2359420D01*
X1169410Y-2363860D01*
Y-2369560D01*
G01Y-2363860D02*
X1166870Y-2360060D01*
X1162630Y-2356890D01*
X1157550Y-2355620D01*
X1152470Y-2356890D01*
X1148240Y-2360060D01*
X1145700Y-2365760D01*
X1146550Y-2371460D01*
X1149930Y-2377160D01*
G01X1903980Y-3459020D02*
Y-3408220D01*
X1919820D01*
X1924880Y-3410760D01*
X1928050Y-3414150D01*
X1929320Y-3420920D01*
X1928050Y-3427690D01*
X1924250Y-3431930D01*
X1919820Y-3434470D01*
X1903980D01*
G01X1919820D02*
X1929320Y-3459020D01*
G01X1974950D02*
Y-3408220D01*
X1951520Y-3444630D01*
X1983180D01*
G01X2016780Y-3459020D02*
X2018050Y-3448010D01*
X2019950Y-3438700D01*
X2022480Y-3430230D01*
X2025650Y-3420920D01*
X2030720Y-3408220D01*
X2005380D01*
G01X1868070Y-2883430D02*
Y-2832630D01*
X1883910D01*
X1888970Y-2835170D01*
X1892140Y-2838560D01*
X1893410Y-2845330D01*
X1892140Y-2852100D01*
X1888340Y-2856340D01*
X1883910Y-2858880D01*
X1868070D01*
G01X1883910D02*
X1893410Y-2883430D01*
G01X1939040D02*
Y-2832630D01*
X1915610Y-2869040D01*
X1947270D01*
G01X1982140Y-2883430D02*
X1986570Y-2882580D01*
X1991640Y-2880040D01*
X1994810Y-2875810D01*
X1996070Y-2869880D01*
X1994810Y-2863960D01*
X1991010Y-2858880D01*
X1985310Y-2856340D01*
X1978970D01*
X1975170Y-2854640D01*
X1972010Y-2850410D01*
X1970740Y-2844480D01*
X1972640Y-2838560D01*
X1977070Y-2834320D01*
X1982140Y-2832630D01*
X1987210Y-2834320D01*
X1991640Y-2838560D01*
X1993540Y-2844480D01*
X1992270Y-2850410D01*
X1989110Y-2854640D01*
X1985310Y-2856340D01*
X1978970D01*
X1973270Y-2858880D01*
X1969470Y-2863960D01*
X1968210Y-2869880D01*
X1969470Y-2875810D01*
X1972640Y-2880040D01*
X1977710Y-2882580D01*
X1982140Y-2883430D01*
G01X1916550Y-3069930D02*
X1917400Y-3064860D01*
X1920780Y-3060430D01*
X1925860Y-3056630D01*
X1931790Y-3054100D01*
X1938560Y-3052830D01*
X1945340D01*
X1952110Y-3054100D01*
X1958040Y-3056630D01*
X1963120Y-3060430D01*
X1966500Y-3064860D01*
X1967350Y-3069930D01*
X1966500Y-3075000D01*
X1963120Y-3079430D01*
X1958040Y-3083230D01*
X1952110Y-3085760D01*
X1945340Y-3087030D01*
X1938560D01*
X1931790Y-3085760D01*
X1925860Y-3083230D01*
X1920780Y-3079430D01*
X1917400Y-3075000D01*
X1916550Y-3069930D01*
G01X1930100Y-3075000D02*
X1916550Y-3082600D01*
G01X1922480Y-3109860D02*
X1918240Y-3114300D01*
X1916550Y-3119360D01*
X1918240Y-3124430D01*
X1923320Y-3128860D01*
X1930940Y-3132030D01*
X1938560Y-3133300D01*
X1947880D01*
X1955500Y-3132030D01*
X1962270Y-3128860D01*
X1965660Y-3125060D01*
X1967350Y-3120630D01*
X1965660Y-3115560D01*
X1962270Y-3111760D01*
X1957190Y-3109230D01*
X1950420Y-3107960D01*
X1944490Y-3109230D01*
X1938560Y-3112400D01*
X1935180Y-3116200D01*
X1934330Y-3120630D01*
X1936020Y-3125700D01*
X1940260Y-3129500D01*
X1947880Y-3133300D01*
G01X2403430Y-3451190D02*
Y-3400390D01*
X2419270D01*
X2424330Y-3402930D01*
X2427500Y-3406320D01*
X2428770Y-3413090D01*
X2427500Y-3419860D01*
X2423700Y-3424100D01*
X2419270Y-3426640D01*
X2403430D01*
G01X2419270D02*
X2428770Y-3451190D01*
G01X2474400D02*
Y-3400390D01*
X2450970Y-3436800D01*
X2482630D01*
G01X2517500Y-3400390D02*
X2512430Y-3402080D01*
X2508630Y-3406320D01*
X2506100Y-3411400D01*
X2504200Y-3418170D01*
X2503570Y-3425790D01*
X2504200Y-3433410D01*
X2506100Y-3440180D01*
X2508630Y-3445260D01*
X2512430Y-3449500D01*
X2517500Y-3451190D01*
X2522570Y-3449500D01*
X2526370Y-3445260D01*
X2528900Y-3440180D01*
X2530800Y-3433410D01*
X2531430Y-3425790D01*
X2530800Y-3418170D01*
X2528900Y-3411400D01*
X2526370Y-3406320D01*
X2522570Y-3402080D01*
X2517500Y-3400390D01*
G01X2304150Y-2892600D02*
Y-2841800D01*
X2319990D01*
X2325050Y-2844340D01*
X2328220Y-2847730D01*
X2329490Y-2854500D01*
X2328220Y-2861270D01*
X2324420Y-2865510D01*
X2319990Y-2868050D01*
X2304150D01*
G01X2319990D02*
X2329490Y-2892600D01*
G01X2375120D02*
Y-2841800D01*
X2351690Y-2878210D01*
X2383350D01*
G01X2399680Y-3066610D02*
X2400530Y-3061540D01*
X2403910Y-3057110D01*
X2408990Y-3053310D01*
X2414920Y-3050780D01*
X2421690Y-3049510D01*
X2428470D01*
X2435240Y-3050780D01*
X2441170Y-3053310D01*
X2446250Y-3057110D01*
X2449630Y-3061540D01*
X2450480Y-3066610D01*
X2449630Y-3071680D01*
X2446250Y-3076110D01*
X2441170Y-3079910D01*
X2435240Y-3082440D01*
X2428470Y-3083710D01*
X2421690D01*
X2414920Y-3082440D01*
X2408990Y-3079910D01*
X2403910Y-3076110D01*
X2400530Y-3071680D01*
X2399680Y-3066610D01*
G01X2413230Y-3071680D02*
X2399680Y-3079280D01*
G01X2442010Y-3105280D02*
X2447090Y-3109080D01*
X2449630Y-3113510D01*
X2450480Y-3118580D01*
X2448790Y-3124910D01*
X2444550Y-3129340D01*
X2439470Y-3130610D01*
X2434390Y-3129980D01*
X2430160Y-3127440D01*
X2421690Y-3114780D01*
X2415770Y-3109080D01*
X2407300Y-3105280D01*
X2399680Y-3104010D01*
Y-3130610D01*
G01X2478610Y481870D02*
X2474810Y484410D01*
X2470380Y486100D01*
X2465310D01*
X2459610Y483560D01*
X2455180Y479330D01*
X2452010Y474250D01*
X2449480Y465780D01*
X2448850Y458160D01*
X2450110Y450540D01*
X2452010Y445460D01*
X2455810Y440380D01*
X2460250Y436990D01*
X2464680Y435300D01*
X2469110D01*
X2473550Y436990D01*
X2477350Y439530D01*
X2480510Y442920D01*
G01X2522980Y435300D02*
Y486100D01*
X2499550Y449690D01*
X2531210D01*
G01X2554050Y477630D02*
X2557850Y482710D01*
X2562280Y485250D01*
X2567350Y486100D01*
X2573680Y484410D01*
X2578110Y480170D01*
X2579380Y475090D01*
X2578750Y470010D01*
X2576210Y465780D01*
X2563550Y457310D01*
X2557850Y451390D01*
X2554050Y442920D01*
X2552780Y435300D01*
X2579380D01*
G01X2469490Y2045180D02*
X2472030Y2048980D01*
X2473720Y2053410D01*
Y2058480D01*
X2471180Y2064180D01*
X2466950Y2068610D01*
X2461870Y2071780D01*
X2453400Y2074310D01*
X2445780Y2074940D01*
X2438160Y2073680D01*
X2433080Y2071780D01*
X2428000Y2067980D01*
X2424610Y2063540D01*
X2422920Y2059110D01*
Y2054680D01*
X2424610Y2050240D01*
X2427150Y2046440D01*
X2430540Y2043280D01*
G01X2422920Y2000810D02*
X2473720D01*
X2437310Y2024240D01*
Y1992580D01*
G01X2422920Y1957710D02*
X2473720D01*
X2463560Y1965310D01*
G01X2422920D02*
Y1950110D01*
G01X2937580Y-3422370D02*
Y-3371570D01*
X2953420D01*
X2958480Y-3374110D01*
X2961650Y-3377500D01*
X2962920Y-3384270D01*
X2961650Y-3391040D01*
X2957850Y-3395280D01*
X2953420Y-3397820D01*
X2937580D01*
G01X2953420D02*
X2962920Y-3422370D01*
G01X2987020Y-3412210D02*
X2990820Y-3418140D01*
X2995880Y-3421520D01*
X3001580Y-3422370D01*
X3006650Y-3421520D01*
X3011720Y-3417290D01*
X3014880Y-3412210D01*
X3015520Y-3407130D01*
X3014250Y-3401200D01*
X3009820Y-3396970D01*
X3005380Y-3395280D01*
X2999680D01*
G01X3005380D02*
X3009180Y-3392740D01*
X3012350Y-3388500D01*
X3013620Y-3383420D01*
X3012350Y-3378340D01*
X3009180Y-3374110D01*
X3003480Y-3371570D01*
X2997780Y-3372420D01*
X2992080Y-3375800D01*
G01X3039620Y-3401200D02*
X3044050Y-3395280D01*
X3047850Y-3391890D01*
X3052920Y-3390200D01*
X3057350Y-3391890D01*
X3060520Y-3395280D01*
X3063050Y-3400360D01*
X3063680Y-3406280D01*
X3063050Y-3411360D01*
X3060520Y-3416440D01*
X3056720Y-3420680D01*
X3052280Y-3422370D01*
X3047220Y-3420680D01*
X3042780Y-3415600D01*
X3040250Y-3407980D01*
X3039620Y-3399510D01*
X3040880Y-3388500D01*
X3042780Y-3382580D01*
X3045950Y-3376650D01*
X3050380Y-3372420D01*
X3054820Y-3371570D01*
X3059250Y-3373260D01*
X3062420Y-3377500D01*
G01X3241000Y965660D02*
X3291800D01*
Y949820D01*
X3289260Y944760D01*
X3285870Y941590D01*
X3279100Y940320D01*
X3272330Y941590D01*
X3268090Y945390D01*
X3265550Y949820D01*
Y965660D01*
G01Y949820D02*
X3241000Y940320D01*
G01Y894690D02*
X3291800D01*
X3255390Y918120D01*
Y886460D01*
G01X3251160Y865520D02*
X3245230Y861720D01*
X3241850Y856660D01*
X3241000Y850960D01*
X3241850Y845890D01*
X3246080Y840820D01*
X3251160Y837660D01*
X3256240Y837020D01*
X3262170Y838290D01*
X3266400Y842720D01*
X3268090Y847160D01*
Y852860D01*
G01Y847160D02*
X3270630Y843360D01*
X3274870Y840190D01*
X3279950Y838920D01*
X3285030Y840190D01*
X3289260Y843360D01*
X3291800Y849060D01*
X3290950Y854760D01*
X3287570Y860460D01*
G01X3232500Y560840D02*
X3181700D01*
Y576680D01*
X3184240Y581740D01*
X3187630Y584910D01*
X3194400Y586180D01*
X3201170Y584910D01*
X3205410Y581110D01*
X3207950Y576680D01*
Y560840D01*
G01Y576680D02*
X3232500Y586180D01*
G01Y631810D02*
X3181700D01*
X3218110Y608380D01*
Y640040D01*
G01X3190170Y662880D02*
X3185090Y666680D01*
X3182550Y671110D01*
X3181700Y676180D01*
X3183390Y682510D01*
X3187630Y686940D01*
X3192710Y688210D01*
X3197790Y687580D01*
X3202020Y685040D01*
X3210490Y672380D01*
X3216410Y666680D01*
X3224880Y662880D01*
X3232500Y661610D01*
Y688210D01*
G01X3485630Y-3836030D02*
X3490700Y-3840260D01*
X3496400Y-3842800D01*
X3501460D01*
X3506530Y-3840260D01*
X3510330Y-3836030D01*
X3512230Y-3830100D01*
X3510960Y-3824170D01*
X3507800Y-3819090D01*
X3502100Y-3815710D01*
X3494500Y-3814010D01*
X3490060Y-3810630D01*
X3488160Y-3804700D01*
X3489430Y-3798770D01*
X3492600Y-3794540D01*
X3497030Y-3792000D01*
X3501460D01*
X3505900Y-3793690D01*
X3509700Y-3797930D01*
G01X3537600Y-3800470D02*
X3541400Y-3795390D01*
X3545830Y-3792850D01*
X3550900Y-3792000D01*
X3557230Y-3793690D01*
X3561660Y-3797930D01*
X3562930Y-3803010D01*
X3562300Y-3808090D01*
X3559760Y-3812320D01*
X3547100Y-3820790D01*
X3541400Y-3826710D01*
X3537600Y-3835180D01*
X3536330Y-3842800D01*
X3562930D01*
G01X3503530Y-2025970D02*
X3507330Y-2028510D01*
X3511760Y-2030200D01*
X3516830D01*
X3522530Y-2027660D01*
X3526960Y-2023430D01*
X3530130Y-2018350D01*
X3532660Y-2009880D01*
X3533290Y-2002260D01*
X3532030Y-1994640D01*
X3530130Y-1989560D01*
X3526330Y-1984480D01*
X3521890Y-1981090D01*
X3517460Y-1979400D01*
X3513030D01*
X3508590Y-1981090D01*
X3504790Y-1983630D01*
X3501630Y-1987020D01*
G01X3459160Y-1979400D02*
Y-2030200D01*
X3482590Y-1993790D01*
X3450930D01*
G01X3416060Y-2030200D02*
X3421130Y-2028510D01*
X3424930Y-2024270D01*
X3427460Y-2019190D01*
X3429360Y-2012420D01*
X3429990Y-2004800D01*
X3429360Y-1997180D01*
X3427460Y-1990410D01*
X3424930Y-1985330D01*
X3421130Y-1981090D01*
X3416060Y-1979400D01*
X3410990Y-1981090D01*
X3407190Y-1985330D01*
X3404660Y-1990410D01*
X3402760Y-1997180D01*
X3402130Y-2004800D01*
X3402760Y-2012420D01*
X3404660Y-2019190D01*
X3407190Y-2024270D01*
X3410990Y-2028510D01*
X3416060Y-2030200D01*
G01X3668180Y207990D02*
Y258790D01*
X3642840D01*
G01X3616840Y216460D02*
X3613040Y211380D01*
X3608610Y208840D01*
X3603540Y207990D01*
X3597210Y209680D01*
X3592780Y213920D01*
X3591510Y219000D01*
X3592140Y224080D01*
X3594680Y228310D01*
X3607340Y236780D01*
X3613040Y242700D01*
X3616840Y251170D01*
X3618110Y258790D01*
X3591510D01*
G01X3597080Y705800D02*
Y669390D01*
X3599610Y661770D01*
X3604680Y656690D01*
X3611010Y655000D01*
X3617340Y656690D01*
X3622410Y661770D01*
X3624940Y669390D01*
Y705800D01*
G01X3661710Y655000D02*
X3666140Y655850D01*
X3671210Y658390D01*
X3674380Y662620D01*
X3675640Y668550D01*
X3674380Y674470D01*
X3670580Y679550D01*
X3664880Y682090D01*
X3658540D01*
X3654740Y683790D01*
X3651580Y688020D01*
X3650310Y693950D01*
X3652210Y699870D01*
X3656640Y704110D01*
X3661710Y705800D01*
X3666780Y704110D01*
X3671210Y699870D01*
X3673110Y693950D01*
X3671840Y688020D01*
X3668680Y683790D01*
X3664880Y682090D01*
X3658540D01*
X3652840Y679550D01*
X3649040Y674470D01*
X3647780Y668550D01*
X3649040Y662620D01*
X3652210Y658390D01*
X3657280Y655850D01*
X3661710Y655000D01*
G54D13*
G01X-3334850Y-2487000D02*
G03I-12000J0D01*
G54D14*
G01X1473840Y-1497000D02*
Y-1588020D01*
X1480270Y-1607070D01*
X1493140Y-1619770D01*
X1509230Y-1624000D01*
X1525320Y-1619770D01*
X1538190Y-1607070D01*
X1544620Y-1588020D01*
Y-1497000D01*
G01X1635550Y-1624000D02*
X1638770Y-1596490D01*
X1643600Y-1573200D01*
X1650030Y-1552030D01*
X1658070Y-1528750D01*
X1670940Y-1497000D01*
X1606600D01*
G01X2928210Y-1502680D02*
Y-1593700D01*
X2934640Y-1612750D01*
X2947510Y-1625450D01*
X2963600Y-1629680D01*
X2979690Y-1625450D01*
X2992560Y-1612750D01*
X2998990Y-1593700D01*
Y-1502680D01*
G01X3062570Y-1576770D02*
X3073840Y-1561950D01*
X3083490Y-1553480D01*
X3096360Y-1549250D01*
X3107620Y-1553480D01*
X3115660Y-1561950D01*
X3122100Y-1574650D01*
X3123710Y-1589460D01*
X3122100Y-1602170D01*
X3115660Y-1614870D01*
X3106010Y-1625450D01*
X3094750Y-1629680D01*
X3081880Y-1625450D01*
X3070620Y-1612750D01*
X3064180Y-1593700D01*
X3062570Y-1572530D01*
X3065790Y-1545020D01*
X3070620Y-1530190D01*
X3078660Y-1515380D01*
X3089920Y-1504800D01*
X3101180Y-1502680D01*
X3112440Y-1506910D01*
X3120490Y-1517500D01*
G54D15*
G01X-4043500Y-692510D02*
X-3703500D01*
Y-1212490D01*
X-4043500D01*
Y-692510D01*
G01X-53420Y-3907990D02*
Y-3831990D01*
X-87420D01*
G01X-153430D02*
X-119430D01*
Y-3907990D01*
X-153430D01*
G01X-139830Y-3871260D02*
X-119430D01*
G01X-183740Y-3831990D02*
Y-3907990D01*
X-200740D01*
X-207540Y-3904190D01*
X-212640Y-3899120D01*
X-216890Y-3891520D01*
X-220290Y-3882660D01*
X-221140Y-3869990D01*
X-220290Y-3857320D01*
X-216890Y-3848460D01*
X-212640Y-3840850D01*
X-207540Y-3835790D01*
X-200740Y-3831990D01*
X-183740D01*
G01X-252300Y-3863650D02*
X-258250Y-3872520D01*
X-263350Y-3877590D01*
X-270150Y-3880120D01*
X-276100Y-3877590D01*
X-280350Y-3872520D01*
X-283750Y-3864920D01*
X-284600Y-3856060D01*
X-283750Y-3848460D01*
X-280350Y-3840850D01*
X-275250Y-3834520D01*
X-269300Y-3831990D01*
X-262500Y-3834520D01*
X-256550Y-3842120D01*
X-253150Y-3853520D01*
X-252300Y-3866190D01*
X-254000Y-3882660D01*
X-256550Y-3891520D01*
X-260800Y-3900390D01*
X-266750Y-3906720D01*
X-272700Y-3907990D01*
X-278650Y-3905460D01*
X-282900Y-3899120D01*
G01X-323490Y-1376500D02*
Y-1036500D01*
X196490D01*
Y-1376500D01*
X-323490D01*
G01X455510Y-3907500D02*
Y-3831500D01*
X421510D01*
G01X355500D02*
X389500D01*
Y-3907500D01*
X355500D01*
G01X369100Y-3870770D02*
X389500D01*
G01X325190Y-3831500D02*
Y-3907500D01*
X308190D01*
X301390Y-3903700D01*
X296290Y-3898630D01*
X292040Y-3891030D01*
X288640Y-3882170D01*
X287790Y-3869500D01*
X288640Y-3856830D01*
X292040Y-3847970D01*
X296290Y-3840360D01*
X301390Y-3835300D01*
X308190Y-3831500D01*
X325190D01*
G01X230280D02*
Y-3907500D01*
X261730Y-3853030D01*
X219230D01*
G01X964520Y-3907500D02*
Y-3831500D01*
X930520D01*
G01X864510D02*
X898510D01*
Y-3907500D01*
X864510D01*
G01X878110Y-3870770D02*
X898510D01*
G01X834200Y-3831500D02*
Y-3907500D01*
X817200D01*
X810400Y-3903700D01*
X805300Y-3898630D01*
X801050Y-3891030D01*
X797650Y-3882170D01*
X796800Y-3869500D01*
X797650Y-3856830D01*
X801050Y-3847970D01*
X805300Y-3840360D01*
X810400Y-3835300D01*
X817200Y-3831500D01*
X834200D01*
G01X765640Y-3894830D02*
X760540Y-3902430D01*
X754590Y-3906230D01*
X747790Y-3907500D01*
X739290Y-3904970D01*
X733340Y-3898630D01*
X731640Y-3891030D01*
X732490Y-3883430D01*
X735890Y-3877100D01*
X752890Y-3864430D01*
X760540Y-3855570D01*
X765640Y-3842900D01*
X767340Y-3831500D01*
X731640D01*
G01X1473530Y-3907500D02*
Y-3831500D01*
X1439530D01*
G01X1373520D02*
X1407520D01*
Y-3907500D01*
X1373520D01*
G01X1387120Y-3870770D02*
X1407520D01*
G01X1343210Y-3831500D02*
Y-3907500D01*
X1326210D01*
X1319410Y-3903700D01*
X1314310Y-3898630D01*
X1310060Y-3891030D01*
X1306660Y-3882170D01*
X1305810Y-3869500D01*
X1306660Y-3856830D01*
X1310060Y-3847970D01*
X1314310Y-3840360D01*
X1319410Y-3835300D01*
X1326210Y-3831500D01*
X1343210D01*
G01X1277200Y-3846700D02*
X1272100Y-3837830D01*
X1265300Y-3832770D01*
X1257650Y-3831500D01*
X1250850Y-3832770D01*
X1244050Y-3839100D01*
X1239800Y-3846700D01*
X1238950Y-3854300D01*
X1240650Y-3863160D01*
X1246600Y-3869500D01*
X1252550Y-3872030D01*
X1260200D01*
G01X1252550D02*
X1247450Y-3875830D01*
X1243200Y-3882170D01*
X1241500Y-3889770D01*
X1243200Y-3897370D01*
X1247450Y-3903700D01*
X1255100Y-3907500D01*
X1262750Y-3906230D01*
X1270400Y-3901170D01*
G01X1982540Y-3907500D02*
Y-3831500D01*
X1948540D01*
G01X1882530D02*
X1916530D01*
Y-3907500D01*
X1882530D01*
G01X1896130Y-3870770D02*
X1916530D01*
G01X1852220Y-3831500D02*
Y-3907500D01*
X1835220D01*
X1828420Y-3903700D01*
X1823320Y-3898630D01*
X1819070Y-3891030D01*
X1815670Y-3882170D01*
X1814820Y-3869500D01*
X1815670Y-3856830D01*
X1819070Y-3847970D01*
X1823320Y-3840360D01*
X1828420Y-3835300D01*
X1835220Y-3831500D01*
X1852220D01*
G01X1769210D02*
X1767510Y-3847970D01*
X1764960Y-3861900D01*
X1761560Y-3874570D01*
X1757310Y-3888500D01*
X1750510Y-3907500D01*
X1784510D01*
G01X2492560D02*
Y-3831500D01*
X2458560D01*
G01X2392550D02*
X2426550D01*
Y-3907500D01*
X2392550D01*
G01X2406150Y-3870770D02*
X2426550D01*
G01X2362240Y-3831500D02*
Y-3907500D01*
X2345240D01*
X2338440Y-3903700D01*
X2333340Y-3898630D01*
X2329090Y-3891030D01*
X2325690Y-3882170D01*
X2324840Y-3869500D01*
X2325690Y-3856830D01*
X2329090Y-3847970D01*
X2333340Y-3840360D01*
X2338440Y-3835300D01*
X2345240Y-3831500D01*
X2362240D01*
G01X2296230Y-3842900D02*
X2291130Y-3836570D01*
X2285180Y-3832770D01*
X2277530Y-3831500D01*
X2269880Y-3834030D01*
X2263930Y-3839100D01*
X2259680Y-3847970D01*
X2258830Y-3858100D01*
X2260530Y-3868230D01*
X2264780Y-3874570D01*
X2270730Y-3879630D01*
X2276680Y-3880900D01*
X2282630Y-3879630D01*
X2290280Y-3874570D01*
X2287730Y-3907500D01*
X2264780D01*
G01X2999550D02*
Y-3831500D01*
X2965550D01*
G01X2899540D02*
X2933540D01*
Y-3907500D01*
X2899540D01*
G01X2913140Y-3870770D02*
X2933540D01*
G01X2869230Y-3831500D02*
Y-3907500D01*
X2852230D01*
X2845430Y-3903700D01*
X2840330Y-3898630D01*
X2836080Y-3891030D01*
X2832680Y-3882170D01*
X2831830Y-3869500D01*
X2832680Y-3856830D01*
X2836080Y-3847970D01*
X2840330Y-3840360D01*
X2845430Y-3835300D01*
X2852230Y-3831500D01*
X2869230D01*
G01X2784520D02*
Y-3907500D01*
X2794720Y-3892300D01*
G01Y-3831500D02*
X2774320D01*
G54D16*
G01X-4677290Y-2846000D02*
Y-2782500D01*
X-4659680Y-2835420D01*
X-4642070Y-2782500D01*
Y-2846000D01*
G01X-4618020D02*
Y-2782500D01*
G01X-4589580D02*
Y-2846000D01*
G01Y-2814250D02*
X-4618020D01*
G01X-4547920Y-2846000D02*
X-4553340Y-2844940D01*
X-4558080Y-2840710D01*
X-4562140Y-2834360D01*
X-4564850Y-2826950D01*
X-4566210Y-2818480D01*
Y-2810020D01*
X-4564850Y-2801550D01*
X-4562140Y-2794140D01*
X-4558080Y-2787790D01*
X-4553340Y-2783560D01*
X-4547920Y-2782500D01*
X-4542500Y-2783560D01*
X-4537760Y-2787790D01*
X-4533700Y-2794140D01*
X-4530990Y-2801550D01*
X-4529630Y-2810020D01*
Y-2818480D01*
X-4530990Y-2826950D01*
X-4533700Y-2834360D01*
X-4537760Y-2840710D01*
X-4542500Y-2844940D01*
X-4547920Y-2846000D01*
G01X-4505590Y-2782500D02*
Y-2846000D01*
X-4478490D01*
G01X-4422610D02*
X-4449710D01*
Y-2782500D01*
X-4422610D01*
G01X-4433450Y-2813190D02*
X-4449710D01*
G01X-4395180Y-2833300D02*
X-4391120Y-2840710D01*
X-4385700Y-2844940D01*
X-4379600Y-2846000D01*
X-4374180Y-2844940D01*
X-4368760Y-2839650D01*
X-4365380Y-2833300D01*
X-4364700Y-2826950D01*
X-4366060Y-2819540D01*
X-4370800Y-2814250D01*
X-4375540Y-2812130D01*
X-4381630D01*
G01X-4375540D02*
X-4371470Y-2808960D01*
X-4368090Y-2803670D01*
X-4366730Y-2797320D01*
X-4368090Y-2790970D01*
X-4371470Y-2785680D01*
X-4377570Y-2782500D01*
X-4383670Y-2783560D01*
X-4389760Y-2787790D01*
G01X-4836920Y-1868690D02*
Y-1928690D01*
X-4726940D01*
Y-1868690D01*
X-4836920D01*
G01X-4846550Y-1618690D02*
Y-1678690D01*
X-4736570D01*
Y-1618690D01*
X-4846550D01*
G01X-4512330Y-287090D02*
Y-227090D01*
X-4622310D01*
Y-287090D01*
X-4512330D01*
G01X-4810850Y313170D02*
X-4807040Y318250D01*
X-4804500Y324180D01*
Y330950D01*
X-4808310Y338570D01*
X-4814660Y344500D01*
X-4822280Y348730D01*
X-4834980Y352120D01*
X-4846410Y352970D01*
X-4857840Y351270D01*
X-4865460Y348730D01*
X-4873080Y343650D01*
X-4878160Y337730D01*
X-4880700Y331800D01*
Y325870D01*
X-4878160Y319950D01*
X-4874350Y314870D01*
X-4869270Y310630D01*
G01X-4880700Y268300D02*
X-4804500D01*
X-4819740Y278460D01*
G01X-4880700D02*
Y258140D01*
G01X-4871810Y219190D02*
X-4878160Y213270D01*
X-4880700Y206490D01*
X-4878160Y199720D01*
X-4870540Y193790D01*
X-4859110Y189560D01*
X-4847680Y187870D01*
X-4833710D01*
X-4822280Y189560D01*
X-4812120Y193790D01*
X-4807040Y198870D01*
X-4804500Y204800D01*
X-4807040Y211570D01*
X-4812120Y216650D01*
X-4819740Y220040D01*
X-4829900Y221730D01*
X-4838790Y220040D01*
X-4847680Y215810D01*
X-4852760Y210730D01*
X-4854030Y204800D01*
X-4851490Y198030D01*
X-4845140Y192950D01*
X-4833710Y187870D01*
G01X-4598390Y853860D02*
Y933860D01*
X-4758410D01*
Y853860D01*
X-4598390D01*
G01X-4636460Y596030D02*
Y676030D01*
X-4796480D01*
Y596030D01*
X-4636460D01*
G01X-4706910Y1582870D02*
X-4786910D01*
Y1422850D01*
X-4706910D01*
Y1582870D01*
G01X-4592020Y1191110D02*
Y1271110D01*
X-4752040D01*
Y1191110D01*
X-4592020D01*
G01X-4677290Y2554000D02*
Y2617500D01*
X-4659680Y2564580D01*
X-4642070Y2617500D01*
Y2554000D01*
G01X-4618020D02*
Y2617500D01*
G01X-4589580D02*
Y2554000D01*
G01Y2585750D02*
X-4618020D01*
G01X-4547920Y2554000D02*
X-4553340Y2555060D01*
X-4558080Y2559290D01*
X-4562140Y2565640D01*
X-4564850Y2573050D01*
X-4566210Y2581520D01*
Y2589980D01*
X-4564850Y2598450D01*
X-4562140Y2605860D01*
X-4558080Y2612210D01*
X-4553340Y2616440D01*
X-4547920Y2617500D01*
X-4542500Y2616440D01*
X-4537760Y2612210D01*
X-4533700Y2605860D01*
X-4530990Y2598450D01*
X-4529630Y2589980D01*
Y2581520D01*
X-4530990Y2573050D01*
X-4533700Y2565640D01*
X-4537760Y2559290D01*
X-4542500Y2555060D01*
X-4547920Y2554000D01*
G01X-4505590Y2617500D02*
Y2554000D01*
X-4478490D01*
G01X-4422610D02*
X-4449710D01*
Y2617500D01*
X-4422610D01*
G01X-4433450Y2586810D02*
X-4449710D01*
G01X-4380280Y2554000D02*
Y2617500D01*
X-4388410Y2604800D01*
G01Y2554000D02*
X-4372150D01*
G01X-4222720Y-2037100D02*
Y-2212100D01*
X-4317720D01*
Y-2037100D01*
X-4222720D01*
G01X-4150450Y-1854580D02*
X-4090450D01*
Y-1744600D01*
X-4150450D01*
Y-1854580D01*
G01X-4109760Y-1198000D02*
Y-1138000D01*
X-4219740D01*
Y-1198000D01*
X-4109760D01*
G01X-4108510Y-773000D02*
Y-713000D01*
X-4218490D01*
Y-773000D01*
X-4108510D01*
G01X-3789660Y-2308370D02*
Y-2248370D01*
X-3899640D01*
Y-2308370D01*
X-3789660D01*
G01X-3613410Y-1830100D02*
Y-1655100D01*
X-3518410D01*
Y-1830100D01*
X-3613410D01*
G01X-3356350Y-1644460D02*
X-3352410Y-1638620D01*
X-3349790Y-1631800D01*
Y-1624010D01*
X-3353730Y-1615250D01*
X-3360290Y-1608440D01*
X-3368160Y-1603570D01*
X-3381290Y-1599670D01*
X-3393100Y-1598700D01*
X-3404910Y-1600650D01*
X-3412780Y-1603570D01*
X-3420660Y-1609410D01*
X-3425910Y-1616220D01*
X-3428530Y-1623040D01*
Y-1629860D01*
X-3425910Y-1636670D01*
X-3421970Y-1642510D01*
X-3416720Y-1647380D01*
G01X-3428530Y-1701780D02*
X-3349790D01*
X-3365540Y-1690100D01*
G01X-3428530D02*
Y-1713460D01*
G01X-3416720Y-1759100D02*
X-3423280Y-1764940D01*
X-3427220Y-1771760D01*
X-3428530Y-1780520D01*
X-3425910Y-1789280D01*
X-3420660Y-1796100D01*
X-3411470Y-1800970D01*
X-3400970Y-1801940D01*
X-3390470Y-1799990D01*
X-3383910Y-1795120D01*
X-3378660Y-1788310D01*
X-3377350Y-1781490D01*
X-3378660Y-1774680D01*
X-3383910Y-1765920D01*
X-3349790Y-1768840D01*
Y-1795120D01*
G01X-3579000Y-1373880D02*
X-3639000D01*
Y-1483860D01*
X-3579000D01*
Y-1373880D01*
G01X-3530830Y-1128690D02*
Y-1068690D01*
X-3640810D01*
Y-1128690D01*
X-3530830D01*
G01X-3556190Y-1028680D02*
X-3496190D01*
Y-918700D01*
X-3556190D01*
Y-1028680D01*
G01X-2907290Y-711610D02*
X-2913130Y-707670D01*
X-2919950Y-705050D01*
X-2927740D01*
X-2936500Y-708990D01*
X-2943310Y-715550D01*
X-2948180Y-723420D01*
X-2952080Y-736550D01*
X-2953050Y-748360D01*
X-2951100Y-760170D01*
X-2948180Y-768040D01*
X-2942340Y-775920D01*
X-2935530Y-781170D01*
X-2928710Y-783790D01*
X-2921890D01*
X-2915080Y-781170D01*
X-2909240Y-777230D01*
X-2904370Y-771980D01*
G01X-2849970Y-783790D02*
Y-705050D01*
X-2861650Y-720800D01*
G01Y-783790D02*
X-2838290D01*
G01X-2789730Y-718170D02*
X-2783890Y-710300D01*
X-2777070Y-706360D01*
X-2769280Y-705050D01*
X-2759550Y-707670D01*
X-2752730Y-714240D01*
X-2750780Y-722110D01*
X-2751760Y-729990D01*
X-2755650Y-736550D01*
X-2775120Y-749670D01*
X-2783890Y-758860D01*
X-2789730Y-771980D01*
X-2791680Y-783790D01*
X-2750780D01*
G01X-2984950Y-637950D02*
X-2979110Y-641890D01*
X-2972290Y-644510D01*
X-2964500D01*
X-2955740Y-640570D01*
X-2948930Y-634010D01*
X-2944060Y-626140D01*
X-2940160Y-613010D01*
X-2939190Y-601200D01*
X-2941140Y-589390D01*
X-2944060Y-581520D01*
X-2949900Y-573640D01*
X-2956710Y-568390D01*
X-2963530Y-565770D01*
X-2970350D01*
X-2977160Y-568390D01*
X-2983000Y-572330D01*
X-2987870Y-577580D01*
G01X-3042270Y-565770D02*
Y-644510D01*
X-3030590Y-628760D01*
G01Y-565770D02*
X-3053950D01*
G01X-3099590Y-581520D02*
X-3105430Y-572330D01*
X-3113220Y-567080D01*
X-3121980Y-565770D01*
X-3129770Y-567080D01*
X-3137560Y-573640D01*
X-3142430Y-581520D01*
X-3143400Y-589390D01*
X-3141460Y-598580D01*
X-3134640Y-605140D01*
X-3127830Y-607770D01*
X-3119060D01*
G01X-3127830D02*
X-3133670Y-611700D01*
X-3138540Y-618260D01*
X-3140480Y-626140D01*
X-3138540Y-634010D01*
X-3133670Y-640570D01*
X-3124900Y-644510D01*
X-3116140Y-643200D01*
X-3107380Y-637950D01*
G01X-2921140Y-854110D02*
X-2926980Y-850170D01*
X-2933800Y-847550D01*
X-2941590D01*
X-2950350Y-851490D01*
X-2957160Y-858050D01*
X-2962030Y-865920D01*
X-2965930Y-879050D01*
X-2966900Y-890860D01*
X-2964950Y-902670D01*
X-2962030Y-910540D01*
X-2956190Y-918420D01*
X-2949380Y-923670D01*
X-2942560Y-926290D01*
X-2935740D01*
X-2928930Y-923670D01*
X-2923090Y-919730D01*
X-2918220Y-914480D01*
G01X-2863820Y-926290D02*
Y-847550D01*
X-2875500Y-863300D01*
G01Y-926290D02*
X-2852140D01*
G01X-2785080D02*
Y-847550D01*
X-2796760Y-863300D01*
G01Y-926290D02*
X-2773400D01*
G01X-3182040Y-403100D02*
X-3007040D01*
Y-498100D01*
X-3182040D01*
Y-403100D01*
G01X-2897310Y-135770D02*
X-2977310D01*
Y-295790D01*
X-2897310D01*
Y-135770D01*
G01X-3186090Y-223590D02*
Y-283590D01*
X-3076110D01*
Y-223590D01*
X-3186090D01*
G01X-2490530Y-2637100D02*
Y-2812100D01*
X-2585530D01*
Y-2637100D01*
X-2490530D01*
G01X-2607350Y-3187100D02*
Y-3012100D01*
X-2512350D01*
Y-3187100D01*
X-2607350D01*
G01X-2468460Y-2412100D02*
X-2563460D01*
G01X-2552690Y-2088100D02*
Y-1913100D01*
X-2457690D01*
Y-2088100D01*
X-2552690D01*
G01X-2492020Y-433100D02*
Y-608100D01*
X-2587020D01*
Y-433100D01*
X-2492020D01*
G01X-2713830Y-164600D02*
X-2538830D01*
Y-259600D01*
X-2713830D01*
Y-164600D01*
G01X-2415640Y982720D02*
Y1042720D01*
X-2525620D01*
Y982720D01*
X-2415640D01*
G01Y1123090D02*
Y1183090D01*
X-2525620D01*
Y1123090D01*
X-2415640D01*
G01X-1732800Y-3947600D02*
Y-3772600D01*
X-1637800D01*
Y-3947600D01*
X-1732800D01*
G01X-2035040Y-3762530D02*
X-1860040D01*
Y-3857530D01*
X-2035040D01*
Y-3762530D01*
G01X-2019070Y-3332140D02*
G03I-40060J0D01*
G01X-823230Y-3497740D02*
X-2164830D01*
X-2223230Y-3439340D01*
Y-2097740D01*
X-823230D01*
Y-3497740D01*
G01X-1883430Y-1801780D02*
X-1708430D01*
Y-1896780D01*
X-1883430D01*
G01X-2219110Y-1607100D02*
Y-1432100D01*
X-2124110D01*
Y-1607100D01*
X-2219110D01*
G01X-1736240Y-1428350D02*
X-1561240D01*
Y-1523350D01*
X-1736240D01*
Y-1428350D01*
G01X-2022490Y434150D02*
X-2197490D01*
Y529150D01*
X-2022490D01*
Y434150D01*
G01X-1532760Y-3983100D02*
Y-3808100D01*
X-1437760D01*
Y-3983100D01*
X-1532760D01*
G01X-1049890Y-3893100D02*
X-1224890D01*
Y-3798100D01*
X-1049890D01*
Y-3893100D01*
G01X-1650230Y-2897860D02*
X-1559210D01*
X-1540160Y-2891430D01*
X-1527460Y-2878570D01*
X-1523230Y-2862490D01*
X-1527460Y-2846400D01*
X-1540160Y-2833540D01*
X-1559210Y-2827110D01*
X-1650230D01*
G01X-1548630Y-2768380D02*
X-1533810Y-2758740D01*
X-1525350Y-2745870D01*
X-1523230Y-2731400D01*
X-1525350Y-2718530D01*
X-1535930Y-2705660D01*
X-1548630Y-2697630D01*
X-1561330Y-2696020D01*
X-1576140Y-2699230D01*
X-1586730Y-2710490D01*
X-1590960Y-2721750D01*
Y-2736220D01*
G01Y-2721750D02*
X-1597310Y-2712100D01*
X-1607890Y-2704060D01*
X-1620600Y-2700840D01*
X-1633300Y-2704060D01*
X-1643880Y-2712100D01*
X-1650230Y-2726570D01*
X-1648110Y-2741050D01*
X-1639650Y-2755520D01*
G01X-1112500Y-1847500D02*
X-1287500D01*
Y-1752500D01*
X-1112500D01*
Y-1847500D01*
G01X-1408090Y-1624600D02*
Y-1799600D01*
X-1503090D01*
Y-1624600D01*
X-1408090D01*
G01X-1300930Y470080D02*
X-1475930D01*
Y565080D01*
X-1300930D01*
Y470080D01*
G01X-598220Y-1279590D02*
Y-1219590D01*
X-708200D01*
Y-1279590D01*
X-598220D01*
G01X-545420Y-3623280D02*
Y-3448280D01*
X-450420D01*
Y-3623280D01*
X-545420D01*
G01X-33620Y-3403370D02*
Y-3463370D01*
X76360D01*
Y-3403370D01*
X-33620D01*
G01X-494170Y-3288100D02*
Y-3113100D01*
X-399170D01*
Y-3288100D01*
X-494170D01*
G01X-328550Y-2786780D02*
Y-2961780D01*
X-423550D01*
Y-2786780D01*
X-328550D01*
G01X-397000Y-2286990D02*
X-477000D01*
Y-2447010D01*
X-397000D01*
Y-2286990D01*
G01X-393900Y-2137280D02*
X-568900D01*
Y-2042280D01*
X-393900D01*
Y-2137280D01*
G01X-296030Y-1444590D02*
Y-1504590D01*
X-186050D01*
Y-1444590D01*
X-296030D01*
G01X-307870Y-677600D02*
Y-502600D01*
X-212870D01*
Y-677600D01*
X-307870D01*
G01X-445360Y-483340D02*
X-441550Y-478260D01*
X-439010Y-472330D01*
Y-465560D01*
X-442820Y-457940D01*
X-449170Y-452010D01*
X-456790Y-447780D01*
X-469490Y-444390D01*
X-480920Y-443540D01*
X-492350Y-445240D01*
X-499970Y-447780D01*
X-507590Y-452860D01*
X-512670Y-458780D01*
X-515210Y-464710D01*
Y-470640D01*
X-512670Y-476560D01*
X-508860Y-481640D01*
X-503780Y-485880D01*
G01X-515210Y-528210D02*
X-439010D01*
X-454250Y-518050D01*
G01X-515210D02*
Y-538370D01*
G01X-439010Y-591710D02*
X-441550Y-584940D01*
X-447900Y-579860D01*
X-455520Y-576470D01*
X-465680Y-573930D01*
X-477110Y-573080D01*
X-488540Y-573930D01*
X-498700Y-576470D01*
X-506320Y-579860D01*
X-512670Y-584940D01*
X-515210Y-591710D01*
X-512670Y-598480D01*
X-506320Y-603560D01*
X-498700Y-606950D01*
X-488540Y-609490D01*
X-477110Y-610340D01*
X-465680Y-609490D01*
X-455520Y-606950D01*
X-447900Y-603560D01*
X-441550Y-598480D01*
X-439010Y-591710D01*
G01X-388490Y-704000D02*
Y-504000D01*
X-513510D01*
Y-704000D01*
X-388490D01*
G01X-403500Y-70500D02*
Y-245500D01*
X-498500D01*
Y-70500D01*
X-403500D01*
G01X431860Y-3403870D02*
Y-3463870D01*
X541840D01*
Y-3403870D01*
X431860D01*
G01X104930Y-2884600D02*
Y-2964600D01*
X264950D01*
Y-2884600D01*
X104930D01*
G01X30670Y-2670100D02*
X26730Y-2675940D01*
X24110Y-2682760D01*
Y-2690550D01*
X28050Y-2699310D01*
X34610Y-2706120D01*
X42480Y-2710990D01*
X55610Y-2714890D01*
X67420Y-2715860D01*
X79230Y-2713910D01*
X87100Y-2710990D01*
X94980Y-2705150D01*
X100230Y-2698340D01*
X102850Y-2691520D01*
Y-2684700D01*
X100230Y-2677890D01*
X96290Y-2672050D01*
X91040Y-2667180D01*
G01X102850Y-2601100D02*
X24110D01*
X80540Y-2637120D01*
Y-2588440D01*
G01X91040Y-2555460D02*
X97600Y-2549620D01*
X101540Y-2542800D01*
X102850Y-2534040D01*
X100230Y-2525280D01*
X94980Y-2518460D01*
X85790Y-2513590D01*
X75290Y-2512620D01*
X64790Y-2514570D01*
X58230Y-2519440D01*
X52980Y-2526250D01*
X51670Y-2533070D01*
X52980Y-2539880D01*
X58230Y-2548640D01*
X24110Y-2545720D01*
Y-2519440D01*
G01X160340Y-1504590D02*
Y-1444590D01*
X50360D01*
Y-1504590D01*
X160340D01*
G01X94990Y-697000D02*
Y-777000D01*
X255010D01*
Y-697000D01*
X94990D01*
G01X526510Y1400000D02*
Y1480000D01*
X366490D01*
Y1400000D01*
X526510D01*
G01X148990Y1706000D02*
Y1626000D01*
X309010D01*
Y1706000D01*
X148990D01*
G01Y2059500D02*
Y1979500D01*
X309010D01*
Y2059500D01*
X148990D01*
G01Y2226000D02*
Y2146000D01*
X309010D01*
Y2226000D01*
X148990D01*
G01Y1847500D02*
Y1767500D01*
X309010D01*
Y1847500D01*
X148990D01*
G01X934620Y-3403370D02*
Y-3463370D01*
X1044600D01*
Y-3403370D01*
X934620D01*
G01X849800Y-2789100D02*
Y-2869100D01*
X1009820D01*
Y-2789100D01*
X849800D01*
G01X681990Y-468000D02*
Y-548000D01*
X842010D01*
Y-468000D01*
X681990D01*
G01X1002500Y1240490D02*
X1082500D01*
Y1400510D01*
X1002500D01*
Y1240490D01*
G01X728990Y1473500D02*
Y1393500D01*
X889010D01*
Y1473500D01*
X728990D01*
G01X810490Y1944500D02*
Y1864500D01*
X970510D01*
Y1944500D01*
X810490D01*
G01Y2136000D02*
Y2056000D01*
X970510D01*
Y2136000D01*
X810490D01*
G01X975510Y1675500D02*
Y1755500D01*
X815490D01*
Y1675500D01*
X975510D01*
G01X1462490Y-3415870D02*
Y-3475870D01*
X1572470D01*
Y-3415870D01*
X1462490D01*
G01X1335170Y-2789100D02*
Y-2869100D01*
X1495190D01*
Y-2789100D01*
X1335170D01*
G01X1395540Y-2351600D02*
Y-2431600D01*
X1555560D01*
Y-2351600D01*
X1395540D01*
G01X1128500Y-2399990D02*
X1188500D01*
Y-2290010D01*
X1128500D01*
Y-2399990D01*
G01X1236500Y1400510D02*
X1156500D01*
Y1240490D01*
X1236500D01*
Y1400510D01*
G01X1425010Y2046000D02*
Y2126000D01*
X1264990D01*
Y2046000D01*
X1425010D01*
G01Y1854500D02*
Y1934500D01*
X1264990D01*
Y1854500D01*
X1425010D01*
G01X1260990Y1751500D02*
Y1671500D01*
X1421010D01*
Y1751500D01*
X1260990D01*
G01X1513500Y2283490D02*
X1593500D01*
Y2443510D01*
X1513500D01*
Y2283490D01*
G01X1943650Y-3389020D02*
Y-3449020D01*
X2053630D01*
Y-3389020D01*
X1943650D01*
G01X1907330Y-2792430D02*
Y-2872430D01*
X2067350D01*
Y-2792430D01*
X1907330D01*
G01X2202500Y-1719500D02*
Y-1894500D01*
X2107500D01*
Y-1719500D01*
X2202500D01*
G01X1988010Y1204000D02*
Y1284000D01*
X1827990D01*
Y1204000D01*
X1988010D01*
G01X1810500Y1380490D02*
X2010500D01*
Y1505510D01*
X1810500D01*
Y1380490D01*
G01X2031160Y1437360D02*
X2036240Y1433550D01*
X2042170Y1431010D01*
X2048940D01*
X2056560Y1434820D01*
X2062490Y1441170D01*
X2066720Y1448790D01*
X2070110Y1461490D01*
X2070960Y1472920D01*
X2069260Y1484350D01*
X2066720Y1491970D01*
X2061640Y1499590D01*
X2055720Y1504670D01*
X2049790Y1507210D01*
X2043860D01*
X2037940Y1504670D01*
X2032860Y1500860D01*
X2028620Y1495780D01*
G01X2004920Y1491970D02*
X1999840Y1500860D01*
X1993060Y1505940D01*
X1985440Y1507210D01*
X1978670Y1505940D01*
X1971900Y1499590D01*
X1967660Y1491970D01*
X1966820Y1484350D01*
X1968510Y1475460D01*
X1974440Y1469110D01*
X1980360Y1466570D01*
X1987980D01*
G01X1980360D02*
X1975280Y1462760D01*
X1971050Y1456410D01*
X1969360Y1448790D01*
X1971050Y1441170D01*
X1975280Y1434820D01*
X1982900Y1431010D01*
X1990520Y1432280D01*
X1998140Y1437360D01*
G01X1922790Y1507210D02*
X1916860Y1505940D01*
X1910090Y1502130D01*
X1905860Y1495780D01*
X1904160Y1486890D01*
X1905860Y1478000D01*
X1910940Y1470380D01*
X1918560Y1466570D01*
X1927020D01*
X1932100Y1464030D01*
X1936340Y1457680D01*
X1938030Y1448790D01*
X1935490Y1439900D01*
X1929560Y1433550D01*
X1922790Y1431010D01*
X1916020Y1433550D01*
X1910090Y1439900D01*
X1907550Y1448790D01*
X1909240Y1457680D01*
X1913480Y1464030D01*
X1918560Y1466570D01*
X1927020D01*
X1934640Y1470380D01*
X1939720Y1478000D01*
X1941420Y1486890D01*
X1939720Y1495780D01*
X1935490Y1502130D01*
X1928720Y1505940D01*
X1922790Y1507210D01*
G01X2443100Y-3381190D02*
Y-3441190D01*
X2553080D01*
Y-3381190D01*
X2443100D01*
G01X2343410Y-2801600D02*
Y-2881600D01*
X2503430D01*
Y-2801600D01*
X2343410D01*
G01X2660890Y440400D02*
X2485890D01*
Y535400D01*
X2660890D01*
Y440400D01*
G01X2636500Y235010D02*
X2556500D01*
Y74990D01*
X2636500D01*
Y235010D01*
G01X2640500Y824010D02*
X2560500D01*
Y663990D01*
X2640500D01*
Y824010D01*
G01X2428020Y1862900D02*
Y2037900D01*
X2523020D01*
Y1862900D01*
X2428020D01*
G01X2977250Y-3352370D02*
Y-3412370D01*
X3087230D01*
Y-3352370D01*
X2977250D01*
G01X3308130Y375410D02*
X3304190Y369570D01*
X3301570Y362750D01*
Y354960D01*
X3305510Y346200D01*
X3312070Y339390D01*
X3319940Y334520D01*
X3333070Y330620D01*
X3344880Y329650D01*
X3356690Y331600D01*
X3364560Y334520D01*
X3372440Y340360D01*
X3377690Y347170D01*
X3380310Y353990D01*
Y360810D01*
X3377690Y367620D01*
X3373750Y373460D01*
X3368500Y378330D01*
G01X3380310Y444410D02*
X3301570D01*
X3358000Y408390D01*
Y457070D01*
G01X3380310Y523150D02*
X3301570D01*
X3358000Y487130D01*
Y535810D01*
G01X3311000Y925990D02*
X3251000D01*
Y816010D01*
X3311000D01*
Y925990D01*
G01X3162500Y600510D02*
X3222500D01*
Y710490D01*
X3162500D01*
Y600510D01*
G01X2752710Y2554000D02*
Y2617500D01*
X2770320Y2564580D01*
X2787930Y2617500D01*
Y2554000D01*
G01X2811980D02*
Y2617500D01*
G01X2840420D02*
Y2554000D01*
G01Y2585750D02*
X2811980D01*
G01X2882080Y2554000D02*
X2876660Y2555060D01*
X2871920Y2559290D01*
X2867860Y2565640D01*
X2865150Y2573050D01*
X2863790Y2581520D01*
Y2589980D01*
X2865150Y2598450D01*
X2867860Y2605860D01*
X2871920Y2612210D01*
X2876660Y2616440D01*
X2882080Y2617500D01*
X2887500Y2616440D01*
X2892240Y2612210D01*
X2896300Y2605860D01*
X2899010Y2598450D01*
X2900370Y2589980D01*
Y2581520D01*
X2899010Y2573050D01*
X2896300Y2565640D01*
X2892240Y2559290D01*
X2887500Y2555060D01*
X2882080Y2554000D01*
G01X2924410Y2617500D02*
Y2554000D01*
X2951510D01*
G01X3007390D02*
X2980290D01*
Y2617500D01*
X3007390D01*
G01X2996550Y2586810D02*
X2980290D01*
G01X3057850Y2554000D02*
Y2617500D01*
X3032790Y2571990D01*
X3066650D01*
G01X3802710Y-2846000D02*
Y-2782500D01*
X3820320Y-2835420D01*
X3837930Y-2782500D01*
Y-2846000D01*
G01X3861980D02*
Y-2782500D01*
G01X3890420D02*
Y-2846000D01*
G01Y-2814250D02*
X3861980D01*
G01X3932080Y-2846000D02*
X3926660Y-2844940D01*
X3921920Y-2840710D01*
X3917860Y-2834360D01*
X3915150Y-2826950D01*
X3913790Y-2818480D01*
Y-2810020D01*
X3915150Y-2801550D01*
X3917860Y-2794140D01*
X3921920Y-2787790D01*
X3926660Y-2783560D01*
X3932080Y-2782500D01*
X3937500Y-2783560D01*
X3942240Y-2787790D01*
X3946300Y-2794140D01*
X3949010Y-2801550D01*
X3950370Y-2810020D01*
Y-2818480D01*
X3949010Y-2826950D01*
X3946300Y-2834360D01*
X3942240Y-2840710D01*
X3937500Y-2844940D01*
X3932080Y-2846000D01*
G01X3974410Y-2782500D02*
Y-2846000D01*
X4001510D01*
G01X4057390D02*
X4030290D01*
Y-2782500D01*
X4057390D01*
G01X4046550Y-2813190D02*
X4030290D01*
G01X4086850Y-2793080D02*
X4090910Y-2786730D01*
X4095660Y-2783560D01*
X4101070Y-2782500D01*
X4107850Y-2784620D01*
X4112590Y-2789910D01*
X4113940Y-2796260D01*
X4113270Y-2802610D01*
X4110560Y-2807900D01*
X4097010Y-2818480D01*
X4090910Y-2825890D01*
X4086850Y-2836480D01*
X4085500Y-2846000D01*
X4113940D01*
G01X3321250Y-1984500D02*
X3496250D01*
Y-2079500D01*
X3321250D01*
Y-1984500D01*
G01X3633150Y1044890D02*
X3638990Y1040950D01*
X3645810Y1038330D01*
X3653600D01*
X3662360Y1042270D01*
X3669170Y1048830D01*
X3674040Y1056700D01*
X3677940Y1069830D01*
X3678910Y1081640D01*
X3676960Y1093450D01*
X3674040Y1101320D01*
X3668200Y1109200D01*
X3661390Y1114450D01*
X3654570Y1117070D01*
X3647750D01*
X3640940Y1114450D01*
X3635100Y1110510D01*
X3630230Y1105260D01*
G01X3564150Y1117070D02*
Y1038330D01*
X3600170Y1094760D01*
X3551490D01*
G01X3518510Y1101320D02*
X3512670Y1110510D01*
X3504880Y1115760D01*
X3496120Y1117070D01*
X3488330Y1115760D01*
X3480540Y1109200D01*
X3475670Y1101320D01*
X3474700Y1093450D01*
X3476640Y1084260D01*
X3483460Y1077700D01*
X3490270Y1075070D01*
X3499040D01*
G01X3490270D02*
X3484430Y1071140D01*
X3479560Y1064580D01*
X3477620Y1056700D01*
X3479560Y1048830D01*
X3484430Y1042270D01*
X3493200Y1038330D01*
X3501960Y1039640D01*
X3510720Y1044890D01*
G54D17*
G01X237550Y-2479180D02*
X417530D01*
Y-2789160D01*
X237550D01*
Y-2479180D01*
G54D18*
G01X-4708490Y293490D02*
X-4868510D01*
Y-26490D01*
X-4708490D01*
Y293490D01*
G01X-4629970Y929060D02*
Y852860D01*
X-4651130D01*
X-4657910Y856670D01*
X-4662140Y861750D01*
X-4663830Y871910D01*
X-4662140Y882070D01*
X-4657060Y888420D01*
X-4651130Y892230D01*
X-4629970D01*
G01X-4651130D02*
X-4663830Y929060D01*
G01X-4712890D02*
X-4718820Y927790D01*
X-4725590Y923980D01*
X-4729820Y917630D01*
X-4731520Y908740D01*
X-4729820Y899850D01*
X-4724740Y892230D01*
X-4717120Y888420D01*
X-4708660D01*
X-4703580Y885880D01*
X-4699340Y879530D01*
X-4697650Y870640D01*
X-4700190Y861750D01*
X-4706120Y855400D01*
X-4712890Y852860D01*
X-4719660Y855400D01*
X-4725590Y861750D01*
X-4728130Y870640D01*
X-4726440Y879530D01*
X-4722200Y885880D01*
X-4717120Y888420D01*
X-4708660D01*
X-4701040Y892230D01*
X-4695960Y899850D01*
X-4694260Y908740D01*
X-4695960Y917630D01*
X-4700190Y923980D01*
X-4706960Y927790D01*
X-4712890Y929060D01*
G01X-4668040Y671230D02*
Y595030D01*
X-4689200D01*
X-4695980Y598840D01*
X-4700210Y603920D01*
X-4701900Y614080D01*
X-4700210Y624240D01*
X-4695130Y630590D01*
X-4689200Y634400D01*
X-4668040D01*
G01X-4689200D02*
X-4701900Y671230D01*
G01X-4734870Y639480D02*
X-4740800Y630590D01*
X-4745880Y625510D01*
X-4752650Y622970D01*
X-4758580Y625510D01*
X-4762810Y630590D01*
X-4766200Y638210D01*
X-4767050Y647100D01*
X-4766200Y654720D01*
X-4762810Y662340D01*
X-4757730Y668690D01*
X-4751810Y671230D01*
X-4745030Y668690D01*
X-4739110Y661070D01*
X-4735720Y649640D01*
X-4734870Y636940D01*
X-4736570Y620430D01*
X-4739110Y611540D01*
X-4743340Y602650D01*
X-4749270Y596300D01*
X-4755190Y595030D01*
X-4761120Y597570D01*
X-4765350Y603920D01*
G01X-4782110Y1551290D02*
X-4705910D01*
Y1530130D01*
X-4709720Y1523350D01*
X-4714800Y1519120D01*
X-4724960Y1517430D01*
X-4735120Y1519120D01*
X-4741470Y1524200D01*
X-4745280Y1530130D01*
Y1551290D01*
G01Y1530130D02*
X-4782110Y1517430D01*
G01Y1468370D02*
X-4705910D01*
X-4721150Y1478530D01*
G01X-4782110D02*
Y1458210D01*
G01X-4705910Y1402380D02*
X-4708450Y1409150D01*
X-4714800Y1414230D01*
X-4722420Y1417620D01*
X-4732580Y1420160D01*
X-4744010Y1421010D01*
X-4755440Y1420160D01*
X-4765600Y1417620D01*
X-4773220Y1414230D01*
X-4779570Y1409150D01*
X-4782110Y1402380D01*
X-4779570Y1395610D01*
X-4773220Y1390530D01*
X-4765600Y1387140D01*
X-4755440Y1384600D01*
X-4744010Y1383750D01*
X-4732580Y1384600D01*
X-4722420Y1387140D01*
X-4714800Y1390530D01*
X-4708450Y1395610D01*
X-4705910Y1402380D01*
G01X-4623600Y1266310D02*
Y1190110D01*
X-4644760D01*
X-4651540Y1193920D01*
X-4655770Y1199000D01*
X-4657460Y1209160D01*
X-4655770Y1219320D01*
X-4650690Y1225670D01*
X-4644760Y1229480D01*
X-4623600D01*
G01X-4644760D02*
X-4657460Y1266310D01*
G01X-4692130Y1257420D02*
X-4698050Y1263770D01*
X-4704830Y1266310D01*
X-4711600Y1263770D01*
X-4717530Y1256150D01*
X-4721760Y1244720D01*
X-4723450Y1233290D01*
Y1219320D01*
X-4721760Y1207890D01*
X-4717530Y1197730D01*
X-4712450Y1192650D01*
X-4706520Y1190110D01*
X-4699750Y1192650D01*
X-4694670Y1197730D01*
X-4691280Y1205350D01*
X-4689590Y1215510D01*
X-4691280Y1224400D01*
X-4695510Y1233290D01*
X-4700590Y1238370D01*
X-4706520Y1239640D01*
X-4713290Y1237100D01*
X-4718370Y1230750D01*
X-4723450Y1219320D01*
G01X-3847490Y-978690D02*
X-3881780D01*
X-3923690Y-995620D01*
G01Y-961760D02*
X-3881780Y-978690D01*
G01X-3910990Y-928790D02*
X-3918610Y-923710D01*
X-3922420Y-917780D01*
X-3923690Y-911010D01*
X-3921150Y-902540D01*
X-3914800Y-896610D01*
X-3907180Y-894920D01*
X-3899560Y-895770D01*
X-3893210Y-899150D01*
X-3880510Y-916090D01*
X-3871620Y-923710D01*
X-3858920Y-928790D01*
X-3847490Y-930480D01*
Y-894920D01*
G01X-3450540Y1765400D02*
X-3445460Y1761590D01*
X-3439530Y1759050D01*
X-3432760D01*
X-3425140Y1762860D01*
X-3419210Y1769210D01*
X-3414980Y1776830D01*
X-3411590Y1789530D01*
X-3410740Y1800960D01*
X-3412440Y1812390D01*
X-3414980Y1820010D01*
X-3420060Y1827630D01*
X-3425980Y1832710D01*
X-3431910Y1835250D01*
X-3437840D01*
X-3443760Y1832710D01*
X-3448840Y1828900D01*
X-3453080Y1823820D01*
G01X-3497900Y1835250D02*
X-3491130Y1833980D01*
X-3485200Y1828900D01*
X-3480120Y1821280D01*
X-3476730Y1812390D01*
X-3475040Y1802230D01*
Y1792070D01*
X-3476730Y1781910D01*
X-3480120Y1773020D01*
X-3485200Y1765400D01*
X-3491130Y1760320D01*
X-3497900Y1759050D01*
X-3504670Y1760320D01*
X-3510600Y1765400D01*
X-3515680Y1773020D01*
X-3519070Y1781910D01*
X-3520760Y1792070D01*
Y1802230D01*
X-3519070Y1812390D01*
X-3515680Y1821280D01*
X-3510600Y1828900D01*
X-3504670Y1833980D01*
X-3497900Y1835250D01*
G01X-3544420D02*
Y1759050D01*
X-3583360Y1835250D01*
Y1759050D01*
G01X-3613790Y1771750D02*
X-3618870Y1764130D01*
X-3624800Y1760320D01*
X-3631570Y1759050D01*
X-3640040Y1761590D01*
X-3645970Y1767940D01*
X-3647660Y1775560D01*
X-3646810Y1783180D01*
X-3643430Y1789530D01*
X-3626490Y1802230D01*
X-3618870Y1811120D01*
X-3613790Y1823820D01*
X-3612100Y1835250D01*
X-3647660D01*
G01X-472200Y-2318570D02*
X-396000D01*
Y-2339730D01*
X-399810Y-2346510D01*
X-404890Y-2350740D01*
X-415050Y-2352430D01*
X-425210Y-2350740D01*
X-431560Y-2345660D01*
X-435370Y-2339730D01*
Y-2318570D01*
G01Y-2339730D02*
X-472200Y-2352430D01*
G01Y-2401490D02*
X-396000D01*
X-411240Y-2391330D01*
G01X-472200D02*
Y-2411650D01*
G01X-460770Y-2448850D02*
X-467120Y-2453930D01*
X-470930Y-2459860D01*
X-472200Y-2467480D01*
X-469660Y-2475100D01*
X-464580Y-2481030D01*
X-455690Y-2485260D01*
X-445530Y-2486110D01*
X-435370Y-2484410D01*
X-429020Y-2480180D01*
X-423940Y-2474250D01*
X-422670Y-2468330D01*
X-423940Y-2462400D01*
X-429020Y-2454780D01*
X-396000Y-2457320D01*
Y-2480180D01*
G01X-88900Y-1206500D02*
Y-1240790D01*
X-71970Y-1282700D01*
G01X-105830D02*
X-88900Y-1240790D01*
G01X-154890Y-1206500D02*
Y-1282700D01*
X-144730Y-1267460D01*
G01Y-1206500D02*
X-165050D01*
G01X283340Y-2687390D02*
X337950D01*
X349380Y-2684000D01*
X357000Y-2677230D01*
X359540Y-2668760D01*
X357000Y-2660290D01*
X349380Y-2653520D01*
X337950Y-2650130D01*
X283340D01*
G01X350650Y-2617160D02*
X357000Y-2611240D01*
X359540Y-2604460D01*
X357000Y-2597690D01*
X349380Y-2591760D01*
X337950Y-2587530D01*
X326520Y-2585840D01*
X312550D01*
X301120Y-2587530D01*
X290960Y-2591760D01*
X285880Y-2596840D01*
X283340Y-2602770D01*
X285880Y-2609540D01*
X290960Y-2614620D01*
X298580Y-2618010D01*
X308740Y-2619700D01*
X317630Y-2618010D01*
X326520Y-2613780D01*
X331600Y-2608700D01*
X332870Y-2602770D01*
X330330Y-2596000D01*
X323980Y-2590920D01*
X312550Y-2585840D01*
G01X126570Y-772200D02*
Y-696000D01*
X147730D01*
X154510Y-699810D01*
X158740Y-704890D01*
X160430Y-715050D01*
X158740Y-725210D01*
X153660Y-731560D01*
X147730Y-735370D01*
X126570D01*
G01X147730D02*
X160430Y-772200D01*
G01X193400Y-708700D02*
X198480Y-701080D01*
X204410Y-697270D01*
X211180Y-696000D01*
X219650Y-698540D01*
X225580Y-704890D01*
X227270Y-712510D01*
X226420Y-720130D01*
X223040Y-726480D01*
X206100Y-739180D01*
X198480Y-748070D01*
X193400Y-760770D01*
X191710Y-772200D01*
X227270D01*
G01X256850Y-756960D02*
X261930Y-765850D01*
X268710Y-770930D01*
X276330Y-772200D01*
X283100Y-770930D01*
X289870Y-764580D01*
X294110Y-756960D01*
X294950Y-749340D01*
X293260Y-740450D01*
X287330Y-734100D01*
X281410Y-731560D01*
X273790D01*
G01X281410D02*
X286490Y-727750D01*
X290720Y-721400D01*
X292410Y-713780D01*
X290720Y-706160D01*
X286490Y-699810D01*
X278870Y-696000D01*
X271250Y-697270D01*
X263630Y-702350D01*
G01X494930Y1475200D02*
Y1399000D01*
X473770D01*
X466990Y1402810D01*
X462760Y1407890D01*
X461070Y1418050D01*
X462760Y1428210D01*
X467840Y1434560D01*
X473770Y1438370D01*
X494930D01*
G01X473770D02*
X461070Y1475200D01*
G01X428100Y1411700D02*
X423020Y1404080D01*
X417090Y1400270D01*
X410320Y1399000D01*
X401850Y1401540D01*
X395920Y1407890D01*
X394230Y1415510D01*
X395080Y1423130D01*
X398460Y1429480D01*
X415400Y1442180D01*
X423020Y1451070D01*
X428100Y1463770D01*
X429790Y1475200D01*
X394230D01*
G01X346020D02*
Y1399000D01*
X356180Y1414240D01*
G01Y1475200D02*
X335860D01*
G01X180570Y1630800D02*
Y1707000D01*
X201730D01*
X208510Y1703190D01*
X212740Y1698110D01*
X214430Y1687950D01*
X212740Y1677790D01*
X207660Y1671440D01*
X201730Y1667630D01*
X180570D01*
G01X201730D02*
X214430Y1630800D01*
G01X263490D02*
Y1707000D01*
X253330Y1691760D01*
G01Y1630800D02*
X273650D01*
G01X327790D02*
X329480Y1647310D01*
X332020Y1661280D01*
X335410Y1673980D01*
X339640Y1687950D01*
X346410Y1707000D01*
X312550D01*
G01X180570Y1984300D02*
Y2060500D01*
X201730D01*
X208510Y2056690D01*
X212740Y2051610D01*
X214430Y2041450D01*
X212740Y2031290D01*
X207660Y2024940D01*
X201730Y2021130D01*
X180570D01*
G01X201730D02*
X214430Y1984300D01*
G01X244860Y1999540D02*
X249940Y1990650D01*
X256720Y1985570D01*
X264340Y1984300D01*
X271110Y1985570D01*
X277880Y1991920D01*
X282120Y1999540D01*
X282960Y2007160D01*
X281270Y2016050D01*
X275340Y2022400D01*
X269420Y2024940D01*
X261800D01*
G01X269420D02*
X274500Y2028750D01*
X278730Y2035100D01*
X280420Y2042720D01*
X278730Y2050340D01*
X274500Y2056690D01*
X266880Y2060500D01*
X259260Y2059230D01*
X251640Y2054150D01*
G01X329480Y1984300D02*
Y2060500D01*
X319320Y2045260D01*
G01Y1984300D02*
X339640D01*
G01X180570Y2150800D02*
Y2227000D01*
X201730D01*
X208510Y2223190D01*
X212740Y2218110D01*
X214430Y2207950D01*
X212740Y2197790D01*
X207660Y2191440D01*
X201730Y2187630D01*
X180570D01*
G01X201730D02*
X214430Y2150800D01*
G01X247400Y2214300D02*
X252480Y2221920D01*
X258410Y2225730D01*
X265180Y2227000D01*
X273650Y2224460D01*
X279580Y2218110D01*
X281270Y2210490D01*
X280420Y2202870D01*
X277040Y2196520D01*
X260100Y2183820D01*
X252480Y2174930D01*
X247400Y2162230D01*
X245710Y2150800D01*
X281270D01*
G01X315090Y2159690D02*
X321010Y2153340D01*
X327790Y2150800D01*
X334560Y2153340D01*
X340490Y2160960D01*
X344720Y2172390D01*
X346410Y2183820D01*
Y2197790D01*
X344720Y2209220D01*
X340490Y2219380D01*
X335410Y2224460D01*
X329480Y2227000D01*
X322710Y2224460D01*
X317630Y2219380D01*
X314240Y2211760D01*
X312550Y2201600D01*
X314240Y2192710D01*
X318470Y2183820D01*
X323550Y2178740D01*
X329480Y2177470D01*
X336250Y2180010D01*
X341330Y2186360D01*
X346410Y2197790D01*
G01X180570Y1772300D02*
Y1848500D01*
X201730D01*
X208510Y1844690D01*
X212740Y1839610D01*
X214430Y1829450D01*
X212740Y1819290D01*
X207660Y1812940D01*
X201730Y1809130D01*
X180570D01*
G01X201730D02*
X214430Y1772300D01*
G01X263490D02*
Y1848500D01*
X253330Y1833260D01*
G01Y1772300D02*
X273650D01*
G01X315090Y1781190D02*
X321010Y1774840D01*
X327790Y1772300D01*
X334560Y1774840D01*
X340490Y1782460D01*
X344720Y1793890D01*
X346410Y1805320D01*
Y1819290D01*
X344720Y1830720D01*
X340490Y1840880D01*
X335410Y1845960D01*
X329480Y1848500D01*
X322710Y1845960D01*
X317630Y1840880D01*
X314240Y1833260D01*
X312550Y1823100D01*
X314240Y1814210D01*
X318470Y1805320D01*
X323550Y1800240D01*
X329480Y1798970D01*
X336250Y1801510D01*
X341330Y1807860D01*
X346410Y1819290D01*
G01X713570Y-543200D02*
Y-467000D01*
X734730D01*
X741510Y-470810D01*
X745740Y-475890D01*
X747430Y-486050D01*
X745740Y-496210D01*
X740660Y-502560D01*
X734730Y-506370D01*
X713570D01*
G01X734730D02*
X747430Y-543200D01*
G01X796490D02*
Y-467000D01*
X786330Y-482240D01*
G01Y-543200D02*
X806650D01*
G01X862480D02*
X868410Y-541930D01*
X875180Y-538120D01*
X879410Y-531770D01*
X881110Y-522880D01*
X879410Y-513990D01*
X874330Y-506370D01*
X866710Y-502560D01*
X858250D01*
X853170Y-500020D01*
X848930Y-493670D01*
X847240Y-484780D01*
X849780Y-475890D01*
X855710Y-469540D01*
X862480Y-467000D01*
X869250Y-469540D01*
X875180Y-475890D01*
X877720Y-484780D01*
X876030Y-493670D01*
X871790Y-500020D01*
X866710Y-502560D01*
X858250D01*
X850630Y-506370D01*
X845550Y-513990D01*
X843850Y-522880D01*
X845550Y-531770D01*
X849780Y-538120D01*
X856550Y-541930D01*
X862480Y-543200D01*
G01X1077700Y1272070D02*
X1001500D01*
Y1293230D01*
X1005310Y1300010D01*
X1010390Y1304240D01*
X1020550Y1305930D01*
X1030710Y1304240D01*
X1037060Y1299160D01*
X1040870Y1293230D01*
Y1272070D01*
G01Y1293230D02*
X1077700Y1305930D01*
G01X1014200Y1338900D02*
X1006580Y1343980D01*
X1002770Y1349910D01*
X1001500Y1356680D01*
X1004040Y1365150D01*
X1010390Y1371080D01*
X1018010Y1372770D01*
X1025630Y1371920D01*
X1031980Y1368540D01*
X1044680Y1351600D01*
X1053570Y1343980D01*
X1066270Y1338900D01*
X1077700Y1337210D01*
Y1372770D01*
G01X1014200Y1404890D02*
X1006580Y1409970D01*
X1002770Y1415900D01*
X1001500Y1422670D01*
X1004040Y1431140D01*
X1010390Y1437070D01*
X1018010Y1438760D01*
X1025630Y1437910D01*
X1031980Y1434530D01*
X1044680Y1417590D01*
X1053570Y1409970D01*
X1066270Y1404890D01*
X1077700Y1403200D01*
Y1438760D01*
G01X760570Y1398300D02*
Y1474500D01*
X781730D01*
X788510Y1470690D01*
X792740Y1465610D01*
X794430Y1455450D01*
X792740Y1445290D01*
X787660Y1438940D01*
X781730Y1435130D01*
X760570D01*
G01X781730D02*
X794430Y1398300D01*
G01X827400Y1461800D02*
X832480Y1469420D01*
X838410Y1473230D01*
X845180Y1474500D01*
X853650Y1471960D01*
X859580Y1465610D01*
X861270Y1457990D01*
X860420Y1450370D01*
X857040Y1444020D01*
X840100Y1431320D01*
X832480Y1422430D01*
X827400Y1409730D01*
X825710Y1398300D01*
X861270D01*
G01X909480Y1474500D02*
X902710Y1471960D01*
X897630Y1465610D01*
X894240Y1457990D01*
X891700Y1447830D01*
X890850Y1436400D01*
X891700Y1424970D01*
X894240Y1414810D01*
X897630Y1407190D01*
X902710Y1400840D01*
X909480Y1398300D01*
X916250Y1400840D01*
X921330Y1407190D01*
X924720Y1414810D01*
X927260Y1424970D01*
X928110Y1436400D01*
X927260Y1447830D01*
X924720Y1457990D01*
X921330Y1465610D01*
X916250Y1471960D01*
X909480Y1474500D01*
G01X842070Y1869300D02*
Y1945500D01*
X863230D01*
X870010Y1941690D01*
X874240Y1936610D01*
X875930Y1926450D01*
X874240Y1916290D01*
X869160Y1909940D01*
X863230Y1906130D01*
X842070D01*
G01X863230D02*
X875930Y1869300D01*
G01X906360Y1884540D02*
X911440Y1875650D01*
X918220Y1870570D01*
X925840Y1869300D01*
X932610Y1870570D01*
X939380Y1876920D01*
X943620Y1884540D01*
X944460Y1892160D01*
X942770Y1901050D01*
X936840Y1907400D01*
X930920Y1909940D01*
X923300D01*
G01X930920D02*
X936000Y1913750D01*
X940230Y1920100D01*
X941920Y1927720D01*
X940230Y1935340D01*
X936000Y1941690D01*
X928380Y1945500D01*
X920760Y1944230D01*
X913140Y1939150D01*
G01X972350Y1880730D02*
X977430Y1874380D01*
X983360Y1870570D01*
X990980Y1869300D01*
X998600Y1871840D01*
X1004530Y1876920D01*
X1008760Y1885810D01*
X1009610Y1895970D01*
X1007910Y1906130D01*
X1003680Y1912480D01*
X997750Y1917560D01*
X991830Y1918830D01*
X985900Y1917560D01*
X978280Y1912480D01*
X980820Y1945500D01*
X1003680D01*
G01X842070Y2060800D02*
Y2137000D01*
X863230D01*
X870010Y2133190D01*
X874240Y2128110D01*
X875930Y2117950D01*
X874240Y2107790D01*
X869160Y2101440D01*
X863230Y2097630D01*
X842070D01*
G01X863230D02*
X875930Y2060800D01*
G01X906360Y2076040D02*
X911440Y2067150D01*
X918220Y2062070D01*
X925840Y2060800D01*
X932610Y2062070D01*
X939380Y2068420D01*
X943620Y2076040D01*
X944460Y2083660D01*
X942770Y2092550D01*
X936840Y2098900D01*
X930920Y2101440D01*
X923300D01*
G01X930920D02*
X936000Y2105250D01*
X940230Y2111600D01*
X941920Y2119220D01*
X940230Y2126840D01*
X936000Y2133190D01*
X928380Y2137000D01*
X920760Y2135730D01*
X913140Y2130650D01*
G01X1001140Y2060800D02*
Y2137000D01*
X969810Y2082390D01*
X1012150D01*
G01X943930Y1750700D02*
Y1674500D01*
X922770D01*
X915990Y1678310D01*
X911760Y1683390D01*
X910070Y1693550D01*
X911760Y1703710D01*
X916840Y1710060D01*
X922770Y1713870D01*
X943930D01*
G01X922770D02*
X910070Y1750700D01*
G01X877100Y1687200D02*
X872020Y1679580D01*
X866090Y1675770D01*
X859320Y1674500D01*
X850850Y1677040D01*
X844920Y1683390D01*
X843230Y1691010D01*
X844080Y1698630D01*
X847460Y1704980D01*
X864400Y1717680D01*
X872020Y1726570D01*
X877100Y1739270D01*
X878790Y1750700D01*
X843230D01*
G01X796710D02*
X795020Y1734190D01*
X792480Y1720220D01*
X789090Y1707520D01*
X784860Y1693550D01*
X778090Y1674500D01*
X811950D01*
G01X1161300Y1368930D02*
X1237500D01*
Y1347770D01*
X1233690Y1340990D01*
X1228610Y1336760D01*
X1218450Y1335070D01*
X1208290Y1336760D01*
X1201940Y1341840D01*
X1198130Y1347770D01*
Y1368930D01*
G01Y1347770D02*
X1161300Y1335070D01*
G01X1224800Y1302100D02*
X1232420Y1297020D01*
X1236230Y1291090D01*
X1237500Y1284320D01*
X1234960Y1275850D01*
X1228610Y1269920D01*
X1220990Y1268230D01*
X1213370Y1269080D01*
X1207020Y1272460D01*
X1194320Y1289400D01*
X1185430Y1297020D01*
X1172730Y1302100D01*
X1161300Y1303790D01*
Y1268230D01*
G01X1172730Y1238650D02*
X1166380Y1233570D01*
X1162570Y1227640D01*
X1161300Y1220020D01*
X1163840Y1212400D01*
X1168920Y1206470D01*
X1177810Y1202240D01*
X1187970Y1201390D01*
X1198130Y1203090D01*
X1204480Y1207320D01*
X1209560Y1213250D01*
X1210830Y1219170D01*
X1209560Y1225100D01*
X1204480Y1232720D01*
X1237500Y1230180D01*
Y1207320D01*
G01X1393430Y2121200D02*
Y2045000D01*
X1372270D01*
X1365490Y2048810D01*
X1361260Y2053890D01*
X1359570Y2064050D01*
X1361260Y2074210D01*
X1366340Y2080560D01*
X1372270Y2084370D01*
X1393430D01*
G01X1372270D02*
X1359570Y2121200D01*
G01X1329140Y2105960D02*
X1324060Y2114850D01*
X1317280Y2119930D01*
X1309660Y2121200D01*
X1302890Y2119930D01*
X1296120Y2113580D01*
X1291880Y2105960D01*
X1291040Y2098340D01*
X1292730Y2089450D01*
X1298660Y2083100D01*
X1304580Y2080560D01*
X1312200D01*
G01X1304580D02*
X1299500Y2076750D01*
X1295270Y2070400D01*
X1293580Y2062780D01*
X1295270Y2055160D01*
X1299500Y2048810D01*
X1307120Y2045000D01*
X1314740Y2046270D01*
X1322360Y2051350D01*
G01X1263150Y2105960D02*
X1258070Y2114850D01*
X1251290Y2119930D01*
X1243670Y2121200D01*
X1236900Y2119930D01*
X1230130Y2113580D01*
X1225890Y2105960D01*
X1225050Y2098340D01*
X1226740Y2089450D01*
X1232670Y2083100D01*
X1238590Y2080560D01*
X1246210D01*
G01X1238590D02*
X1233510Y2076750D01*
X1229280Y2070400D01*
X1227590Y2062780D01*
X1229280Y2055160D01*
X1233510Y2048810D01*
X1241130Y2045000D01*
X1248750Y2046270D01*
X1256370Y2051350D01*
G01X1393430Y1929700D02*
Y1853500D01*
X1372270D01*
X1365490Y1857310D01*
X1361260Y1862390D01*
X1359570Y1872550D01*
X1361260Y1882710D01*
X1366340Y1889060D01*
X1372270Y1892870D01*
X1393430D01*
G01X1372270D02*
X1359570Y1929700D01*
G01X1329140Y1914460D02*
X1324060Y1923350D01*
X1317280Y1928430D01*
X1309660Y1929700D01*
X1302890Y1928430D01*
X1296120Y1922080D01*
X1291880Y1914460D01*
X1291040Y1906840D01*
X1292730Y1897950D01*
X1298660Y1891600D01*
X1304580Y1889060D01*
X1312200D01*
G01X1304580D02*
X1299500Y1885250D01*
X1295270Y1878900D01*
X1293580Y1871280D01*
X1295270Y1863660D01*
X1299500Y1857310D01*
X1307120Y1853500D01*
X1314740Y1854770D01*
X1322360Y1859850D01*
G01X1260610Y1866200D02*
X1255530Y1858580D01*
X1249600Y1854770D01*
X1242830Y1853500D01*
X1234360Y1856040D01*
X1228430Y1862390D01*
X1226740Y1870010D01*
X1227590Y1877630D01*
X1230970Y1883980D01*
X1247910Y1896680D01*
X1255530Y1905570D01*
X1260610Y1918270D01*
X1262300Y1929700D01*
X1226740D01*
G01X1588700Y2315070D02*
X1512500D01*
Y2336230D01*
X1516310Y2343010D01*
X1521390Y2347240D01*
X1531550Y2348930D01*
X1541710Y2347240D01*
X1548060Y2342160D01*
X1551870Y2336230D01*
Y2315070D01*
G01Y2336230D02*
X1588700Y2348930D01*
G01X1525200Y2381900D02*
X1517580Y2386980D01*
X1513770Y2392910D01*
X1512500Y2399680D01*
X1515040Y2408150D01*
X1521390Y2414080D01*
X1529010Y2415770D01*
X1536630Y2414920D01*
X1542980Y2411540D01*
X1555680Y2394600D01*
X1564570Y2386980D01*
X1577270Y2381900D01*
X1588700Y2380210D01*
Y2415770D01*
G01Y2463980D02*
X1587430Y2469910D01*
X1583620Y2476680D01*
X1577270Y2480910D01*
X1568380Y2482610D01*
X1559490Y2480910D01*
X1551870Y2475830D01*
X1548060Y2468210D01*
Y2459750D01*
X1545520Y2454670D01*
X1539170Y2450430D01*
X1530280Y2448740D01*
X1521390Y2451280D01*
X1515040Y2457210D01*
X1512500Y2463980D01*
X1515040Y2470750D01*
X1521390Y2476680D01*
X1530280Y2479220D01*
X1539170Y2477530D01*
X1545520Y2473290D01*
X1548060Y2468210D01*
Y2459750D01*
X1551870Y2452130D01*
X1559490Y2447050D01*
X1568380Y2445350D01*
X1577270Y2447050D01*
X1583620Y2451280D01*
X1587430Y2458050D01*
X1588700Y2463980D01*
G01X1861570Y-634040D02*
X1866650Y-637850D01*
X1872580Y-640390D01*
X1879350D01*
X1886970Y-636580D01*
X1892900Y-630230D01*
X1897130Y-622610D01*
X1900520Y-609910D01*
X1901370Y-598480D01*
X1899670Y-587050D01*
X1897130Y-579430D01*
X1892050Y-571810D01*
X1886130Y-566730D01*
X1880200Y-564190D01*
X1874270D01*
X1868350Y-566730D01*
X1863270Y-570540D01*
X1859030Y-575620D01*
G01X1814210Y-564190D02*
X1820980Y-565460D01*
X1826910Y-570540D01*
X1831990Y-578160D01*
X1835380Y-587050D01*
X1837070Y-597210D01*
Y-607370D01*
X1835380Y-617530D01*
X1831990Y-626420D01*
X1826910Y-634040D01*
X1820980Y-639120D01*
X1814210Y-640390D01*
X1807440Y-639120D01*
X1801510Y-634040D01*
X1796430Y-626420D01*
X1793040Y-617530D01*
X1791350Y-607370D01*
Y-597210D01*
X1793040Y-587050D01*
X1796430Y-578160D01*
X1801510Y-570540D01*
X1807440Y-565460D01*
X1814210Y-564190D01*
G01X1767690D02*
Y-640390D01*
X1728750Y-564190D01*
Y-640390D01*
G01X1682230Y-564190D02*
Y-640390D01*
X1692390Y-625150D01*
G01Y-564190D02*
X1672070D01*
G01X1956430Y1279200D02*
Y1203000D01*
X1935270D01*
X1928490Y1206810D01*
X1924260Y1211890D01*
X1922570Y1222050D01*
X1924260Y1232210D01*
X1929340Y1238560D01*
X1935270Y1242370D01*
X1956430D01*
G01X1935270D02*
X1922570Y1279200D01*
G01X1892140Y1263960D02*
X1887060Y1272850D01*
X1880280Y1277930D01*
X1872660Y1279200D01*
X1865890Y1277930D01*
X1859120Y1271580D01*
X1854880Y1263960D01*
X1854040Y1256340D01*
X1855730Y1247450D01*
X1861660Y1241100D01*
X1867580Y1238560D01*
X1875200D01*
G01X1867580D02*
X1862500Y1234750D01*
X1858270Y1228400D01*
X1856580Y1220780D01*
X1858270Y1213160D01*
X1862500Y1206810D01*
X1870120Y1203000D01*
X1877740Y1204270D01*
X1885360Y1209350D01*
G01X1807520Y1203000D02*
X1814290Y1205540D01*
X1819370Y1211890D01*
X1822760Y1219510D01*
X1825300Y1229670D01*
X1826150Y1241100D01*
X1825300Y1252530D01*
X1822760Y1262690D01*
X1819370Y1270310D01*
X1814290Y1276660D01*
X1807520Y1279200D01*
X1800750Y1276660D01*
X1795670Y1270310D01*
X1792280Y1262690D01*
X1789740Y1252530D01*
X1788890Y1241100D01*
X1789740Y1229670D01*
X1792280Y1219510D01*
X1795670Y1211890D01*
X1800750Y1205540D01*
X1807520Y1203000D01*
G01X2561300Y203430D02*
X2637500D01*
Y182270D01*
X2633690Y175490D01*
X2628610Y171260D01*
X2618450Y169570D01*
X2608290Y171260D01*
X2601940Y176340D01*
X2598130Y182270D01*
Y203430D01*
G01Y182270D02*
X2561300Y169570D01*
G01X2624800Y136600D02*
X2632420Y131520D01*
X2636230Y125590D01*
X2637500Y118820D01*
X2634960Y110350D01*
X2628610Y104420D01*
X2620990Y102730D01*
X2613370Y103580D01*
X2607020Y106960D01*
X2594320Y123900D01*
X2585430Y131520D01*
X2572730Y136600D01*
X2561300Y138290D01*
Y102730D01*
G01Y44360D02*
X2637500D01*
X2582890Y75690D01*
Y33350D01*
G01X2565300Y792430D02*
X2641500D01*
Y771270D01*
X2637690Y764490D01*
X2632610Y760260D01*
X2622450Y758570D01*
X2612290Y760260D01*
X2605940Y765340D01*
X2602130Y771270D01*
Y792430D01*
G01Y771270D02*
X2565300Y758570D01*
G01Y709510D02*
X2641500D01*
X2626260Y719670D01*
G01X2565300D02*
Y699350D01*
G01X2597050Y659610D02*
X2605940Y653680D01*
X2611020Y648600D01*
X2613560Y641830D01*
X2611020Y635900D01*
X2605940Y631670D01*
X2598320Y628280D01*
X2589430Y627430D01*
X2581810Y628280D01*
X2574190Y631670D01*
X2567840Y636750D01*
X2565300Y642670D01*
X2567840Y649450D01*
X2575460Y655370D01*
X2586890Y658760D01*
X2599590Y659610D01*
X2616100Y657910D01*
X2624990Y655370D01*
X2633880Y651140D01*
X2640230Y645210D01*
X2641500Y639290D01*
X2638960Y633360D01*
X2632610Y629130D01*
G01X3433310Y-161520D02*
X3426960Y-168290D01*
X3423150Y-175910D01*
Y-182690D01*
X3426960Y-189460D01*
X3433310Y-194540D01*
X3442200Y-197080D01*
X3451090Y-195390D01*
X3458710Y-191150D01*
X3463790Y-183530D01*
X3466330Y-173370D01*
X3471410Y-167450D01*
X3480300Y-164910D01*
X3489190Y-166600D01*
X3495540Y-170830D01*
X3499350Y-176760D01*
Y-182690D01*
X3496810Y-188610D01*
X3490460Y-193690D01*
G01X3423150Y-245290D02*
X3499350D01*
X3484110Y-235130D01*
G01X3423150D02*
Y-255450D01*
G01X3662540Y2278000D02*
Y2201800D01*
X3642220D01*
X3635450Y2205610D01*
X3630370Y2214500D01*
X3628680Y2224660D01*
X3630370Y2234820D01*
X3634600Y2242440D01*
X3642220Y2246250D01*
X3662540D01*
G01X3579620Y2278000D02*
Y2201800D01*
X3589780Y2217040D01*
G01Y2278000D02*
X3569460D01*
G54D19*
G01X-4722170Y-2410860D02*
X-4862170D01*
Y-2110840D01*
X-4722170D01*
Y-2410860D01*
G01X-4804330Y-1106590D02*
X-4664330D01*
Y-1406610D01*
X-4804330D01*
Y-1106590D01*
G01X-4152980Y-2189600D02*
Y-2019620D01*
X-3852960D01*
Y-2189600D01*
X-4152980D01*
G01X-3298010Y-1520010D02*
Y-1019990D01*
X-2797990D01*
Y-1520010D01*
X-3298010D01*
G01X-403930Y-4125000D02*
Y-3490000D01*
X56070D01*
Y-4125000D01*
X-403930D01*
G01X-328920D02*
Y-4223990D01*
X-329940Y-4225000D01*
G03X-25920I152010J13210D01*
G01X-24930Y-4223990D01*
Y-4125000D01*
G01X82010Y-3324110D02*
X-57990D01*
Y-3024090D01*
X82010D01*
Y-3324110D01*
G01X-102000Y-554000D02*
Y46000D01*
X498000D01*
Y-554000D01*
X-102000D01*
G01X105000Y-4124510D02*
Y-3489510D01*
X565000D01*
Y-4124510D01*
X105000D01*
G01X180010D02*
Y-4223500D01*
X178990Y-4224510D01*
G03X483010I152010J13210D01*
G01X484000Y-4223500D01*
Y-4124510D01*
G01X551460Y-3329610D02*
X411460D01*
Y-3029590D01*
X551460D01*
Y-3329610D01*
G01X470000Y-1743000D02*
X813000D01*
Y-2378000D01*
X470000D01*
Y-1743000D01*
G01X614010Y-4124510D02*
Y-3489510D01*
X1074010D01*
Y-4124510D01*
X614010D01*
G01X689020D02*
Y-4223500D01*
X688000Y-4224510D01*
G03X992020I152010J13210D01*
G01X993010Y-4223500D01*
Y-4124510D01*
G01X999870Y-3242110D02*
X859870D01*
Y-2942090D01*
X999870D01*
Y-3242110D01*
G01X1123020Y-4124510D02*
Y-3489510D01*
X1583020D01*
Y-4124510D01*
X1123020D01*
G01X1198030D02*
Y-4223500D01*
X1197010Y-4224510D01*
G03X1501030I152010J13210D01*
G01X1502020Y-4223500D01*
Y-4124510D01*
G01X1632030D02*
Y-3489510D01*
X2092030D01*
Y-4124510D01*
X1632030D01*
G01X1503350Y-3246610D02*
X1363350D01*
Y-2946590D01*
X1503350D01*
Y-3246610D01*
G01X1707040Y-4124510D02*
Y-4223500D01*
X1706020Y-4224510D01*
G03X2010040I152010J13210D01*
G01X2011030Y-4223500D01*
Y-4124510D01*
G01X2142050D02*
Y-3489510D01*
X2602050D01*
Y-4124510D01*
X2142050D01*
G01X2015560Y-3274930D02*
X1875560D01*
Y-2974910D01*
X2015560D01*
Y-3274930D01*
G01X2649040Y-4124510D02*
Y-3489510D01*
X3109040D01*
Y-4124510D01*
X2649040D01*
G01X2724050D02*
Y-4223500D01*
X2723030Y-4224510D01*
G03X3027050I152010J13210D01*
G01X3028040Y-4223500D01*
Y-4124510D01*
G01X2217060D02*
Y-4223500D01*
X2216040Y-4224510D01*
G03X2520060I152010J13210D01*
G01X2521050Y-4223500D01*
Y-4124510D01*
G01X2498690Y-3271610D02*
X2358690D01*
Y-2971590D01*
X2498690D01*
Y-3271610D01*
G01X3964640Y-3457990D02*
Y-4108000D01*
X3224640D01*
Y-3457990D01*
X3964640D01*
G01X3680140Y-474900D02*
X3230160D01*
Y-24920D01*
X3680140D01*
Y-474900D01*
G01X3506010Y129000D02*
Y329000D01*
X3755990D01*
Y129000D01*
X3506010D01*
G01X3804500Y774500D02*
Y599500D01*
X3499500D01*
Y774500D01*
X3804500D01*
M02*
