G04 ================== begin FILE IDENTIFICATION RECORD ==================*
G04 Layout Name:  J:/eb/EB3b.brd*
G04 Film Name:    BOTTOM_MASK*
G04 File Format:  Gerber RS274X*
G04 File Origin:  Cadence Allegro 17.2-P019*
G04 Origin Date:  Mon Mar 08 12:54:10 2021*
G04 *
G04 Layer:  VIA CLASS/SOLDERMASK_BOTTOM*
G04 Layer:  PIN/SOLDERMASK_BOTTOM*
G04 Layer:  PACKAGE GEOMETRY/SOLDERMASK_BOTTOM*
G04 Layer:  BOARD GEOMETRY/SOLDERMASK_BOTTOM*
G04 *
G04 Offset:    (0.0000 0.0000)*
G04 Mirror:    No*
G04 Mode:      Positive*
G04 Rotation:  0*
G04 FullContactRelief:  No*
G04 UndefLineWidth:     0.0000*
G04 ================== end FILE IDENTIFICATION RECORD ====================*
%FSLAX35Y35*MOMM*%
%IR0*IPPOS*OFA0.00000B0.00000*MIA0B0*SFA1.00000B1.00000*%
%ADD12C,.9501*%
%ADD19C,2.*%
%ADD10C,3.4*%
%ADD21C,2.0015*%
%ADD16C,2.1016*%
%ADD15C,2.3015*%
%ADD14C,3.3015*%
%ADD22C,1.0516*%
%ADD13C,1.5016*%
%ADD18C,1.7015*%
%ADD11C,1.1176*%
%ADD20R,1.7015X1.7015*%
%ADD17C,1.5916*%
%LPD*%
G75*
G54D10*
X-4680000Y-3100000D03*
Y2300000D03*
X2750000D03*
X3800000Y-3100000D03*
G54D20*
X2226000Y-598000D03*
G54D11*
X-4635500Y-2349500D03*
X-4911500Y-2513500D03*
X-4525000Y-1893750D03*
X-4450000Y-1650000D03*
X-4759500Y-1775000D03*
X-4725000Y-2038500D03*
X-4475000Y-1400000D03*
X-4625000Y-1000000D03*
X-4512500Y-600000D03*
X-4781250Y-250000D03*
X-4487500Y1081250D03*
X-3942990Y-2842990D03*
X-4118750Y-2281250D03*
X-4313000Y-1662000D03*
X-4275000Y-1848280D03*
X-4375000Y-1775000D03*
Y-1950000D03*
X-3937000Y-1587500D03*
X-4064000Y-1536700D03*
X-4178500Y-1587500D03*
X-4237500Y-1450000D03*
X-4338250Y-1168000D03*
X-4381500Y-1333500D03*
X-4143750Y-975000D03*
X-4336750Y-743000D03*
X-4143750Y2418750D03*
X-3675000Y-2356250D03*
X-3700050Y-1812550D03*
X-3691400Y-1666400D03*
X-3839000Y-1695750D03*
X-3725000Y-1525000D03*
X-3394990Y-1394990D03*
X-3487500Y-1300000D03*
X-3457510Y-1495010D03*
X-3444990Y-1194990D03*
X-3756250Y-1381250D03*
X-3365500Y-952500D03*
X-3143750Y-2237500D03*
X-2857500Y-1905000D03*
X-2794000Y-1968500D03*
X-3111500Y-1778000D03*
X-2913000Y-1750000D03*
X-3048000Y-1270000D03*
X-2863550Y-625000D03*
X-3125000Y-712500D03*
X-3300000Y-356250D03*
X-3075000Y-62500D03*
X-2975000Y75000D03*
X-3031250Y337500D03*
X-3125000Y900000D03*
X-3175000Y1200000D03*
X-2793750Y2368750D03*
X-2693750Y-3387500D03*
X-2662950Y-2794200D03*
X-2725000Y-3200000D03*
X-2662500Y-3012500D03*
X-2725000Y-2350000D03*
X-2625000Y-2512500D03*
X-2681250Y-2612500D03*
X-2413000Y-1714500D03*
X-2281250Y-1656250D03*
X-2643750Y-1950000D03*
X-2625000Y-2131250D03*
X-2476500Y-1587500D03*
X-2730500D03*
X-2476500Y-1333500D03*
X-2667000Y-1524000D03*
X-2476500Y-1206500D03*
X-2597250Y-1321000D03*
X-2603500Y-1206500D03*
X-2361000Y-1582250D03*
X-2725000Y-525000D03*
X-2667000Y-725000D03*
X-2675000Y-396620D03*
X-2543750Y-337500D03*
X-2593750Y-62500D03*
X-2193750Y-75000D03*
X-2318350Y481650D03*
X-2286000Y317500D03*
X-2531250Y137500D03*
X-2600000Y201600D03*
X-2543750Y37500D03*
X-2400000Y575000D03*
X-2421940Y1321940D03*
X-1825000Y-3975000D03*
X-1950000D03*
X-2148510D03*
X-1856250Y-3318750D03*
X-1800000Y-2637500D03*
X-2162500Y-1787500D03*
X-1950000Y-1681250D03*
X-1712500Y-1668750D03*
X-1900000Y-1475000D03*
X-2038250Y-1561750D03*
X-1787500Y-1581250D03*
X-2050000Y-1175000D03*
X-1650000Y-1050000D03*
X-1656250Y-743750D03*
X-2025000Y-593750D03*
X-2112500Y-994660D03*
X-1825000Y6250D03*
X-2106250Y-175000D03*
X-1911900Y486900D03*
X-2068750Y143750D03*
X-2181250Y868750D03*
X-2137500Y2400000D03*
X-1325000Y-4000000D03*
X-1383280Y-3350000D03*
X-1330600Y-3819400D03*
X-1587500Y-2984500D03*
X-1549000Y-3186500D03*
X-1397000Y-3111500D03*
X-1100000Y-3250000D03*
X-1270000Y-3048000D03*
X-1403250Y-2601500D03*
X-1225000Y-2550000D03*
X-1473000Y-2500500D03*
X-1493750Y-2393750D03*
X-1118750Y-2337500D03*
X-1275000Y-2237500D03*
X-1612500D03*
X-1506250Y-2287500D03*
X-1618090Y-1731910D03*
X-1276200Y-1673000D03*
X-1169200Y-1454700D03*
X-1251250Y-1543000D03*
X-1475000Y-1093750D03*
X-1275000Y-1137500D03*
X-1100000Y-1093750D03*
X-1343750Y-775000D03*
X-1200000Y-900000D03*
Y-775000D03*
X-1406250Y-950000D03*
X-1193750Y-1037500D03*
X-1500000Y-425000D03*
X-1524000Y-63500D03*
X-1143000Y-190500D03*
X-1397000D03*
X-1318750Y-462500D03*
X-1112500Y37500D03*
X-1465900Y640900D03*
X-1300000Y650000D03*
X-1075000Y-4000000D03*
X-675000Y-3787500D03*
X-1025000Y-3100000D03*
X-1073250Y-2558450D03*
X-1016000Y-2286000D03*
X-585230Y-2347730D03*
X-600000Y-1925000D03*
X-975000Y-1775000D03*
X-1043750Y-1637500D03*
X-931250Y-1600000D03*
X-581250Y-1368750D03*
X-725000Y-1381250D03*
X-1056250Y-1437500D03*
X-950000Y-700000D03*
X-875000Y-650000D03*
X-975000Y-950000D03*
X-1013600Y-863600D03*
X-981250Y-331250D03*
X-943750Y-146150D03*
X-900000Y-50000D03*
X-892000Y-508000D03*
X-1018750Y-218750D03*
X-987500Y-437500D03*
X-900000Y50000D03*
X-497920Y-3791670D03*
X12500Y-2768750D03*
X-237500Y-3041540D03*
X-326800Y-3276800D03*
X-325600Y-3124400D03*
X-37500Y-2925000D03*
X-243750Y-2812500D03*
X-240500Y-2642000D03*
X-61520Y-2680270D03*
X-12500Y-2406250D03*
X-50000Y-1775000D03*
X-368750Y-1925000D03*
X25000Y-1575000D03*
X-468750Y-1456250D03*
X-181020Y-1601590D03*
X-312500Y-839010D03*
X-37000Y-768250D03*
X-250000Y-150000D03*
X-350000Y275000D03*
X-425000Y100000D03*
X-343750Y1343750D03*
X-6250Y1168750D03*
X-375000Y2368750D03*
X356250Y-2875000D03*
X550000Y-2906250D03*
X231250Y-3093750D03*
X139500Y-2309500D03*
X127000Y-2182500D03*
X100000Y-1937500D03*
X144000Y-1800000D03*
X438500Y-1373000D03*
X381000Y-1206500D03*
X127000Y-889000D03*
X381000Y-825500D03*
X500000Y-825000D03*
X254000Y-889000D03*
X193750Y412500D03*
X270750Y254250D03*
X437500Y425000D03*
X250000Y1512500D03*
X675000Y-2987500D03*
X637200Y-2519050D03*
X881250Y-2650000D03*
X800000Y-1196000D03*
X725000Y-1309500D03*
X1087500Y-1156250D03*
X635000Y-1016000D03*
X825500D03*
X625000Y-650000D03*
X838200Y-138200D03*
X618750Y-68750D03*
X762000Y381000D03*
X675000Y300000D03*
X1018750Y1125000D03*
X1016000Y1524000D03*
X1125000Y1974240D03*
X1108310Y1715500D03*
X1113500Y2100000D03*
X1117000Y1841500D03*
X656250Y2450000D03*
X1168750Y-2987500D03*
X1684710Y-3000000D03*
X1589750Y-2921000D03*
X1581250Y-2637500D03*
X1137500Y-2631250D03*
X1287500Y-2256250D03*
X1460500Y-1143000D03*
X1317670Y-1575000D03*
X1243750Y-887500D03*
X1322600Y-1068600D03*
X1450000Y75000D03*
X1564750Y254000D03*
X1356250Y362500D03*
X1568750Y681250D03*
X1227750Y1116000D03*
X1587500Y1333500D03*
X1637500Y1731250D03*
X1587500Y2087500D03*
X1651000Y1905000D03*
X2193750Y-2857500D03*
X2156250Y-3049150D03*
X1981250Y-2387500D03*
X1701000Y-1499000D03*
Y-1119750D03*
X1987500Y600000D03*
X2000000Y1725000D03*
X2095500Y1968500D03*
X2158750Y2165250D03*
X2000000Y2262500D03*
X2603500Y-2603500D03*
X2583870Y-2097380D03*
X2268750Y-1787500D03*
X2413000Y-1778000D03*
X2275000Y-1500000D03*
X2400000Y-1625000D03*
X2462500Y-1221010D03*
X2300000Y-1200000D03*
X2506250Y-837500D03*
X2618750Y-1062500D03*
X2710500Y-326200D03*
X2772000Y-461500D03*
X2356250Y31250D03*
X2462500Y362500D03*
X2721250Y385000D03*
X2603500Y1016000D03*
X2794000Y635000D03*
X2413000Y1587500D03*
X2456250Y1218750D03*
X2474750Y1719000D03*
X2468750Y2175000D03*
X2943750Y-3043750D03*
X3162500Y-3212500D03*
X3143750Y-2412500D03*
X2862500Y-2218750D03*
X3137500Y-2125000D03*
X2975000Y-1108140D03*
X2950000Y-1600000D03*
X2850000Y-1087000D03*
Y-1525000D03*
X3100000Y-1131500D03*
Y-875000D03*
X3350000Y-400000D03*
X3175000Y175000D03*
X3325000Y225000D03*
X3175000Y325000D03*
X2812500Y62500D03*
X3200000Y1675000D03*
X3062500Y1387500D03*
X3600000Y-1989650D03*
X3437500Y-1093750D03*
X3768750Y-1595750D03*
X3675000Y-1137500D03*
X3876000Y-1451000D03*
X3581250Y-1037500D03*
X3400000Y1125000D03*
X3810000Y1524000D03*
Y1651000D03*
X3975000Y-2750000D03*
X3968750Y-2175000D03*
X3987500Y-1262500D03*
X3926000Y-1351000D03*
X3981330Y-399920D03*
X3931250Y662500D03*
X4001010Y1751010D03*
G54D21*
X3244630Y-3607980D03*
X3944650D03*
G54D12*
X-4006850Y-3737000D03*
X-3326850D03*
G54D13*
X-4158500Y1184240D03*
X-3929500D03*
X-3319490Y1670250D03*
X-3523500D03*
X-3727490D03*
X-3421500Y1848250D03*
X-3625510D03*
X-3829500D03*
X-3015500Y1184240D03*
X-2786500D03*
X-3115500Y1670250D03*
X-3217510Y1848250D03*
G54D22*
X3336010Y2032000D03*
X3775990D03*
G54D14*
X-4107500Y2102250D03*
X-2837500D03*
G54D15*
X-4285500Y1759250D03*
X-2659500D03*
G54D16*
X-1770000Y1147250D03*
X-2020000Y1397250D03*
X-1770000Y2397250D03*
X-1270000Y1397250D03*
X-770000Y1147250D03*
X-520000Y1397250D03*
X-770000Y2397250D03*
G54D17*
X-46930Y-3685000D03*
X-300930D03*
X462000Y-3684510D03*
X208000D03*
X971010D03*
X717010D03*
X1480020D03*
X1226020D03*
X1989030D03*
X1735030D03*
X2245050D03*
X2752040D03*
X2499050D03*
X3006040D03*
G54D18*
X1464000Y-598000D03*
X1718000D03*
X1972000D03*
X3369650Y-3857990D03*
X3819630D03*
G54D19*
X2150000Y-2050000D03*
X3386500Y638500D03*
M02*
