M48
METRIC
T01C.3302
T02C.75
T03C.89
T04C.8999
T05C1.
T06C1.0201
T07C1.3
T08C1.4
T09C1.5999
T10C1.65
T11C.95
T12C.95
T13C3.1999
;LEADER: 12 
;HEADER: 
;CODE  : ASCII 
;FILE  : EB3b-1-4.drl for  ... layers TOP and BOTTOM
;DESIGN: EB3b.brd
;T01 Holesize 1. = 0.330200 Tolerance = +0.000000/-0.000000 PLATED MM Quantity = 310
;T02 Holesize 2. = 0.750000 Tolerance = +0.000000/-0.000000 PLATED MM Quantity = 2
;T03 Holesize 3. = 0.890000 Tolerance = +0.076200/-0.076200 PLATED MM Quantity = 14
;T04 Holesize 4. = 0.899900 Tolerance = +0.076200/-0.076200 PLATED MM Quantity = 12
;T05 Holesize 5. = 1.000000 Tolerance = +0.076200/-0.076200 PLATED MM Quantity = 2
;T06 Holesize 6. = 1.020100 Tolerance = +0.076200/-0.076200 PLATED MM Quantity = 4
;T07 Holesize 7. = 1.300000 Tolerance = +0.076200/-0.076200 PLATED MM Quantity = 2
;T08 Holesize 8. = 1.400000 Tolerance = +0.076200/-0.076200 PLATED MM Quantity = 7
;T09 Holesize 9. = 1.599900 Tolerance = +0.076200/-0.076200 PLATED MM Quantity = 2
;T10 Holesize 10. = 1.650000 Tolerance = +0.076200/-0.076200 PLATED MM Quantity = 4
;T11 Holesize 11. = 0.950000 Tolerance = +0.000000/-0.000000 NON_PLATED MM Quantity = 2
;T12 Holesize 12. = 0.950000 Tolerance = +0.050800/-0.050800 NON_PLATED MM Quantity = 2
;T13 Holesize 13. = 3.199900 Tolerance = +0.050800/-0.050800 NON_PLATED MM Quantity = 2
%
G90
T01
X3768750Y-1595750
X1581250Y-2637500
X2193750Y-2857500
X3876000Y-1451000
X2603500Y-2603500
X3675000Y-1137500
X-4759500Y-1775000
X-4375000Y-1775000
X-4635500Y-2349500
X-3675000Y-2356250
X-2400000Y0575000
X-4381500Y-1333500
X-3365500Y-0952500
X-2050000Y-1175000
X1589750Y-2921000
X3926000Y-1351000
X1137500Y-2631250
X3581250Y-1037500
X0356250Y-2875000
X3437500Y-1093750
X3987500Y-1262500
X3350000Y-0400000
X-0892000Y-0508000
X0127000Y-0889000
X0438500Y-1373000
X0100000Y-1937500
X-3487500Y-1300000
X-2597250Y-1321000
X-3444990Y-1194990
X-2603500Y-1206500
X-2794000Y-1968500
X-2413000Y-1714500
X-3394990Y-1394990
X-2476500Y-1333500
X-3457510Y-1495010
X-2476500Y-1206500
X-2857500Y-1905000
X-2476500Y-1587500
X-3111500Y-1778000
X-2730500Y-1587500
X-2162500Y-1787500
X-1524000Y-0063500
X-1900000Y-1475000
X-2667000Y-1524000
X-2038250Y-1561750
X-2913000Y-1750000
X-2667000Y-0725000
X-1397000Y-0190500
X-3125000Y0900000
X-2593750Y-0062500
X-3839000Y-1695750
X-2543750Y0037500
X-4064000Y-1536700
X-2543750Y-0337500
X-3937000Y-1587500
X-2068750Y0143750
X-4237500Y-1450000
X-2600000Y0201600
X-4313000Y-1662000
X-2531250Y0137500
X-4178500Y-1587500
X-2286000Y0317500
X-4450000Y-1650000
X2413000Y-1778000
X2275000Y-1500000
X0825500Y-1016000
X2400000Y-1625000
X-1143000Y-0190500
X2300000Y-1200000
X0193750Y0412500
X1701000Y-1499000
X1701000Y-1119750
X1117000Y1841500
X2095500Y1968500
X2975000Y-1108140
X2950000Y-1600000
X2710500Y-0326200
X0270750Y0254250
X-1650000Y-1050000
X-1587500Y-2984500
X-1251250Y-1543000
X-1225000Y-2550000
X-0875000Y-0650000
X-1016000Y-2286000
X-1025000Y-3100000
X0381000Y-1206500
X1450000Y0075000
X0254000Y-0889000
X1016000Y1524000
X1108310Y1715500
X0250000Y1512500
X-0900000Y0050000
X1587500Y1333500
X2158750Y2165250
X2000000Y1725000
X2603500Y1016000
X1987500Y0600000
X-0343750Y1343750
X2850000Y-1087000
X2850000Y-1525000
X2772000Y-0461500
X3100000Y-1131500
X3100000Y-0875000
X1322600Y-1068600
X0144000Y-1800000
X1651000Y1905000
X1125000Y1974240
X0012500Y-2768750
X-0061520Y-2680270
X-1493750Y-2393750
X-2725000Y-2350000
X-1100000Y-3250000
X-0325600Y-3124400
X1460500Y-1143000
X1317670Y-1575000
X0025000Y-1575000
X-0240500Y-2642000
X1113500Y2100000
X1587500Y2087500
X-1118750Y-2337500
X-0950000Y-0700000
X2794000Y0635000
X-0050000Y-1775000
X0635000Y-1016000
X0838200Y-0138200
X-0943750Y-0146150
X0762000Y0381000
X-0900000Y-0050000
X0675000Y0300000
X-1073250Y-2558450
X-1169200Y-1454700
X-0981250Y-0331250
X0381000Y-0825500
X0725000Y-1309500
X0127000Y-2182500
X-1018750Y-0218750
X0500000Y-0825000
X0800000Y-1196000
X0139500Y-2309500
X-1397000Y-3111500
X-1193750Y-1037500
X-1549000Y-3186500
X-1275000Y-1137500
X-1270000Y-3048000
X-1100000Y-1093750
X-1406250Y-0950000
X-1506250Y-2287500
X-2318350Y0481650
X-2193750Y-0075000
X0550000Y-2906250
X0881250Y-2650000
X-0675000Y-3787500
X3062500Y1387500
X-4725000Y-2038500
X-4275000Y-1848280
X-0037000Y-0768250
X0625000Y-0650000
X-1712500Y-1668750
X-2643750Y-1950000
X-1276200Y-1673000
X-0250000Y-0150000
X-2662950Y-2794200
X-2662500Y-3012500
X-1950000Y-3975000
X-1330600Y-3819400
X-1325000Y-4000000
X-0037500Y-2925000
X-3691400Y-1666400
X-1465900Y0640900
X-2975000Y0075000
X-0581250Y-1368750
X-0600000Y-1925000
X3175000Y0325000
X-2361000Y-1582250
X-2725000Y-0525000
X-2421940Y1321940
X3175000Y0175000
X3325000Y0225000
X-1475000Y-1093750
X-1612500Y-2237500
X-1343750Y-0775000
X-1403250Y-2601500
X-1500000Y-0425000
X-1473000Y-2500500
X-3175000Y1200000
X-0975000Y-1775000
X-1200000Y-0775000
X-1200000Y-0900000
X-1056250Y-1437500
X-1043750Y-1637500
X-1013600Y-0863600
X-0975000Y-0950000
X-0931250Y-1600000
X-4118750Y-2281250
X-4525000Y-1893750
X-4475000Y-1400000
X-4143750Y-0975000
X-3756250Y-1381250
X0656250Y2450000
X2812500Y0062500
X3931250Y0662500
X-4487500Y1081250
X-2181250Y0868750
X-0468750Y-1456250
X-3143750Y-2237500
X-4512500Y-0600000
X-4143750Y2418750
X-2793750Y2368750
X-0375000Y2368750
X-2137500Y2400000
X-0006250Y1168750
X2456250Y1218750
X1356250Y0362500
X2618750Y-1062500
X1243750Y-0887500
X2506250Y-0837500
X2943750Y-3043750
X3975000Y-2750000
X3968750Y-2175000
X2862500Y-2218750
X3143750Y-2412500
X1981250Y-2387500
X-2693750Y-3387500
X-1856250Y-3318750
X-1800000Y-2637500
X-3031250Y0337500
X0437500Y0425000
X0618750Y-0068750
X-0350000Y0275000
X-1656250Y-0743750
X-2025000Y-0593750
X-1318750Y-0462500
X-1112500Y0037500
X-1825000Y0006250
X-0368750Y-1925000
X3981330Y-0399920
X-0497920Y-3791670
X-1787500Y-1581250
X-1950000Y-1681250
X-2112500Y-0994660
X-2106250Y-0175000
X-1383280Y-3350000
X-0585230Y-2347730
X-2625000Y-2512500
X-1618090Y-1731910
X1227750Y1116000
X-1275000Y-2237500
X-0425000Y0100000
X-0987500Y-0437500
X-0312500Y-0839010
X1087500Y-1156250
X2462500Y-1221010
X2583870Y-2097380
X3137500Y-2125000
X-2281250Y-1656250
X-4338250Y-1168000
X-4336750Y-0743000
X2721250Y0385000
X2356250Y0031250
X1564750Y0254000
X1568750Y0681250
X2000000Y2262500
X1637500Y1731250
X2268750Y-1787500
X-3075000Y-0062500
X-3300000Y-0356250
X-3125000Y-0712500
X0637200Y-2519050
X-0012500Y-2406250
X2156250Y-3049150
X-0237500Y-3041540
X0231250Y-3093750
X1684710Y-3000000
X1168750Y-2987500
X0675000Y-2987500
X1287500Y-2256250
X3162500Y-3212500
X-3942990Y-2842990
X-4911500Y-2513500
X-4625000Y-1000000
X-4375000Y-1950000
X-0181020Y-1601590
X-2625000Y-2131250
X-2681250Y-2612500
X-2725000Y-3200000
X-1825000Y-3975000
X-2148510Y-3975000
X-1075000Y-4000000
X-0326800Y-3276800
X-0243750Y-2812500
X-3700050Y-1812550
X3200000Y1675000
X2474750Y1719000
X2413000Y1587500
X3400000Y1125000
X-1300000Y0650000
X-1911900Y0486900
X-4781250Y-0250000
X-3725000Y-1525000
X-2863550Y-0625000
X-2675000Y-0396620
X-0725000Y-1381250
X-3048000Y-1270000
X3810000Y1524000
X1018750Y1125000
X2468750Y2175000
X3600000Y-1989650
X2462500Y0362500
X3810000Y1651000
X4001010Y1751010
T02
X3386500Y0638500
X2150000Y-2050000
T03
X0717010Y-3684510
X0971010Y-3684510
X1226020Y-3684510
X1480020Y-3684510
X0208000Y-3684510
X0462000Y-3684510
X2245050Y-3684510
X2499050Y-3684510
X-0300930Y-3685000
X-0046930Y-3685000
X1735030Y-3684510
X1989030Y-3684510
X2752040Y-3684510
X3006040Y-3684510
T04
X-3829500Y1848250
X-3727490Y1670250
X-3625510Y1848250
X-3523500Y1670250
X-3421500Y1848250
X-3319490Y1670250
X-3217510Y1848250
X-3115500Y1670250
X-2786500Y1184240
X-3015500Y1184240
X-3929500Y1184240
X-4158500Y1184240
T05
X3369650Y-3857990
X3819630Y-3857990
T06
X2226000Y-0598000
R03X-0254000
T07
X3244630Y-3607980
X3944650Y-3607980
T08
X-2020000Y1397250
R02X0750000
X-1770000Y1147250
X-0770000Y1147250
X-0770000Y2397250
X-1770000Y2397250
T09
X-4285500Y1759250
X-2659500Y1759250
T10
X-4680000Y2300000
X-4680000Y-3100000
X3800000Y-3100000
X2750000Y2300000
T11
X-4006850Y-3737000
X-3326850Y-3737000
T12
X3775990Y2032000
X3336010Y2032000
T13
X-2837500Y2102250
X-4107500Y2102250
M30
