G04 ================== begin FILE IDENTIFICATION RECORD ==================*
G04 Layout Name:  J:/eb/EB3b.brd*
G04 Film Name:    PASTEMASK*
G04 File Format:  Gerber RS274X*
G04 File Origin:  Cadence Allegro 17.2-P019*
G04 Origin Date:  Mon Mar 08 12:56:11 2021*
G04 *
G04 Layer:  VIA CLASS/PASTEMASK_TOP*
G04 Layer:  PACKAGE GEOMETRY/PASTEMASK_TOP*
G04 Layer:  PIN/PASTEMASK_TOP*
G04 *
G04 Offset:    (0.0000 0.0000)*
G04 Mirror:    No*
G04 Mode:      Positive*
G04 Rotation:  0*
G04 FullContactRelief:  No*
G04 UndefLineWidth:     0.0000*
G04 ================== end FILE IDENTIFICATION RECORD ====================*
%FSLAX35Y35*MOMM*%
%IR0*IPPOS*OFA0.00000B0.00000*MIA0B0*SFA1.00000B1.00000*%
%ADD17R,.8001X1.*%
%ADD19R,2.3998X1.8999*%
%ADD16R,.62X1.4*%
%ADD29R,1.8999X2.3998*%
%ADD35R,.6X1.55*%
%ADD20R,.76X2.03*%
%ADD36R,1.27X.63*%
%ADD42R,.5499X1.3*%
%ADD27R,.3X2.1999*%
%ADD25R,2.1999X.3*%
%ADD34R,1.1001X.5999*%
%ADD15R,1.X.8999*%
%ADD14R,.8999X1.*%
%ADD33R,2.8001X.7399*%
%ADD43R,.4501X1.4999*%
%ADD10R,1.1X2.4*%
%ADD41R,.8499X2.1999*%
%ADD30R,1.27X1.1001*%
%ADD37R,1.1001X1.27*%
%ADD39R,2.1001X2.8001*%
%ADD23R,.27X.8001*%
%ADD22R,.8001X.27*%
%ADD18R,.5001X.6251*%
%ADD12R,.6251X.5001*%
%ADD28R,.3048X.9144*%
%ADD21R,.5001X.5499*%
%ADD40R,2.1001X2.5999*%
%ADD26R,.9144X.3048*%
%ADD24R,.5499X.5001*%
%ADD38R,1.8999X1.5011*%
%ADD13R,1.8001X1.5999*%
%ADD31R,5.7X1.5999*%
%ADD11R,.8999X.8001*%
%ADD32R,.8999X.7501*%
G75*
%LPD*%
G75*
G36*
G01X-3207990Y-1429990D02*
Y-1285010D01*
X-3063010D01*
Y-1429990D01*
X-3207990D01*
G37*
G36*
G01X-3063010Y-1254990D02*
Y-1110010D01*
X-3207990D01*
Y-1254990D01*
X-3063010D01*
G37*
G36*
G01X-2888010Y-1429990D02*
Y-1285010D01*
X-3032990D01*
Y-1429990D01*
X-2888010D01*
G37*
G36*
G01X-3032990Y-1254990D02*
Y-1110010D01*
X-2888010D01*
Y-1254990D01*
X-3032990D01*
G37*
G54D10*
X-4426850Y-3695000D03*
Y-2795000D03*
X-2811850Y-3695000D03*
Y-2795000D03*
G54D11*
X-4892170Y-2355850D03*
X-4692170Y-2260850D03*
X-4892170Y-2165850D03*
X-4634330Y-1351600D03*
Y-1161600D03*
X-4834330Y-1256600D03*
X-87990Y-3079100D03*
Y-3269100D03*
X112010Y-3174100D03*
X381460Y-3084600D03*
Y-3274600D03*
X829870Y-2997100D03*
Y-3187100D03*
X1029870Y-3092100D03*
X581460Y-3179600D03*
X1333350Y-3001600D03*
Y-3191600D03*
X1533350Y-3096600D03*
X1845560Y-3029920D03*
Y-3219920D03*
X2045560Y-3124920D03*
X2328690Y-3026600D03*
Y-3216600D03*
X2528690Y-3121600D03*
G54D20*
X-4254500Y-178000D03*
X-4127500D03*
X-4000500D03*
X-3873500D03*
Y686000D03*
X-4000500D03*
X-4127500D03*
X-4254500D03*
X-3746500Y-178000D03*
X-3619500D03*
X-3492500D03*
X-3365500D03*
Y686000D03*
X-3492500D03*
X-3619500D03*
X-3746500D03*
G54D21*
X-3378520Y-1659290D03*
Y-1744270D03*
G54D12*
X-4830620Y-1898690D03*
X-4733240D03*
X-4840250Y-1648690D03*
X-4742870D03*
X-4518630Y-257090D03*
X-4616010D03*
X-3893340Y-2278370D03*
X-4116060Y-1168000D03*
X-4213440D03*
X-4114810Y-743000D03*
X-4212190D03*
X-3795960Y-2278370D03*
X-3537130Y-1098690D03*
X-3634510D03*
X-3179790Y-253590D03*
X-3082410D03*
X-2421940Y1012720D03*
X-2519320D03*
X-2421940Y1153090D03*
X-2519320D03*
X-604520Y-1249590D03*
X-701900D03*
X-27320Y-3433370D03*
X-289730Y-1474590D03*
X-192350D03*
X438160Y-3433870D03*
X535540D03*
X70060Y-3433370D03*
X154040Y-1474590D03*
X56660D03*
X940920Y-3433370D03*
X1038300D03*
X1468790Y-3445870D03*
X1566170D03*
X1949950Y-3419020D03*
X2047330D03*
X2449400Y-3411190D03*
X2546780D03*
X2983550Y-3382370D03*
X3080930D03*
G54D30*
X-451000Y-709000D03*
Y-499000D03*
G54D31*
X198000Y-19000D03*
Y-489000D03*
G54D13*
X-4788500Y-6500D03*
Y273500D03*
G54D40*
X3110990Y2347010D03*
X4001010D03*
G54D22*
X-2802990Y-1145010D03*
Y-1194990D03*
Y-1245010D03*
Y-1294990D03*
Y-1345010D03*
Y-1394990D03*
Y-1445010D03*
X-3293010D03*
Y-1394990D03*
Y-1345010D03*
Y-1294990D03*
Y-1245010D03*
Y-1194990D03*
Y-1145010D03*
X-2802990Y-1094990D03*
X-3293010D03*
G54D32*
X52840Y-2680270D03*
Y-2545290D03*
X690380Y-2784260D03*
Y-2649280D03*
X3330300Y365240D03*
Y500220D03*
G54D23*
X-2872990Y-1515010D03*
X-2923010D03*
X-2972990D03*
X-3023010D03*
X-3072990D03*
X-3123010D03*
X-3172990D03*
X-3223010D03*
Y-1024990D03*
X-3172990D03*
X-3123010D03*
X-3072990D03*
X-3023010D03*
X-2972990D03*
X-2923010D03*
X-2872990D03*
G54D41*
X3548500Y229000D03*
X3713500D03*
G54D14*
X-4602200Y893860D03*
X-4754600D03*
X-4640270Y636030D03*
X-4792670D03*
X-4595830Y1231110D03*
X-4748230D03*
X-3018340Y-450600D03*
X-3170740D03*
X-2550130Y-212100D03*
X-2702530D03*
X-1871340Y-3810030D03*
X-2023740D03*
X-1719730Y-1849280D03*
X-1872130D03*
X-1724940Y-1475850D03*
X-2186190Y481650D03*
X-2033790D03*
X-1213590Y-3845600D03*
X-1276200Y-1800000D03*
X-1123800D03*
X-1572540Y-1475850D03*
X-1464630Y517580D03*
X-1312230D03*
X-1061190Y-3845600D03*
X-557600Y-2089780D03*
X-405200D03*
X108740Y-2924600D03*
X261140D03*
X98800Y-737000D03*
X251200D03*
X370300Y1440000D03*
X522700D03*
X152800Y1666000D03*
X305200D03*
X152800Y2019500D03*
X305200D03*
X152800Y2186000D03*
X305200D03*
X152800Y1807500D03*
X305200D03*
X853610Y-2829100D03*
X1006010D03*
X838200Y-508000D03*
X685800D03*
X732800Y1433500D03*
X885200D03*
X814300Y1904500D03*
X966700D03*
X814300Y2096000D03*
X966700D03*
X971700Y1715500D03*
X819300D03*
X1338980Y-2829100D03*
X1491380D03*
X1399350Y-2391600D03*
X1551750D03*
X1421200Y2086000D03*
X1268800D03*
X1421200Y1894500D03*
X1268800D03*
X1264800Y1711500D03*
X1417200D03*
X1911140Y-2832430D03*
X2063540D03*
X1831800Y1244000D03*
X1984200D03*
X2347220Y-2841600D03*
X2499620D03*
X2497190Y487900D03*
X2649590D03*
X3332550Y-2032000D03*
X3484950D03*
G54D24*
X-2892460Y-733780D03*
X-2807480D03*
X-2999780Y-615780D03*
X-3084760D03*
X-2906310Y-876280D03*
X-2821330D03*
X3618320Y1067060D03*
X3533340D03*
G54D33*
X438500Y-2314500D03*
Y-1806500D03*
Y-1933500D03*
Y-2060500D03*
Y-2187500D03*
X844500Y-2314500D03*
Y-1806500D03*
Y-1933500D03*
Y-2060500D03*
Y-2187500D03*
G54D15*
X-4746910Y1579060D03*
Y1426660D03*
X-4270220Y-2200800D03*
Y-2048400D03*
X-3565910Y-1666400D03*
Y-1818800D03*
X-2937310Y-139580D03*
Y-291980D03*
X-2538030Y-2800800D03*
X-2559850Y-3023400D03*
Y-3175800D03*
X-2538030Y-2648400D03*
X-2515960Y-2248400D03*
Y-2400800D03*
X-2505190Y-1924400D03*
Y-2076800D03*
X-2539520Y-596800D03*
Y-444400D03*
X-1685300Y-3936300D03*
Y-3783900D03*
X-2171610Y-1443400D03*
Y-1595800D03*
X-1485260Y-3971800D03*
Y-3819400D03*
X-1455590Y-1788300D03*
Y-1635900D03*
X-497920Y-3459580D03*
Y-3611980D03*
X-446670Y-3124400D03*
Y-3276800D03*
X-376050Y-2950480D03*
Y-2798080D03*
X-437000Y-2290800D03*
Y-2443200D03*
X-260370Y-666300D03*
X-451000Y-234200D03*
Y-81800D03*
X-260370Y-513900D03*
X1042500Y1244300D03*
Y1396700D03*
X1196500D03*
Y1244300D03*
X1553500Y2287300D03*
Y2439700D03*
X2155000Y-1883200D03*
Y-1730800D03*
X2596500Y231200D03*
Y78800D03*
X2600500Y820200D03*
Y667800D03*
X2475520Y2026600D03*
Y1874200D03*
G54D42*
X3557000Y562010D03*
X3652000D03*
X3747000D03*
Y811990D03*
X3557000D03*
G54D43*
X3396010Y1877010D03*
X3475990D03*
X3556000D03*
X3636010D03*
X3715990D03*
G54D34*
X202550Y-2729170D03*
Y-2539170D03*
X452530D03*
Y-2634170D03*
Y-2729170D03*
G54D25*
X-2273240Y-3347750D03*
Y-3397740D03*
Y-2797740D03*
Y-2847750D03*
Y-2897740D03*
Y-2947750D03*
Y-2997740D03*
Y-3047750D03*
Y-3097740D03*
Y-3147750D03*
Y-3197740D03*
Y-3247750D03*
Y-3297740D03*
Y-2247730D03*
Y-2297740D03*
Y-2347730D03*
Y-2397740D03*
Y-2447730D03*
Y-2497740D03*
Y-2547730D03*
Y-2597740D03*
Y-2647730D03*
Y-2697740D03*
Y-2747730D03*
Y-2197740D03*
X-773220Y-3397740D03*
Y-3347750D03*
Y-3297740D03*
Y-3247750D03*
Y-3197740D03*
Y-3147750D03*
Y-3097740D03*
Y-3047750D03*
Y-2997740D03*
Y-2947750D03*
Y-2897740D03*
Y-2847750D03*
Y-2797740D03*
Y-2747730D03*
Y-2697740D03*
Y-2647730D03*
Y-2597740D03*
Y-2547730D03*
Y-2497740D03*
Y-2447730D03*
Y-2397740D03*
Y-2347730D03*
Y-2297740D03*
Y-2247730D03*
Y-2197740D03*
G54D16*
X-4288850Y-2595000D03*
X-4178850D03*
X-4068850D03*
X-3958850D03*
X-3848850D03*
X-3738850D03*
X-3628850D03*
X-3518850D03*
X-3408850D03*
G54D26*
X-2308860Y-1117600D03*
Y-1066800D03*
Y-1016000D03*
Y-965200D03*
Y-914400D03*
Y-863600D03*
Y-812800D03*
Y-762000D03*
Y-711200D03*
Y-660400D03*
Y-609600D03*
Y-558800D03*
Y-508000D03*
Y-457200D03*
Y-406400D03*
Y-355600D03*
Y-304800D03*
Y-254000D03*
Y-203200D03*
Y-152400D03*
Y-101600D03*
Y-50800D03*
Y0D03*
Y50800D03*
Y101600D03*
X-739140Y-1117600D03*
Y-558800D03*
Y-609600D03*
Y-660400D03*
Y-711200D03*
Y-762000D03*
Y-812800D03*
Y-863600D03*
Y-914400D03*
Y-965200D03*
Y-1016000D03*
Y-1066800D03*
Y0D03*
Y-50800D03*
Y-101600D03*
Y-152400D03*
Y-203200D03*
Y-254000D03*
Y-304800D03*
Y-355600D03*
Y-406400D03*
Y-457200D03*
Y-508000D03*
Y101600D03*
Y50800D03*
G54D35*
X1574000Y-1819000D03*
X1447000D03*
X1320000D03*
X1193000D03*
Y-1279000D03*
X1320000D03*
X1447000D03*
X1574000D03*
X1955000Y-1819000D03*
X1828000D03*
X1701000D03*
Y-1279000D03*
X1828000D03*
X1955000D03*
X2710870Y-1824680D03*
X2583870D03*
Y-1284680D03*
X2710870D03*
X3218870Y-1824680D03*
X3091870D03*
X2964870D03*
X2837870D03*
Y-1284680D03*
X2964870D03*
X3091870D03*
X3218870D03*
X3472870Y-1824680D03*
X3345870D03*
Y-1284680D03*
X3472870D03*
G54D17*
X-4002970Y-2224600D03*
X-4097970Y-1984620D03*
X-3907970D03*
G54D18*
X-4120450Y-1848280D03*
Y-1750900D03*
X-3609000Y-1380180D03*
Y-1477560D03*
X-3526190Y-1022380D03*
Y-925000D03*
X1158500Y-2393690D03*
Y-2296310D03*
X3281000Y919690D03*
Y822310D03*
X3192500Y606810D03*
Y704190D03*
G54D27*
X-2123230Y-3547750D03*
X-2073240D03*
X-2023230D03*
X-1973240D03*
X-1923230D03*
X-1873240D03*
X-1823230D03*
X-1773240D03*
X-1723230D03*
X-1673240D03*
Y-2047730D03*
X-1723230D03*
X-1773240D03*
X-1823230D03*
X-1873240D03*
X-1923230D03*
X-1973240D03*
X-2023230D03*
X-2073240D03*
X-2123230D03*
X-1623230Y-3547750D03*
X-1573240D03*
X-1523230D03*
X-1473220D03*
X-1423230D03*
X-1373220D03*
X-1323230D03*
X-1273220D03*
X-1223230D03*
X-1173220D03*
X-1123230D03*
Y-2047730D03*
X-1173220D03*
X-1223230D03*
X-1273220D03*
X-1323230D03*
X-1373220D03*
X-1423230D03*
X-1473220D03*
X-1523230D03*
X-1573240D03*
X-1623230D03*
X-1073220Y-3547750D03*
X-1023230D03*
X-973220D03*
X-923230D03*
Y-2047730D03*
X-973220D03*
X-1023230D03*
X-1073220D03*
G54D36*
X1784350Y508000D03*
Y381000D03*
Y254000D03*
Y127000D03*
Y889000D03*
Y762000D03*
Y635000D03*
Y1651000D03*
Y2159000D03*
Y2032000D03*
Y1905000D03*
Y1778000D03*
Y2413000D03*
Y2286000D03*
X2279650Y381000D03*
Y508000D03*
Y254000D03*
Y127000D03*
Y762000D03*
Y889000D03*
Y635000D03*
Y1651000D03*
Y2159000D03*
Y1905000D03*
Y2032000D03*
Y1778000D03*
Y2286000D03*
Y2413000D03*
G54D28*
X-1676400Y-1292860D03*
X-1727200D03*
X-1778000D03*
X-1828800D03*
X-1879600D03*
X-1930400D03*
X-1981200D03*
X-2032000D03*
X-2082800D03*
X-2133600D03*
Y276860D03*
X-2082800D03*
X-2032000D03*
X-1981200D03*
X-1930400D03*
X-1879600D03*
X-1828800D03*
X-1778000D03*
X-1727200D03*
X-1676400D03*
X-1117600Y-1292860D03*
X-1168400D03*
X-1219200D03*
X-1270000D03*
X-1320800D03*
X-1371600D03*
X-1422400D03*
X-1473200D03*
X-1524000D03*
X-1574800D03*
X-1625600D03*
X-1473200Y276860D03*
X-1422400D03*
X-1371600D03*
X-1320800D03*
X-1270000D03*
X-1219200D03*
X-1168400D03*
X-1117600D03*
X-1625600D03*
X-1574800D03*
X-1524000D03*
X-914400Y-1292860D03*
X-965200D03*
X-1016000D03*
X-1066800D03*
Y276860D03*
X-1016000D03*
X-965200D03*
X-914400D03*
G54D37*
X1805500Y1443000D03*
X2015500D03*
G54D19*
X-3873500Y-1157500D03*
Y-747500D03*
G54D38*
X3105140Y-99900D03*
Y-399920D03*
X3805160Y-99900D03*
Y-399920D03*
G54D29*
X-268500Y-1206500D03*
X141500D03*
G54D39*
X3110990Y1962000D03*
X4001010D03*
M02*
